<svg xmlns="http://www.w3.org/2000/svg" width="23.987" height="23.988" viewBox="0 0 23.987 23.988">
  <path id="_-e-Shape_10" data-name="-e-Shape 10" d="M3092,2873.979a1.006,1.006,0,0,1-1.006-1.006V2851a1.006,1.006,0,0,1,2.012,0v20.968h20.967a1.007,1.007,0,1,1,0,2.013Zm17.968-3.65a.928.928,0,0,1-.928-.929V2851a.929.929,0,0,1,.928-.928h3.713a.929.929,0,0,1,.929.928v18.4a.928.928,0,0,1-.929.929Zm.929-1.858h1.856v-16.543h-1.856Zm-8.1,1.858a.928.928,0,0,1-.929-.929v-11.659a.928.928,0,0,1,.929-.928h3.712a.928.928,0,0,1,.929.928V2869.4a.928.928,0,0,1-.929.929Zm.929-1.858h1.854v-9.8h-1.854Zm-8.1,1.858a.928.928,0,0,1-.929-.929v-5.2a.929.929,0,0,1,.929-.93h3.712a.929.929,0,0,1,.929.93v5.2a.928.928,0,0,1-.929.929Zm.929-1.858h1.855v-3.342h-1.855Z" transform="translate(-3090.989 -2849.991)" fill="#b7d6de"/>
</svg>
