<svg xmlns="http://www.w3.org/2000/svg" width="24.016" height="21.024" viewBox="0 0 24.016 21.024">
  <path id="_-e-Shape_3124" data-name="-e-Shape 3124" d="M4116.612,1290.81a3.861,3.861,0,0,1-3.865-3.849v-5.725a3.861,3.861,0,0,1,3.865-3.85H4132.9a3.862,3.862,0,0,1,3.863,3.85v5.725a3.861,3.861,0,0,1-3.863,3.849Zm-1.88-9.573v5.725a1.878,1.878,0,0,0,1.88,1.873H4132.9a1.878,1.878,0,0,0,1.879-1.873v-5.725a1.878,1.878,0,0,0-1.879-1.873h-16.289A1.877,1.877,0,0,0,4114.732,1281.237Zm2.162,2.8c0-1.582.629-2.948,1.923-2.948,1.4,0,1.794,1.539,1.794,2.862,0,2.182-.778,3.067-1.881,3.067C4117.411,1287.014,4116.894,1285.622,4116.894,1284.034Zm1.172.017c0,1.314.249,1.985.707,1.985.485,0,.665-.86.665-2.037,0-1.014-.155-1.933-.672-1.933C4118.315,1282.065,4118.066,1282.8,4118.066,1284.05Zm13.012,2.9-.888-2.2a17.465,17.465,0,0,1-.6-1.744h-.017c.033.585.078,1.478.078,2.646v1.3h-.993v-5.791h1.035l.9,2.267c.183.448.458,1.195.623,1.693h.017c-.034-.609-.112-1.614-.112-2.681v-1.28h.993v5.791Zm-5.813,0v-5.791h2.528v.98h-1.4v1.331h1.321v.938h-1.321v1.563h1.494v.979Zm-3.94,0v-5.706a5.94,5.94,0,0,1,1.182-.112,2.185,2.185,0,0,1,1.579.448,1.665,1.665,0,0,1,.5,1.271,1.933,1.933,0,0,1-.492,1.392,2,2,0,0,1-1.415.559,2.049,2.049,0,0,1-.226-.008v2.156Zm1.128-4.864v1.8a1.429,1.429,0,0,0,.191.008c.569,0,.819-.4.819-.945,0-.507-.206-.9-.733-.9A.852.852,0,0,0,4122.453,1282.082Zm-3.919-5.5a.494.494,0,0,1,0-.7l4.672-4.654v-.017a1.436,1.436,0,0,1,2.873,0v.015l4.673,4.655a.495.495,0,0,1-.7.7l-4.383-4.366a1.438,1.438,0,0,1-2.049,0l-4.383,4.367a.5.5,0,0,1-.7,0Z" transform="translate(-4112.748 -1269.786)" fill="#077997"/>
</svg>
