<svg xmlns="http://www.w3.org/2000/svg" xmlns:xlink="http://www.w3.org/1999/xlink" width="136" height="136" viewBox="0 0 136 136">
  <defs>
    <clipPath id="clip-path">
      <rect id="Rectangle_12" data-name="Rectangle 12" width="81.79" height="78.755" fill="none"/>
    </clipPath>
  </defs>
  <g id="Group_51" data-name="Group 51" transform="translate(-3531 -4823)">
    <circle id="Ellipse_1192_copy" data-name="Ellipse 1192 copy" cx="68" cy="68" r="68" transform="translate(3531 4823)" fill="#ebfdff"/>
    <g id="_-e-Vector_Smart_Object" data-name="-e-Vector Smart Object" transform="translate(3557.105 4851.123)">
      <g id="Group_24" data-name="Group 24">
        <g id="Group_23" data-name="Group 23" clip-path="url(#clip-path)">
          <path id="Path_217" data-name="Path 217" d="M81.79,73.288v1.6c-.9,3.115-3.1,3.875-5.635,3.867C58.079,78.7,40,78.728,21.925,78.728q-8.546,0-17.092,0a4.388,4.388,0,0,1-3.666-1.608A13.3,13.3,0,0,1,0,74.888v-1.6a4.914,4.914,0,0,1,4.017-3.775c0-1.327,0-2.6,0-3.88,0-1.651.5-2.155,2.135-2.158,1.189,0,2.379,0,3.581,0V40.2c-.816,0-1.583.022-2.348-.009a3.648,3.648,0,0,1-1.245-.205A2.654,2.654,0,0,1,4.424,37.35c0-1.132,0-2.264,0-3.44-.459,0-.776,0-1.094,0-1.607-.005-2.146-.546-2.15-2.167,0-1.573,0-3.147,0-4.72,0-1.786.273-2.123,2.055-2.472,0-.887.021-1.79-.006-2.692a2.184,2.184,0,0,1,.856-1.879c.825-.674,1.613-1.392,2.417-2.092,1.326-1.154,2.641-2.322,3.982-3.459a1.592,1.592,0,0,1,2.695.65,1.656,1.656,0,0,1-.673,1.826Q9.7,19.344,6.9,21.792c-.189.166-.43.4-.446.613-.056.732-.021,1.472-.021,2.206H24.743A16.421,16.421,0,0,1,40.084,5.182,15.614,15.614,0,0,1,51.56,9.149c4.667,4.111,6.342,9.346,5.468,15.456H74.453a17.1,17.1,0,0,0-.019-1.874,1.557,1.557,0,0,0-.428-.935Q63.6,12.7,53.144,3.649a1.873,1.873,0,0,0-1.126-.419q-11.581-.036-23.163,0a1.774,1.774,0,0,0-1.053.394c-1.911,1.618-3.767,3.3-5.7,4.893a2.19,2.19,0,0,1-1.564.493,1.945,1.945,0,0,1-1.155-1.043,1.483,1.483,0,0,1,.561-1.772c2.1-1.812,4.191-3.624,6.264-5.463A2.739,2.739,0,0,1,28.156,0q12.3.028,24.6,0A2.768,2.768,0,0,1,54.7.737q11.081,9.665,22.188,19.3a2.009,2.009,0,0,1,.766,1.671c-.028.953-.007,1.907-.007,2.948.572,0,1.07-.012,1.568,0a1.575,1.575,0,0,1,1.711,1.617q.066,3,0,6a1.59,1.59,0,0,1-1.708,1.63c-.445.02-.891,0-1.42,0,0,1.162.007,2.248,0,3.334A2.759,2.759,0,0,1,74.855,40.2c-.786.009-1.572,0-2.434,0v2.426q0,10-.007,20c0,.544.022.925.747.866.793-.064,1.6-.015,2.395-.014,1.74,0,2.211.479,2.213,2.242q0,1.907,0,3.812a4.883,4.883,0,0,1,4.022,3.759M57.086,33.91c-1.645,0-3.209-.03-4.77.02a2.174,2.174,0,0,0-1.2.438,16.376,16.376,0,0,1-20.4.014c-.205-.164-.428-.429-.647-.434-1.636-.037-3.273-.02-4.964-.02,0,1.2.011,2.287,0,3.376A2.73,2.73,0,0,1,22.189,40.2c-.79.01-1.58,0-2.387,0V63.421h9.419v-1q0-9.836,0-19.672c0-1.581.52-2.1,2.113-2.1q10.06,0,20.121,0c1.725,0,2.21.5,2.21,2.256q0,9.8,0,19.592v.928h8.753V40.2c-.746,0-1.434,0-2.122,0-2.132-.005-3.2-1.059-3.209-3.18-.006-1.006,0-2.011,0-3.108M27.715,21.461A13.177,13.177,0,1,0,41.1,8.353,13.205,13.205,0,0,0,27.715,21.461m13.1,54.067h35.7c1.393,0,2.076-.464,2.081-1.413s-.683-1.427-2.071-1.427H5.282c-1.4,0-2.078.464-2.08,1.417s.683,1.422,2.07,1.422H40.81m-33.554-6.1H74.529v-2.7H7.256ZM50.409,43.894H43.072V63.427h7.337ZM32.467,63.424h7.3V43.888h-7.3Zm-19.442.051c.94,0,1.792-.055,2.632.016.774.065.912-.249.91-.949-.023-7.136-.014-14.272-.014-21.409v-.882H13.026ZM69.17,40.259H65.724V63.43H69.17ZM77.7,27.918a1.426,1.426,0,0,0-.23-.053q-10.494-.006-20.988,0c-.17,0-.436.035-.5.143-.48.866-.921,1.753-1.391,2.665H77.7ZM27.222,30.672c-.419-.779-.834-1.434-1.13-2.14a.971.971,0,0,0-1.064-.69c-6.6.021-13.2.013-19.807.015-.257,0-.513.024-.793.039v2.776Zm33.1,6.268H74.552V33.969H60.317Zm-38.46-2.962H7.687v2.994H21.857Z" fill="#077997"/>
          <path id="Path_218" data-name="Path 218" d="M27.715,21.461A13.176,13.176,0,1,1,40.6,34.733,13.221,13.221,0,0,1,27.715,21.461m8.042,4.124a2.8,2.8,0,0,0,1.751,2.193c1.378.552,2.2,1.285,1.886,2.871a.211.211,0,0,0,.015.078,1.347,1.347,0,0,0,1.326,1.162A1.361,1.361,0,0,0,42.2,30.8a3.961,3.961,0,0,0,.073-1.189,1.091,1.091,0,0,1,.854-1.325,4.288,4.288,0,0,0,2.886-4.648c-.082-1.9-.934-2.865-3.174-3.55-.558-.171-1.137-.266-1.7-.409a6.772,6.772,0,0,1-.988-.3,1.087,1.087,0,0,1-.786-1.236,1.186,1.186,0,0,1,1.157-1.026,3.379,3.379,0,0,1,2.408.639c.826.58,1.538.526,2.05-.106a1.508,1.508,0,0,0-.2-2.154,5.694,5.694,0,0,0-1.82-1.089.857.857,0,0,1-.686-1.03,4.886,4.886,0,0,0-.06-1.192,1.41,1.41,0,0,0-2.79.141,4.226,4.226,0,0,0-.02.878.971.971,0,0,1-.789,1.2,4.028,4.028,0,0,0-2.69,3.946A3.764,3.764,0,0,0,38.6,22.2c1,.359,2.03.625,3.04.953.535.174.972.447.9,1.131a1.25,1.25,0,0,1-1.091,1.194,2.834,2.834,0,0,1-3.054-1.044,1.294,1.294,0,0,0-1.632-.463,1.6,1.6,0,0,0-1,1.618" fill="#95e8f7"/>
          <path id="Path_219" data-name="Path 219" d="M16.546,9.723a1.579,1.579,0,0,1,1.606,1.54,1.651,1.651,0,0,1-1.6,1.658,1.6,1.6,0,0,1-1.593-1.56,1.579,1.579,0,0,1,1.587-1.637" fill="#077997"/>
          <path id="Path_220" data-name="Path 220" d="M35.757,25.585a1.6,1.6,0,0,1,1-1.618,1.294,1.294,0,0,1,1.632.463,2.834,2.834,0,0,0,3.054,1.044,1.25,1.25,0,0,0,1.091-1.194c.071-.684-.366-.957-.9-1.131-1.01-.328-2.041-.594-3.04-.953a3.764,3.764,0,0,1-2.668-3.838,4.028,4.028,0,0,1,2.69-3.946.971.971,0,0,0,.789-1.2,4.226,4.226,0,0,1,.02-.878,1.41,1.41,0,0,1,2.79-.141,4.886,4.886,0,0,1,.06,1.192.857.857,0,0,0,.686,1.03,5.694,5.694,0,0,1,1.82,1.089,1.508,1.508,0,0,1,.2,2.154c-.511.632-1.224.685-2.05.106a3.379,3.379,0,0,0-2.408-.639,1.186,1.186,0,0,0-1.157,1.026,1.087,1.087,0,0,0,.786,1.236,6.772,6.772,0,0,0,.988.3c.566.143,1.146.239,1.7.409,2.241.685,3.092,1.649,3.174,3.55a4.288,4.288,0,0,1-2.886,4.648,1.091,1.091,0,0,0-.854,1.325A3.961,3.961,0,0,1,42.2,30.8a1.361,1.361,0,0,1-1.468,1.085,1.347,1.347,0,0,1-1.326-1.162.211.211,0,0,1-.015-.078c.318-1.585-.508-2.319-1.886-2.871a2.8,2.8,0,0,1-1.751-2.193" fill="#077997"/>
          <path id="Path_221" data-name="Path 221" d="M48.239,53.1a1.592,1.592,0,1,1-3.184.033,1.592,1.592,0,1,1,3.184-.033" fill="#077997"/>
          <path id="Path_222" data-name="Path 222" d="M34.644,53.151a1.552,1.552,0,0,1,1.579-1.632,1.6,1.6,0,0,1,1.6,1.56,1.629,1.629,0,0,1-1.6,1.645,1.577,1.577,0,0,1-1.572-1.572" fill="#077997"/>
        </g>
      </g>
    </g>
  </g>
</svg>
