<svg xmlns="http://www.w3.org/2000/svg" width="22.962" height="20.001" viewBox="0 0 22.962 20.001">
  <path id="_-e-Shape_8" data-name="-e-Shape 8" d="M3093.864,2513a1.01,1.01,0,0,1-1.02-1v-16.332a1.01,1.01,0,0,1,1.02-1h3V2494a1.019,1.019,0,0,1,2.038,0v.666h10.956V2494a1.019,1.019,0,0,1,2.039,0v.666h2.888a1.01,1.01,0,0,1,1.02,1V2512a1.01,1.01,0,0,1-1.02,1Zm1.019-2h18.885v-9.429h-18.885Zm18.885-10.429v-3.9H3111.9v.665a1.019,1.019,0,0,1-2.039,0v-.665H3098.9v.665a1.019,1.019,0,0,1-2.038,0v-.665h-1.983v3.9Zm-3.425,8.086v-1.939h1.977v1.939Zm-3.424,0v-1.939h1.979v1.939Zm-3.421,0v-1.939h1.979v1.939Zm-3.423,0v-1.939h1.976v1.939Zm-3.422,0v-1.939h1.977v1.939Zm13.689-3.117V2503.6h1.977v1.939Zm-3.424,0V2503.6h1.979v1.939Zm-3.421,0V2503.6h1.979v1.939Zm-3.423,0V2503.6h1.976v1.939Zm-3.422,0V2503.6h1.977v1.939Z" transform="translate(-3092.845 -2492.998)" fill="#077997"/>
</svg>
