<svg xmlns="http://www.w3.org/2000/svg" width="20.571" height="24.029" viewBox="0 0 20.571 24.029">
  <path id="_-e-Shape_11" data-name="-e-Shape 11" d="M3095.179,2934.54a2.382,2.382,0,0,1-1.085-3.514,2.382,2.382,0,0,0,.121-.292c.023-.156.074-1.076.123-1.966a59.03,59.03,0,0,1,.637-7.169c.413-1.725,3.578-3.756,5.4-4.8l-2.371-2.643a.979.979,0,0,1-.165-1.057,1,1,0,0,1,.913-.58c.1,0,.1,0,.264-.127a2.318,2.318,0,0,1,2.968,0c.168.127.168.127.264.127s.1,0,.266-.127a2.319,2.319,0,0,1,2.968,0c.168.128.168.128.266.128s.1,0,.267-.128a2.325,2.325,0,0,1,2.971,0c.17.128.17.128.267.128a1,1,0,0,1,.91.581.971.971,0,0,1-.161,1.057l-2.373,2.642c1.82,1.042,4.99,3.074,5.4,4.8a59.33,59.33,0,0,1,.635,7.134c.048.9.1,1.837.128,2.016a2.514,2.514,0,0,0,.119.279,2.383,2.383,0,0,1-1.086,3.511,26.665,26.665,0,0,1-8.822,1.345A23.774,23.774,0,0,1,3095.179,2934.54Zm1.742-12.488a64.485,64.485,0,0,0-.588,6.825c-.076,1.346-.109,1.951-.152,2.2a3.074,3.074,0,0,1-.262.749c-.322.718-.314.723.152.953a22.13,22.13,0,0,0,7.927,1.139,25.926,25.926,0,0,0,7.928-1.139c.466-.229.473-.233.152-.952a3.087,3.087,0,0,1-.262-.753c-.042-.243-.077-.86-.154-2.23a65.283,65.283,0,0,0-.583-6.792c-.186-.779-2.774-2.637-5.071-3.889h-4.018C3099.652,2919.435,3097.11,2921.26,3096.922,2922.052Zm3.464-8.207,1.934,2.156h3.355l1.935-2.155a.2.2,0,0,0-.114-.02c-.1,0-.1,0-.267.128a2.322,2.322,0,0,1-2.972,0c-.166-.127-.166-.127-.262-.127s-.1,0-.265.128a2.316,2.316,0,0,1-2.967,0c-.168-.127-.168-.127-.266-.127A.207.207,0,0,0,3100.386,2913.844Zm3.334,18.213a.765.765,0,0,1-.087-.41v-1.627a3.84,3.84,0,0,1-1.251-.332,2.958,2.958,0,0,1-.892-.626,2.668,2.668,0,0,1-.528-.784,2.026,2.026,0,0,1-.172-.8.713.713,0,0,1,.23-.522.762.762,0,0,1,.57-.233.823.823,0,0,1,.465.126.655.655,0,0,1,.263.357c.111.329.207.58.286.756a1.47,1.47,0,0,0,.371.479,1.66,1.66,0,0,0,.658.33v-2.8a7.524,7.524,0,0,1-1.37-.5,2.305,2.305,0,0,1-.892-.778,2.559,2.559,0,0,1,.326-3,3.022,3.022,0,0,1,1.936-.77v-.638c0-.337.127-.507.385-.507s.391.164.391.493v.652a3.86,3.86,0,0,1,1.122.265,2.2,2.2,0,0,1,.815.6,2.493,2.493,0,0,1,.426.635,1.425,1.425,0,0,1,.15.594.711.711,0,0,1-.222.522.751.751,0,0,1-.543.219.761.761,0,0,1-.778-.639,1.368,1.368,0,0,0-.97-1v2.507c.507.137.906.26,1.208.374a2.533,2.533,0,0,1,.8.487,2.256,2.256,0,0,1,.584.793,2.453,2.453,0,0,1,.205,1.009,2.63,2.63,0,0,1-.329,1.287,2.549,2.549,0,0,1-.962.979,3.439,3.439,0,0,1-1.509.451v1.5a1.358,1.358,0,0,1-.071.518.3.3,0,0,1-.306.163A.349.349,0,0,1,3103.72,2932.058Zm.688-3.227a1.647,1.647,0,0,0,.953-.486,1.222,1.222,0,0,0,.338-.856,1.023,1.023,0,0,0-.328-.809,2.68,2.68,0,0,0-.963-.486Zm-1.576-6.337a1.105,1.105,0,0,0-.019,1.469,2.462,2.462,0,0,0,.819.443V2922.1A2.135,2.135,0,0,0,3102.833,2922.494Z" transform="translate(-3093.714 -2911.856)" fill="#b7d6de"/>
</svg>
