<svg xmlns="http://www.w3.org/2000/svg" width="18.951" height="24.02" viewBox="0 0 18.951 24.02">
  <path id="_-e-Shape_6" data-name="-e-Shape 6" d="M3841.63,1293.95a1.008,1.008,0,0,1-1.024-.991V1271.91a1.007,1.007,0,0,1,1.024-.99h3.149a2.194,2.194,0,0,1,1.845-.99h6.915a2.2,2.2,0,0,1,1.846.99h3.147a1.008,1.008,0,0,1,1.025.99v21.049a1.008,1.008,0,0,1-1.025.991Zm1.025-1.982h14.854V1272.9h-1.986a2.186,2.186,0,0,1-1.984,1.238h-6.915a2.184,2.184,0,0,1-1.983-1.238h-1.986Zm2.76-5.61a.467.467,0,0,1-.475-.458v-1.143a.466.466,0,0,1,.475-.458h1.182a.465.465,0,0,1,.473.458v1.143a.465.465,0,0,1-.473.458Zm3.231-.534a.5.5,0,1,1,0-.991h6.578a.5.5,0,1,1,0,.991Zm-3.231-2.864a.467.467,0,0,1-.475-.457v-1.143a.467.467,0,0,1,.475-.459h1.182a.466.466,0,0,1,.473.459v1.143a.466.466,0,0,1-.473.457Zm3.231-.534a.5.5,0,1,1,0-.991h6.578a.5.5,0,1,1,0,.991Zm-3.231-2.864a.467.467,0,0,1-.475-.458v-1.143a.465.465,0,0,1,.475-.457h1.182a.464.464,0,0,1,.473.457v1.143a.465.465,0,0,1-.473.458Zm3.231-.534a.5.5,0,1,1,0-.991h6.578a.5.5,0,1,1,0,.991Z" transform="translate(-3840.606 -1269.93)" fill="#077997"/>
</svg>
