<svg xmlns="http://www.w3.org/2000/svg" width="17.718" height="23.01" viewBox="0 0 17.718 23.01">
  <path id="_-e-Shape_7" data-name="-e-Shape 7" d="M3095.21,2756.991a1.013,1.013,0,0,1-1.023-.924l-.329-4.7a4.717,4.717,0,0,1,3.021-4.348,17.832,17.832,0,0,1,11.655,0,4.7,4.7,0,0,1,3.028,4.356l-.327,4.688a1.013,1.013,0,0,1-1.023.927Zm2.368-8.1a2.739,2.739,0,0,0-1.675,2.348l.264,3.764h13.085l.263-3.764a2.721,2.721,0,0,0-1.682-2.35,15.763,15.763,0,0,0-10.254,0Zm.3-9.562a4.937,4.937,0,1,1,4.919,5.35A5.153,5.153,0,0,1,3097.876,2739.329Zm2.05,0a2.906,2.906,0,1,0,2.869-3.361A3.148,3.148,0,0,0,3099.926,2739.329Z" transform="translate(-3093.85 -2733.98)" fill="#b7d6de"/>
</svg>
