<svg xmlns="http://www.w3.org/2000/svg" width="18.5" height="18.498" viewBox="0 0 18.5 18.498">
  <path id="_-e-Shape_1940" data-name="-e-Shape 1940" d="M2048.538,1430.983v13.81a.866.866,0,0,0-.042.154,2.461,2.461,0,0,1-1.907,2.114c-.133.029-.267.055-.4.082H2042.1q0-3.242.009-6.488a.681.681,0,0,1,.019-.108c.062,0,.115-.006.169-.006.669,0,1.338,0,2.006,0,.3,0,.446-.113.486-.416.089-.673.173-1.347.247-2.022.037-.348-.15-.538-.512-.54-.747,0-1.494,0-2.241,0-.139,0-.19-.041-.189-.185.009-.6,0-1.2.015-1.807a.973.973,0,0,1,.977-1.075c.448-.044.9-.026,1.353-.034.337-.007.515-.163.52-.489q.013-.841,0-1.68a.426.426,0,0,0-.454-.478,22.547,22.547,0,0,0-2.415.068,3.179,3.179,0,0,0-2.885,3.154c-.052.768-.032,1.541-.034,2.312,0,.161-.039.22-.21.215-.458-.011-.915,0-1.373,0a.467.467,0,0,0-.5.278.981.981,0,0,0-.038.339c0,.626.008,1.253.014,1.879a.429.429,0,0,0,.492.482c.446,0,.892,0,1.337,0,.282,0,.286-.064.286.277q-.005,2.531-.011,5.061c0,.421,0,.842.005,1.264h-6.8c-.105-.02-.21-.04-.315-.062a2.481,2.481,0,0,1-2.022-2.49q0-6.706,0-13.412a2.53,2.53,0,0,1,.053-.52,2.476,2.476,0,0,1,2.477-2.012c.681,0,1.362,0,2.043,0q5.666,0,11.335,0a2.484,2.484,0,0,1,2.526,2.022C2048.5,1430.772,2048.517,1430.878,2048.538,1430.983Z" transform="translate(-2030.037 -1428.644)" fill="#626675"/>
</svg>
