<svg xmlns="http://www.w3.org/2000/svg" xmlns:xlink="http://www.w3.org/1999/xlink" width="1464" height="130" viewBox="0 0 1464 130">
  <defs>
    <clipPath id="clip-path">
      <rect id="Rectangle_1" data-name="Rectangle 1" width="1464" height="130" transform="translate(10 1100)" fill="#077997"/>
    </clipPath>
  </defs>
  <g id="Rectangle_1-2" data-name="Rectangle 1" transform="translate(-10 -1100)">
    <rect id="Rectangle_1-3" data-name="Rectangle 1" width="1464" height="130" transform="translate(10 1100)" fill="#077997"/>
    <g id="Clip" clip-path="url(#clip-path)">
      <path id="Shape_2" data-name="Shape 2" d="M728.963,1020.983c-13.622,37.053-48.376,66.068-87.521,71.147-17.914,2.323-37.051.359-53.13,8.595-18.311,9.379-27.977,29.5-41.874,44.671-28.9,31.557-80.011,39.975-117.507,19.356s-57.768-68.286-46.611-109.6c6.541-24.22,22.521-46.042,23.5-71.111.775-19.791-7.953-38.508-14.28-57.277s-10.081-40.442-.174-57.592c11.969-20.719,38.782-26.768,62.623-28.764s49.912-2.763,68.041-18.376c11.375-9.794,17.782-24.053,27.288-35.67s27.034-19.613,40.984-14.074Z" fill="rgba(237,250,254,0)" stroke="#b5e4f4" stroke-width="2" opacity="0.302"/>
      <path id="Shape_3" data-name="Shape 3" d="M720.622,1366.306c-21.322-13.593-34.73-39.313-32.561-64.509.993-11.53,4.837-23.24,1.88-34.429-3.367-12.745-14.637-21.546-22.233-32.318-15.8-22.406-14.083-55.547,3.94-76.2s50.618-26.821,74.944-14.187c14.26,7.405,25.732,20.391,41.283,24.433,12.277,3.191,25.18.287,37.788-1.107s26.681-.78,36.058,7.766c11.328,10.324,11.451,27.934,9.444,43.129s-5.089,31.62,2.2,45.1c4.575,8.459,12.622,14.419,18.591,21.958s8.579,19.6,3.208,27.577Z" fill="rgba(237,250,254,0)" stroke="#b5e4f4" stroke-width="2" opacity="0.302"/>
      <path id="Shape_1" data-name="Shape 1" d="M894.7,1248.845c9.652-28.371,35.5-51.036,65.124-55.618,13.558-2.1,28.124-.962,40.178-7.511,13.728-7.458,20.691-22.907,30.96-34.68,21.357-24.484,60-31.823,88.855-16.875s45.13,50.746,37.428,82.306c-4.514,18.5-16.241,35.358-16.52,54.4-.221,15.033,6.755,29.074,11.908,43.2s8.406,30.5,1.2,43.7c-8.7,15.945-28.946,21.035-47.01,22.993s-37.842,3.025-51.317,15.21c-8.453,7.644-13.052,18.583-20.053,27.576s-20.16,15.386-30.855,11.443Z" fill="rgba(237,250,254,0)" stroke="#b5e4f4" stroke-width="2" opacity="0.302"/>
    </g>
  </g>
</svg>
