<svg xmlns="http://www.w3.org/2000/svg" xmlns:xlink="http://www.w3.org/1999/xlink" version="1.1" width="1000" height="1000" viewBox="0 0 1000 1000" xml:space="preserve">
<desc>Created with Fabric.js 3.5.0</desc>
<defs>
</defs>
<rect x="0" y="0" width="100%" height="100%" fill="rgba(255,255,255,0)"/>
<g transform="matrix(0 14.2045 -14.2045 0 507.0437 499.9997)" id="189958">
<g style="" vector-effect="non-scaling-stroke">
		<g transform="matrix(1 0 0 1 0 0)" id="Rectangle_13_copy">
<rect style="stroke: none; stroke-width: 1; stroke-dasharray: none; stroke-linecap: butt; stroke-dashoffset: 0; stroke-linejoin: miter; stroke-miterlimit: 4; is-custom-font: none; font-file-url: none; fill: rgb(9,107,130); fill-rule: nonzero; opacity: 1;" x="-5.5" y="-32" rx="5.5" ry="5.5" width="11" height="64"/>
</g>
		<g transform="matrix(1 0 0 1 0.0705 0.93)" id="Rectangle_14">
<path style="stroke: none; stroke-width: 1; stroke-dasharray: none; stroke-linecap: butt; stroke-dashoffset: 0; stroke-linejoin: miter; stroke-miterlimit: 4; is-custom-font: none; font-file-url: none; fill: rgb(235,253,255); fill-rule: nonzero; opacity: 1;" transform=" translate(-4248.5705, -2564.93)" d="M 4245.81 2569 a 0.81 0.81 0 0 1 -0.81 -0.81 v -0.01 a 0.809 0.809 0 0 1 0.81 -0.81 h 5.521 a 0.81 0.81 0 0 1 0.81 0.81 v 0.01 a 0.81 0.81 0 0 1 -0.81 0.81 Z m 0 -3.26 a 0.81 0.81 0 0 1 -0.81 -0.81 v -0.01 a 0.81 0.81 0 0 1 0.81 -0.81 h 5.521 a 0.81 0.81 0 0 1 0.81 0.81 v 0.01 a 0.81 0.81 0 0 1 -0.81 0.81 Z m 0 -3.249 a 0.81 0.81 0 0 1 -0.81 -0.81 v -0.011 a 0.81 0.81 0 0 1 0.81 -0.81 h 5.521 a 0.81 0.81 0 0 1 0.81 0.81 v 0.011 a 0.81 0.81 0 0 1 -0.81 0.81 Z" stroke-linecap="round"/>
</g>
</g>
</g>
</svg>