<svg xmlns="http://www.w3.org/2000/svg" width="18.033" height="22.961" viewBox="0 0 18.033 22.961">
  <path id="_-e-Shape_6" data-name="-e-Shape 6" d="M3094.848,2696.835a1,1,0,0,1-.984-1.019v-20.923a1,1,0,0,1,.984-1.019h16.066a1,1,0,0,1,.984,1.019V2689.7a1.038,1.038,0,0,1-.288.72l-5.9,6.116a.964.964,0,0,1-.695.3Zm.985-2.038h8.687v-5.1a.5.5,0,0,1,.492-.509h4.918v-13.279h-14.1Zm9.671-.933,3.526-3.654H3105.5Zm-7.337-7.205a.51.51,0,0,1,0-1.02h4.017a.51.51,0,0,1,0,1.02Zm0-2.463a.511.511,0,0,1,0-1.021h9.591a.511.511,0,0,1,0,1.021Zm0-2.464a.51.51,0,0,1,0-1.019h9.591a.51.51,0,0,1,0,1.019Zm0-2.463a.51.51,0,0,1,0-1.02h5.78a.51.51,0,0,1,0,1.02Z" transform="translate(-3093.864 -2673.874)" fill="#077997"/>
</svg>
