<svg xmlns="http://www.w3.org/2000/svg" width="141.771" height="62.935" viewBox="0 0 141.771 62.935">
  <g id="Logo" transform="translate(-1258.998 -24.998)">
    <path id="_-e-Shape_1670" data-name="-e-Shape 1670" d="M1386.928,81.624c0-3.813,3.057-6.38,6.843-6.38,3.833,0,6.89,2.567,6.89,6.38,0,3.79-3.057,6.31-6.866,6.31S1386.928,85.414,1386.928,81.624Zm4.115,0a2.757,2.757,0,1,0,5.5,0,2.761,2.761,0,1,0-5.5,0Zm-32.567,0c0-3.813,3.057-6.38,6.844-6.38,3.833,0,6.889,2.567,6.889,6.38,0,3.79-3.056,6.31-6.866,6.31S1358.475,85.414,1358.475,81.624Zm4.116,0a2.757,2.757,0,1,0,5.5,0,2.761,2.761,0,1,0-5.5,0Zm11.286,1.554V72.113a1.157,1.157,0,0,1,1.294-1.3h1.482a1.156,1.156,0,0,1,1.292,1.3V82.99c0,.917.306,1.153.682,1.2a.99.99,0,0,1,.94,1.106V86.45a1.17,1.17,0,0,1-1.317,1.319C1376.159,87.769,1373.877,87.251,1373.877,83.178Zm8.56,4.473a1.157,1.157,0,0,1-1.293-1.3V76.82a1.156,1.156,0,0,1,1.293-1.293h1.481a1.155,1.155,0,0,1,1.293,1.293v9.535a1.156,1.156,0,0,1-1.293,1.3Zm-33.343,0a1.157,1.157,0,0,1-1.293-1.3V72.113a1.157,1.157,0,0,1,1.293-1.3h7.714a1.157,1.157,0,0,1,1.293,1.3v.94a1.157,1.157,0,0,1-1.293,1.3h-4.891v3.532h3.833a1.156,1.156,0,0,1,1.293,1.3v.941a1.156,1.156,0,0,1-1.293,1.3h-3.833v4.943a1.157,1.157,0,0,1-1.293,1.3ZM1382.483,74a1.156,1.156,0,0,1-1.292-1.3v-.589a1.156,1.156,0,0,1,1.292-1.3h1.389a1.156,1.156,0,0,1,1.293,1.3V72.7a1.156,1.156,0,0,1-1.293,1.3Zm-120.669-5.74V66.621q0-7.225.107-12.874t.462-10.2l-2.579-.427a15.388,15.388,0,0,1-.651-2.749,25.7,25.7,0,0,1-.154-3.127,6.363,6.363,0,0,1,1.23-.77,10.823,10.823,0,0,1,2.036-.77,8.966,8.966,0,0,1,2.436-.331q2.865,0,4.059,1.231a5.115,5.115,0,0,1,1.2,3.7,23.389,23.389,0,0,1-.4,3.72q-.663,3.768-.663,3.956c0,.078.056.154.167.225a.64.64,0,0,0,.355.106.278.278,0,0,0,.284-.165l.238-.948.52-2.014a17.894,17.894,0,0,1,3.455-7.1,7.25,7.25,0,0,1,5.773-2.712,7.379,7.379,0,0,1,4.248,1.124,6.38,6.38,0,0,1,2.378,2.958,10.769,10.769,0,0,1,.734,4.036,44.514,44.514,0,0,1-.569,6.688,52.984,52.984,0,0,1-1.514,6.923,10.108,10.108,0,0,1-3.064,4.981,7.914,7.914,0,0,1-5.337,1.835,11.979,11.979,0,0,1-2.71-.367,32.529,32.529,0,0,1-3.915-1.267l-.947,4.378h4.567a4.354,4.354,0,0,1,.675,1.5,19.9,19.9,0,0,1,.39,2.027l.071.458a5.172,5.172,0,0,1-1.041.888,11.525,11.525,0,0,1-2.768,1.468,10.879,10.879,0,0,1-3.976.676Q1261.814,73.681,1261.813,68.257Zm11.549-19.073q-1.94,3.457-2.864,5.311v1.119a12.215,12.215,0,0,0,3.006,1.459,8.986,8.986,0,0,0,2.6.57,1.149,1.149,0,0,0,.356-.047,40.527,40.527,0,0,0,.851-9.67,10.938,10.938,0,0,0-.119-1.8,1.876,1.876,0,0,0-1.562-.686A29.546,29.546,0,0,0,1273.362,49.184Zm115.883,13.529q-1.422-1.21-1.42-4.122,0-2.323.189-6.206t.379-6.254a1.956,1.956,0,0,0-1.515-.687,29.829,29.829,0,0,0-2.437,4.253q-1.611,3.19-2.272,4.774a4.513,4.513,0,0,0-.048.638,19.28,19.28,0,0,0,.355,3.186,32.64,32.64,0,0,0,.875,3.731,3.277,3.277,0,0,1-1.75,1.35,8.625,8.625,0,0,1-3.266.544,11.106,11.106,0,0,1-2.8-.284,4.577,4.577,0,0,1-1.48-.6c-.283-.212-.426-.343-.426-.39-.015-.142-.056-.517-.119-1.125s-.126-1.461-.189-2.56-.095-2.348-.095-3.754l-.023-7.155q0-10.99.426-15.113l-2.674-.474a18.539,18.539,0,0,1-.568-4.691,6.241,6.241,0,0,1,1.325-1.114,11.067,11.067,0,0,1,2.26-1.16,7.085,7.085,0,0,1,2.568-.5,5.712,5.712,0,0,1,4.33,1.493,6.424,6.424,0,0,1,1.42,4.572q0,1.35-.237,4.347t-.686,6.42q-.45,3.424-1.041,6.1a.327.327,0,0,0,.166.26.6.6,0,0,0,.355.119.28.28,0,0,0,.284-.165,60.733,60.733,0,0,1,1.893-6.3,12.82,12.82,0,0,1,2.864-4.5,6.63,6.63,0,0,1,4.969-1.966q3.787,0,5.443,2.309a9.737,9.737,0,0,1,1.656,5.817,24.5,24.5,0,0,1-.733,6.029q-.733,2.9-1.822,6.053c.031-.079-.08.229-.331.924l.047.048,3.5-1.47a6.31,6.31,0,0,1,2.153,4.217,6.037,6.037,0,0,1-1.065,1.363,11.692,11.692,0,0,1-2.8,2.226,7.666,7.666,0,0,1-3.988,1.03A5.459,5.459,0,0,1,1389.245,62.713Zm-37.709-.676a11.691,11.691,0,0,1-4.164-5.117,17.929,17.929,0,0,1-1.409-7.237,18.525,18.525,0,0,1,1.373-7.32,11.219,11.219,0,0,1,4.247-5.106,12.845,12.845,0,0,1,7.182-1.883q1.467,0,3.373.176a34.688,34.688,0,0,1,3.656.534l.472.332q1.065.734,1.574,1.173a7.18,7.18,0,0,1,1.077,1.219,24.714,24.714,0,0,1-.344,3.517,37.594,37.594,0,0,1-.864,4.158,7.111,7.111,0,0,1-.994,2.464,5.871,5.871,0,0,1-2.533.4,9.227,9.227,0,0,1-1.6-.131,3.638,3.638,0,0,1-1.124-.344l-.5-4.381a3.07,3.07,0,0,0-1.622-.653,12.225,12.225,0,0,0-2.33-.248,3.765,3.765,0,0,0-.616.046,10.375,10.375,0,0,0-.828,2.843,21.7,21.7,0,0,0-.284,3.53,10.333,10.333,0,0,0,.851,4.418q.852,1.812,3.478,1.813a8,8,0,0,0,2.569-.427q1.266-.427,3.207-1.3.8-.378,1.207-.544a8.17,8.17,0,0,1,1.49,1.991,7.436,7.436,0,0,1,.71,2.677,19.109,19.109,0,0,1-4.248,3.53,12.56,12.56,0,0,1-13.015-.131Zm-30.7-2.083q-2.888-3.969-2.887-10.507a18.532,18.532,0,0,1,1.372-7.439,10.509,10.509,0,0,1,4.213-4.891,15.976,15.976,0,0,1,14.553.024,9.279,9.279,0,0,1,3.775,4.891,23.7,23.7,0,0,1,1.076,7.652,17.758,17.758,0,0,1-1.432,7.308,11.436,11.436,0,0,1-4.307,5.069,12.681,12.681,0,0,1-7.04,1.86Q1323.719,63.921,1320.833,59.954ZM1328.4,44a11.316,11.316,0,0,0-1.183,5.661,23.829,23.829,0,0,0,.261,3.482,26.045,26.045,0,0,0,.662,3.222,2.117,2.117,0,0,0,1.159.462,10.432,10.432,0,0,0,1.823.154,3.249,3.249,0,0,0,1.468-.189,8.171,8.171,0,0,0,.828-2.677,23.28,23.28,0,0,0,.284-3.743,24.122,24.122,0,0,0-.237-3.47,9.557,9.557,0,0,0-.662-2.547,1.832,1.832,0,0,0-1.041-.462,8.819,8.819,0,0,0-1.7-.155A3.63,3.63,0,0,0,1328.4,44Zm-35.733,15.955q-2.886-3.969-2.887-10.507a18.532,18.532,0,0,1,1.372-7.439,10.51,10.51,0,0,1,4.213-4.891,15.976,15.976,0,0,1,14.553.024,9.283,9.283,0,0,1,3.775,4.891,23.7,23.7,0,0,1,1.076,7.652,17.774,17.774,0,0,1-1.431,7.308,11.439,11.439,0,0,1-4.307,5.069,12.683,12.683,0,0,1-7.04,1.86Q1295.559,63.921,1292.672,59.954ZM1300.245,44a11.305,11.305,0,0,0-1.184,5.661,23.966,23.966,0,0,0,.261,3.482,26.2,26.2,0,0,0,.662,3.222,2.116,2.116,0,0,0,1.159.462,10.423,10.423,0,0,0,1.823.154,3.239,3.239,0,0,0,1.467-.189,8.149,8.149,0,0,0,.829-2.677,23.183,23.183,0,0,0,.283-3.743,24.267,24.267,0,0,0-.236-3.47,9.553,9.553,0,0,0-.663-2.547,1.83,1.83,0,0,0-1.041-.462,8.818,8.818,0,0,0-1.7-.155A3.623,3.623,0,0,0,1300.245,44Z" fill="#fff"/>
  </g>
</svg>
