<svg xmlns="http://www.w3.org/2000/svg" width="25.987" height="23.037" viewBox="0 0 25.987 23.037">
  <path id="_-e-Shape_24" data-name="-e-Shape 24" d="M3093.75,2574.855a.994.994,0,0,1-1.006-.982v-10.4a4.245,4.245,0,0,1-2.768-3.947.961.961,0,0,1,.069-.357l2.684-6.722a1,1,0,0,1,.936-.625h18.108a1.007,1.007,0,0,1,.914.57l3.185,6.722a.962.962,0,0,1,.092.412,4.245,4.245,0,0,1-2.766,3.946v10.405a.994.994,0,0,1-1.006.982Zm17.436-1.963v-9.158a3.827,3.827,0,0,0-5.331.022,4.372,4.372,0,0,0-5.769,0,3.827,3.827,0,0,0-5.331-.022v9.158h1.833v-6.7a.5.5,0,0,1,.5-.491h11.735a.5.5,0,0,1,.5.491v6.7Zm-2.861,0v-6.214h-10.73v6.214Zm1.287-12.252a2.333,2.333,0,0,0,4.332-.922l-1.816-3.834h-18.615l-1.519,3.805a2.333,2.333,0,0,0,4.334.95,1.062,1.062,0,0,1,1.746,0,2.33,2.33,0,0,0,4.022,0,1.063,1.063,0,0,1,1.748,0,2.33,2.33,0,0,0,4.022,0,1.018,1.018,0,0,1,1.746,0Zm2.051-5.737-.532-1.124h-16.778l-.449,1.124Z" transform="translate(-3089.976 -2551.818)" fill="#b7d6de"/>
</svg>
