<svg xmlns="http://www.w3.org/2000/svg" width="38.954" height="30.974" viewBox="0 0 38.954 30.974">
  <path id="_-e-Shape_35" data-name="-e-Shape 35" d="M816.983,85.957h34.9a2.008,2.008,0,0,0,0-4.015h-34.9a2.008,2.008,0,0,0,0,4.015Zm34.9,9.465H823.849a2.008,2.008,0,0,0-.09,4.015h28.125a2.008,2.008,0,0,0,.09-4.015Zm0,13.479H829a2.005,2.005,0,0,0-2,2.008c0,1.619.9,2.007,2,2.007h22.887c1.106,0,2-.389,2-2.007A2.005,2.005,0,0,0,851.885,108.9Z" transform="translate(-814.979 -81.942)" fill="#fff"/>
</svg>
