<svg xmlns="http://www.w3.org/2000/svg" width="23.012" height="16.976" viewBox="0 0 23.012 16.976">
  <path id="_-e-Shape_5" data-name="-e-Shape 5" d="M3094.36,2633.929a2.384,2.384,0,0,1-2.36-2.4v-8.879a1.032,1.032,0,0,1,0-.47v-2.82a2.385,2.385,0,0,1,2.36-2.4h18.267a2.384,2.384,0,0,1,2.358,2.4v12.169a2.383,2.383,0,0,1-2.358,2.4Zm-.373-2.4a.377.377,0,0,0,.373.38h18.267a.376.376,0,0,0,.371-.38v-8.1h-19.01ZM3113,2621.4v-2.042a.375.375,0,0,0-.371-.378H3094.36a.376.376,0,0,0-.373.378v2.042Zm-17.013,7.145v-2.024h2.347v2.024Z" transform="translate(-3091.973 -2616.953)" fill="#b7d6de"/>
</svg>
