<svg xmlns="http://www.w3.org/2000/svg" width="21.991" height="27.008" viewBox="0 0 21.991 27.008">
  <path id="_-e-Shape_9" data-name="-e-Shape 9" d="M3103.489,2816.143H3094a1,1,0,0,1-1.006-1v-21.165a1,1,0,0,1,1.006-1h3.088a2.139,2.139,0,0,1,1.811-1h6.785a2.139,2.139,0,0,1,1.811,1h3.09a1,1,0,0,1,1,1v13.329a6.174,6.174,0,0,1-2.845,11.687A6.254,6.254,0,0,1,3103.489,2816.143Zm.021-3.331a5.235,5.235,0,1,0,5.233-5.187A5.217,5.217,0,0,0,3103.51,2812.812Zm-8.506,1.338h7.648a6.125,6.125,0,0,1-.147-1.338,6.22,6.22,0,0,1,6.239-6.184,6.311,6.311,0,0,1,.834.055v-11.708h-1.948a2.138,2.138,0,0,1-1.946,1.246H3098.9a2.139,2.139,0,0,1-1.946-1.246H3095Zm12,1.932-1.649-1.715a.991.991,0,0,1,.034-1.409,1.013,1.013,0,0,1,1.422.035l.863.9,2.919-3.527a1.01,1.01,0,0,1,1.414-.139.991.991,0,0,1,.14,1.4l-3.64,4.4a1.011,1.011,0,0,1-.74.365h-.038A1.009,1.009,0,0,1,3107.006,2816.083Zm-9-8.352a.5.5,0,1,1,0-1h3.57a.5.5,0,1,1,0,1Zm0-2.623a.5.5,0,1,1,0-1h8.529a.5.5,0,1,1,0,1Zm0-2.622a.5.5,0,1,1,0-1h8.529a.5.5,0,1,1,0,1Zm0-2.621a.5.5,0,1,1,0-1h5.139a.5.5,0,1,1,0,1Z" transform="translate(-3092.993 -2791.988)" fill="#077997"/>
</svg>
