<svg xmlns="http://www.w3.org/2000/svg" width="25.522" height="21.986" viewBox="0 0 25.522 21.986">
  <path id="_-e-Shape_28" data-name="-e-Shape 28" d="M1414.935,3633.966l-1.332-.045c-3.9-.133-6.044-.207-6.841-1.467a1.928,1.928,0,0,1-.054-1.882,11.565,11.565,0,0,1,1.251-2.268,3.538,3.538,0,0,1-.8.092,4.723,4.723,0,0,1-3.917-2.463,6.033,6.033,0,0,1-.862-4.667,2.87,2.87,0,0,1,1.5-1.873,2.991,2.991,0,0,1,1.321-.295,4.775,4.775,0,0,1,2.437.767,8.3,8.3,0,0,1-.575-1.806,5.857,5.857,0,0,1,.911-4.817,3.329,3.329,0,0,1,2.613-1.261,4.7,4.7,0,0,0,8.718,0h0a3.363,3.363,0,0,1,2.676,1.26,5.859,5.859,0,0,1,.91,4.816,8.3,8.3,0,0,1-.575,1.807,4.772,4.772,0,0,1,2.435-.767,2.992,2.992,0,0,1,1.328.3,2.867,2.867,0,0,1,1.491,1.869,6.042,6.042,0,0,1-.865,4.67,4.72,4.72,0,0,1-3.914,2.46,3.545,3.545,0,0,1-.809-.094,11.746,11.746,0,0,1,1.27,2.305,1.9,1.9,0,0,1-.067,1.846c-.8,1.26-2.944,1.333-6.844,1.467l-1.331.045h-.073Zm-6.472-2.68a1.277,1.277,0,0,0-.065.181c.543.4,3.156.486,5.27.558l1.3.046,1.3-.046c2.115-.072,4.729-.161,5.271-.559a.924.924,0,0,0-.052-.143c-.928-2.431-4.4-6.428-6.438-6.27a.75.75,0,0,1-.169,0l-.093,0C1412.806,3625.048,1409.365,3628.928,1408.463,3631.285ZM1404.7,3621.1a1.03,1.03,0,0,0-.507.694,4.225,4.225,0,0,0,.648,3.135c.848,1.36,2.229,1.927,3.184,1.324s1.047-1.838.245-3.135a4.317,4.317,0,0,0-3.079-2.121A1.12,1.12,0,0,0,1404.7,3621.1Zm16.965,2.018c-.8,1.3-.7,2.529.253,3.138.938.588,2.329.031,3.176-1.325a4.228,4.228,0,0,0,.648-3.138,1.023,1.023,0,0,0-.5-.688,1.119,1.119,0,0,0-.5-.108A4.321,4.321,0,0,0,1421.669,3623.115Zm-2.413,2.065a4.764,4.764,0,0,1,.566-2.644,2.991,2.991,0,0,1-1.146.232,2.877,2.877,0,0,1-.938-.157,2.765,2.765,0,0,0-5.529,0,2.886,2.886,0,0,1-.94.158h0a2.987,2.987,0,0,1-1.143-.232,4.772,4.772,0,0,1,.566,2.637c1.38-1.231,2.912-2.1,4.284-2.016.055,0,.112,0,.168,0A6.765,6.765,0,0,1,1419.256,3625.18Zm-2.934-8.174a3.782,3.782,0,0,0,2.026,3.811.993.993,0,0,0,.327.055c.834,0,1.941-1.117,2.356-3.187a4.043,4.043,0,0,0-.522-3.242,1.428,1.428,0,0,0-1.148-.566A3.371,3.371,0,0,0,1416.322,3617.007Zm-6.89-2.563a4.045,4.045,0,0,0-.519,3.242c.415,2.069,1.522,3.187,2.356,3.187a1.024,1.024,0,0,0,.329-.055,3.787,3.787,0,0,0,2.025-3.809,3.372,3.372,0,0,0-3.012-3.131A1.453,1.453,0,0,0,1409.432,3614.444Z" transform="translate(-1402.211 -3611.981)" fill="#b7d6de"/>
</svg>
