<svg xmlns="http://www.w3.org/2000/svg" xmlns:xlink="http://www.w3.org/1999/xlink" width="136" height="136" viewBox="0 0 136 136">
  <defs>
    <clipPath id="clip-path">
      <rect id="Rectangle_20" data-name="Rectangle 20" width="78" height="78" fill="none"/>
    </clipPath>
  </defs>
  <g id="Group_53" data-name="Group 53" transform="translate(-4297 -4823)">
    <circle id="Ellipse_1192" data-name="Ellipse 1192" cx="68" cy="68" r="68" transform="translate(4297 4823)" fill="#ebfdff"/>
    <g id="_-e-Vector_Smart_Object" data-name="-e-Vector Smart Object" transform="translate(4324 4847)">
      <g id="Group_28" data-name="Group 28">
        <g id="Group_27" data-name="Group 27" clip-path="url(#clip-path)">
          <path id="Path_225" data-name="Path 225" d="M1.7,78A2.937,2.937,0,0,1,0,74.932q.053-19.99.021-39.98c0-1.985.828-2.808,2.823-2.808h52.31v-.933q0-9.6,0-19.191c0-1.879.857-2.727,2.75-2.729h1.819c0-.966,0-1.872,0-2.778,0-1.4-.015-2.792.005-4.188a2.279,2.279,0,1,1,4.556-.015c.023,2.03.007,4.061.007,6.092v.889c2.224,0,4.375-.034,6.523.017a8.611,8.611,0,0,1,2.537.38,6.665,6.665,0,0,1,4.482,4.965c.05.194.109.386.165.579V25.9c-.038.029-.093.05-.113.089a2.321,2.321,0,0,1-2.645,1.535,2.378,2.378,0,0,1-1.811-2.631c0-2.868.006-5.736,0-8.6a2.173,2.173,0,0,0-1.77-2.331,18.615,18.615,0,0,0-2.756-.028V32.143c2.037,0,4.037.059,6.032-.02A2.862,2.862,0,0,1,78,33.819v42.5A3.516,3.516,0,0,1,76.325,78ZM55.154,36.768H13.764V73.386H73.379V36.776H68.862v.974c0,5.941.022,11.882-.008,17.823a17.638,17.638,0,0,1-5,12.388,2.684,2.684,0,0,1-2.091.9c-1.294-.018-2.589,0-3.883,0q-9.289,0-18.579.005a2.44,2.44,0,0,1-1.981-.781,2.136,2.136,0,0,1-.394-2.409,2.274,2.274,0,0,1,2.251-1.387q8.681.005,17.361,0c.261,0,.523-.023.829-.037-.071-.18-.1-.277-.144-.363a18.366,18.366,0,0,1-2.073-8.867c.026-4.57.007-9.14.007-13.71ZM9.1,36.751H4.632V73.4H9.1ZM64.24,23.064H59.763V45.972H64.24ZM62,62.9c2-2.554,3.091-8.837,2.175-12.287H59.747c-.018,4.246-.51,8.529,2.256,12.287m2.229-49H59.772v4.5h4.459Z" fill="#077997"/>
          <rect id="Rectangle_19" data-name="Rectangle 19" width="4.472" height="36.646" transform="translate(4.632 36.751)" fill="#95e8f7"/>
          <path id="Path_226" data-name="Path 226" d="M62,62.9c-2.766-3.759-2.274-8.042-2.256-12.287h4.431C65.093,54.066,64,60.35,62,62.9" fill="#95e8f7"/>
          <path id="Path_227" data-name="Path 227" d="M27.378,59.564c-2.35-1.766-4.712-3.514-7.045-5.3a4.526,4.526,0,0,1-.966-6.418,4.722,4.722,0,0,1,3.651-1.867c0-.725-.009-1.431,0-2.137a2.285,2.285,0,1,1,4.564-.012c.012.685,0,1.37,0,2.181.691,0,1.363,0,2.036,0a2.3,2.3,0,1,1-.03,4.568c-2.1.005-4.2,0-6.5,0,.335.276.529.449.735.6q3.1,2.333,6.208,4.661a4.59,4.59,0,0,1-2.25,8.45,1.3,1.3,0,0,0-.2.075c0,.682.01,1.388,0,2.094a2.285,2.285,0,1,1-4.564,0c-.011-.684,0-1.369,0-2.173-.673,0-1.32,0-1.967,0a2.3,2.3,0,1,1-.033-4.569c2.1,0,4.2,0,6.3,0l.058-.154" fill="#077997"/>
          <path id="Path_228" data-name="Path 228" d="M43.676,46.007c1.494,0,2.989-.009,4.484,0a2.286,2.286,0,1,1,0,4.564q-4.522.016-9.043,0a2.283,2.283,0,1,1,0-4.562c1.52-.014,3.04,0,4.559,0" fill="#077997"/>
          <path id="Path_229" data-name="Path 229" d="M43.658,59.718c-1.494,0-2.989.008-4.484,0a2.289,2.289,0,1,1,.032-4.566q4.446-.011,8.891,0a2.293,2.293,0,1,1-.032,4.567c-1.469.007-2.938,0-4.408,0" fill="#077997"/>
        </g>
      </g>
    </g>
  </g>
</svg>
