<svg xmlns="http://www.w3.org/2000/svg" width="11" height="64" viewBox="0 0 11 64">
  <g id="Group_48" data-name="Group 48" transform="translate(-4243 -2532)">
    <rect id="Rectangle_13_copy" data-name="Rectangle 13 copy" width="11" height="64" rx="5.5" transform="translate(4243 2532)" fill="#096b82"/>
    <path id="Rectangle_14" data-name="Rectangle 14" d="M4245.81,2569a.81.81,0,0,1-.81-.81v-.01a.809.809,0,0,1,.81-.81h5.521a.81.81,0,0,1,.81.81v.01a.81.81,0,0,1-.81.81Zm0-3.26a.81.81,0,0,1-.81-.81v-.01a.81.81,0,0,1,.81-.81h5.521a.81.81,0,0,1,.81.81v.01a.81.81,0,0,1-.81.81Zm0-3.249a.81.81,0,0,1-.81-.81v-.011a.81.81,0,0,1,.81-.81h5.521a.81.81,0,0,1,.81.81v.011a.81.81,0,0,1-.81.81Z" fill="#ebfdff"/>
  </g>
</svg>
