<svg xmlns="http://www.w3.org/2000/svg" width="572.496" height="1401.786" viewBox="0 0 572.496 1401.786">
  <g id="Group_44" data-name="Group 44" transform="translate(137.391 247.567)">
    <path id="Shape_2" data-name="Shape 2" d="M3431.964,2167.98c-13.623,37.052-48.376,66.068-87.522,71.146-17.914,2.324-37.051.359-53.13,8.595-18.311,9.379-27.977,29.5-41.873,44.674-28.9,31.556-80.012,39.975-117.507,19.355s-57.769-68.289-46.611-109.6c6.541-24.219,22.521-46.041,23.5-71.11.775-19.791-7.953-38.509-14.281-57.277s-10.08-40.443-.173-57.593c11.967-20.718,38.781-26.768,62.622-28.764s49.912-2.763,68.042-18.375c11.375-9.795,17.781-24.054,27.287-35.671s27.035-19.613,40.985-14.074Z" transform="translate(-3049 -2164)" fill="rgba(237,250,254,0)" stroke="#b5e4f4" stroke-width="2" opacity="0.302"/>
    <path id="Shape_1" data-name="Shape 1" d="M2912.7,3129.845c9.652-28.371,35.5-51.036,65.125-55.617,13.557-2.1,28.123-.962,40.177-7.512,13.728-7.458,20.692-22.907,30.961-34.679,21.357-24.485,60-31.824,88.855-16.875s45.13,50.746,37.428,82.306c-4.516,18.5-16.241,35.358-16.521,54.4-.22,15.033,6.755,29.075,11.909,43.2s8.406,30.5,1.2,43.7c-8.7,15.945-28.946,21.034-47.009,22.993s-37.844,3.025-51.318,15.21c-8.453,7.643-13.052,18.583-20.054,27.575s-20.16,15.387-30.854,11.443Z" transform="translate(-3049 -2164)" fill="rgba(237,250,254,0)" stroke="#b5e4f4" stroke-width="2" opacity="0.302"/>
    <path id="Shape_3" data-name="Shape 3" d="M3305.623,3022.307c-21.323-13.593-34.73-39.313-32.561-64.51.993-11.531,4.836-23.24,1.88-34.43-3.367-12.744-14.637-21.545-22.232-32.317-15.8-22.406-14.083-55.547,3.94-76.2s50.616-26.822,74.944-14.188c14.26,7.405,25.731,20.391,41.282,24.434,12.277,3.192,25.181.287,37.788-1.107s26.682-.78,36.058,7.765c11.329,10.324,11.451,27.933,9.444,43.129s-5.088,31.619,2.2,45.1c4.575,8.459,12.621,14.419,18.592,21.957s8.578,19.6,3.207,27.578Z" transform="translate(-3049 -2164)" fill="rgba(237,250,254,0)" stroke="#b5e4f4" stroke-width="2" opacity="0.302"/>
  </g>
</svg>
