<svg xmlns="http://www.w3.org/2000/svg" width="23.974" height="18.963" viewBox="0 0 23.974 18.963">
  <path id="_-e-Shape_15" data-name="-e-Shape 15" d="M1181.8,1169.211a1.613,1.613,0,0,1,2.925-.948,3.05,3.05,0,0,0,1.885-.772,2.031,2.031,0,0,0,.592-1.29,1.124,1.124,0,0,0,0-.331v-5.6a6.332,6.332,0,1,0-12.663,0v5.6a1.015,1.015,0,0,1-1.013,1.018q-.042,0-.084,0t-.084,0a4.234,4.234,0,0,1-.647-8.441,8.349,8.349,0,0,1,16.318,0,4.213,4.213,0,0,1,.128,8.377,4.072,4.072,0,0,1-1.127,2.117,5.184,5.184,0,0,1-3.431,1.368,1.613,1.613,0,0,1-2.8-1.1Zm-10.89-6.565a2.234,2.234,0,0,0,1.6,2.071v-4.143A2.236,2.236,0,0,0,1170.914,1162.645Zm18.319,2.07a2.14,2.14,0,0,0,0-4.142Z" transform="translate(-1168.889 -1151.87)" fill="#fff"/>
</svg>
