<svg xmlns="http://www.w3.org/2000/svg" width="17.72" height="23.012" viewBox="0 0 17.72 23.012">
  <path id="_-e-Shape_5" data-name="-e-Shape 5" d="M2023.037,1292.987a1.014,1.014,0,0,1-1.023-.926l-.33-4.694a4.718,4.718,0,0,1,3.02-4.35,17.843,17.843,0,0,1,11.657,0,4.7,4.7,0,0,1,3.028,4.356l-.328,4.689a1.014,1.014,0,0,1-1.024.927Zm2.368-8.1a2.739,2.739,0,0,0-1.675,2.348l.265,3.764h13.084l.263-3.764a2.719,2.719,0,0,0-1.681-2.35,15.759,15.759,0,0,0-10.255,0Zm.3-9.562a4.937,4.937,0,1,1,4.921,5.349A5.155,5.155,0,0,1,2025.7,1275.324Zm2.05,0a2.906,2.906,0,1,0,2.871-3.361A3.148,3.148,0,0,0,2027.752,1275.324Z" transform="translate(-2021.676 -1269.975)" fill="#077997"/>
</svg>
