<svg xmlns="http://www.w3.org/2000/svg" width="38" height="38" viewBox="0 0 38 38">
  <g id="Group_112" data-name="Group 112" transform="translate(-1957 -3915)">
    <circle id="Op_component_1" data-name="Op component 1" cx="19" cy="19" r="19" transform="translate(1957 3915)" fill="#fff"/>
    <path id="_-e-Shape_2371" data-name="-e-Shape 2371" d="M1967.337,3937.15a1.406,1.406,0,0,0,.149,1.957l6.725,5.872a1.338,1.338,0,0,0,.884.334c.04,0,.081,0,.122-.005a1.349,1.349,0,0,0,.933-.5l11.5-14.259a1.409,1.409,0,0,0-.188-1.956l-2.105-1.762a1.348,1.348,0,0,0-1.918.192L1974.588,3938l-3.557-3.1a1.348,1.348,0,0,0-1.921.151Z" fill="#077997"/>
  </g>
</svg>
