<svg version="1.1" id="illustration" xmlns="http://www.w3.org/2000/svg" x="0" y="0" viewBox="0 0 424.6 313.9" style="enable-background:new 0 0 424.6 313.9" xml:space="preserve"><style>.st0{fill:#1e8aa7}.st2{fill:#fff}.st5{fill:none}</style><path class="st0" d="M380.3 281.3H48.7c-8 0-14.5-6.5-14.5-14.5V149.5c0-8 6.5-14.5 14.5-14.5h331.6c8 0 14.5 6.5 14.5 14.5v117.3c0 8-6.5 14.5-14.5 14.5z"/><path d="M380.3 272.3H48.7c-8 0-14.5-6.5-14.5-14.5V140.5c0-8 6.5-14.5 14.5-14.5h331.6c8 0 14.5 6.5 14.5 14.5v117.3c0 8-6.5 14.5-14.5 14.5z" style="fill:#fff;stroke:#1e8aa7;stroke-width:3;stroke-miterlimit:10"/><circle class="st2" cx="231.4" cy="125.5" r="8.2"/><circle class="st2" cx="325.7" cy="125.5" r="8.2"/><ellipse transform="rotate(-74.478 244.035 79.428)" cx="244" cy="79.4" rx="14" ry="12.1" style="fill:#95e8f7"/><path class="st0" d="M336.5 124.3c0-.3-.1-.7-.2-1 0-.2-.1-.3-.1-.5v-.1c-.2-.7-.5-1.3-.9-1.9 0-.1-.1-.1-.1-.2-.1-.1-.1-.2-.2-.3l-.1-.1c-.1-.1-.1-.2-.2-.3-.1-.2-.2-.3-.4-.5-2.1-2.1-5.2-3.4-8.5-3.4-1.4 0-2.6.2-3.8.6.2-7.2 1.4-13.4 1.4-13.5 3.8-4.5 6.9-10.8 9-18.3 2.6-9.5-.2-27.1-10.5-41-6.4-8.6-18.1-19-37.9-19.6-25.2-.8-38.3 12.9-45 24.7-9.2 12.9-23.5 34.8-22 44.1 1.7 10.5 6.3 13.1 8.7 13.7.5 1.3 1.2 2.6 1.9 3.8 1.1 1.9 2 3.8 2.7 5.6-4.6.7-8.3 3.7-8.8 7.7 0 .1 0 .2-.1.3l.1 3.1c.7 3 3 5.3 6.1 6 1.3 1 2.9 1.5 4.5 1.6h.2c1.1 0 2.1-.2 3-.6.9-.4 1.6-.9 2.3-1.5 2.5-.9 4.4-3 5.1-5.5H315c.7 3 3 5.3 6 6 1.4 1 3 1.6 4.7 1.6 2 0 3.9-.8 5.4-2.1 2.5-.9 4.4-3 5.1-5.5m-112.1-24.6c-1.5-1.4-3.3-4.2-4.2-9.9-.9-5.8 5.9-18.6 13.6-30.6-.2.9-.4 1.6-.6 2.2-.1.7-.9 2.2-1.8 4.1-3.6 7-10.3 20.6-7 34.2zm15.2 24.8c-.6 1.3-1.7 2.2-3.1 2.6l-.4.1-.3.3-.1.1c-.9.9-2 1.3-3.2 1.4h-.1c-1.1 0-2.2-.4-3.1-1.1l-.3-.3-.4-.1c-1.7-.3-3.1-1.5-3.7-3.1-.2-.6-.4-1.2-.4-1.8 0-.3 0-.7.1-1v-.2c.4-2.6 3.2-4.7 6.7-5 .3 0 .6-.1.9-.1.8 0 1.6.1 2.3.3 1.6.4 3 1.1 3.9 2.2l.1.1.3.3c0 .1.1.1.1.2v.1c.1.1.1.1.1.2l.1.1c.2.4.4.7.5 1.1v.1c0 .1.1.2.1.3 0 .1 0 .2.1.3.1.3.1.6.1.9.2.6 0 1.3-.3 2zm75.7-3.5c0 .1 0 .2-.1.3h-72.1c0-.3-.1-.7-.2-1 0-.2-.1-.3-.1-.5v-.1c-.2-.7-.5-1.3-.9-1.9 0-.1-.1-.1-.1-.2-.1-.1-.1-.2-.2-.3l-.1-.1c-.1-.1-.1-.2-.2-.3-.1-.2-.3-.3-.4-.5-1.8-1.8-4.3-3-7.1-3.3-.8-2.3-1.9-4.7-3.3-7.1-.6-1.1-1.2-2.2-1.7-3.3-.2-.5-.4-.9-.5-1.4-4.6-13.2 2.4-27.4 6-34.6 1.1-2.2 1.8-3.7 2.1-4.7 1.5-6.5 10.8-38.7 47.8-37.6 18.6.6 29.6 10.3 35.5 18.3 9.4 12.6 12.4 29.4 10 38.4-4.2 15.4-13.6 25.5-21.8 23.4-3.6-.9-6.1-2.7-7.5-5.4-2.8-5.2-2-14 2.3-26.2 8.1-23.2-.2-31.2-.6-31.5-.6-.6-1.6-.5-2.2.1-.6.6-.5 1.6.1 2.2.1.1 7.1 7.2-.2 28.2-4.7 13.3-5.3 22.7-2.1 28.7 1.9 3.5 5.1 5.8 9.5 6.9 4.3 1.1 8.8-.3 12.8-3.6-.4 2.9-.8 6.9-.8 11.3-2.2 1.5-3.6 3.5-3.9 5.8zm18 3.5c-.6 1.3-1.7 2.2-3.1 2.6l-.4.1-.3.3c-.9.9-2.1 1.5-3.5 1.5-.8 0-1.6-.2-2.2-.6-.3-.1-.6-.3-.8-.6l-.3-.3-.4-.1c-.7-.1-1.4-.4-2-.8-.8-.6-1.4-1.3-1.8-2.3-.2-.6-.4-1.2-.4-1.8 0-.3 0-.7.1-1v-.2c.1-.7.4-1.4.9-2 .7-.9 1.7-1.7 3-2.3 1.1-.5 2.4-.8 3.8-.8 2.5 0 4.8.9 6.3 2.4v.1l.3.3c0 .1.1.1.1.2v.1c0 .1.1.1.1.2l.1.1c.2.4.4.7.5 1.1v.1c0 .1 0 .2.1.3 0 .1 0 .2.1.3.1.3.1.6.1.9.2.8 0 1.5-.3 2.2z"/><path class="st0" d="M274.4 80.6c-1.4 0-2.5 1.1-2.5 2.5s1.1 2.5 2.5 2.5 2.5-1.1 2.5-2.5-1.1-2.5-2.5-2.5zM244.8 80.6c-1.4 0-2.5 1.1-2.5 2.5s1.1 2.5 2.5 2.5 2.5-1.1 2.5-2.5-1.1-2.5-2.5-2.5zM266.2 96.5c-.9 0-1.5.7-1.5 1.5 0 1.2-.8 2.2-1.9 2.4-.2 0-.3.1-.5.1-1.3 0-2.4-1.1-2.4-2.4v-5h.6c.4 0 .8-.2 1.1-.5.3-.3.5-.7.5-1.1 0-.9-.7-1.6-1.6-1.6h-4.4c-.4 0-.8.2-1.1.5-.3.3-.5.7-.5 1.1 0 .9.7 1.6 1.6 1.6h.6v5c0 1.3-1.1 2.4-2.4 2.4-.2 0-.3 0-.5-.1-1.1-.2-1.9-1.2-1.9-2.4 0-.8-.7-1.5-1.5-1.5-.9 0-1.5.7-1.5 1.5 0 2.8 2.1 5.2 4.9 5.5.5 2.5 2.4 4.4 4.7 4.4s4.2-1.9 4.7-4.4c2.7-.3 4.8-2.7 4.8-5.5-.2-.8-.9-1.5-1.8-1.5zm-8 9.4c-1.2 0-2.2-1.1-2.6-2.5.6-.1 1.1-.4 1.6-.7v1c0 .6.5 1 1 1s1-.5 1-1v-.9c.5.3 1 .5 1.5.7-.2 1.4-1.2 2.4-2.5 2.4zM276.4 69.7c-2.4-.7-4.5-.6-4.8.3s1.5 2.2 3.8 2.9c2.4.7 4.5.6 4.8-.3.3-.9-1.4-2.2-3.8-2.9zM249.1 69.7c-.3-.9-2.5-.9-4.8 0s-4 2.2-3.7 3.1c.3.9 2.5.9 4.8 0s4-2.2 3.7-3.1zM264 39.9c.8-1.8 4.2-2.1 7.2-.8 1 .5 2 1.1 2.8 1.8.6.6 1.6.6 2.2 0 .6-.6.6-1.6 0-2.2-1-1-2.3-1.8-3.6-2.4-4.8-2.1-9.8-1.1-11.3 2.4-.4 1-.5 2-.4 3-3 1.1-5 3.3-5 6 0 1.1.4 2.2 1 3.1.6.9 1.6 1.7 2.7 2.3 1.6.8 3.5 1.3 5.7 1.3h.5c.9 0 1.5-.8 1.5-1.6s-.8-1.5-1.6-1.5h-.4c-1.4 0-2.8-.3-3.9-.8-1.2-.6-2.1-1.3-2.3-2.2-.1-.2-.1-.4-.1-.6 0-1.3 1.3-2.4 3.1-3.1 1-.3 2.1-.6 3.2-.6h.4c1 0 2 .2 2.9.5.8.3 1.7-.1 2-.9s-.1-1.7-.9-2c-1.3-.5-2.8-.7-4.3-.7-.5 0-.9 0-1.4.1v-.5c-.1-.2 0-.4 0-.6z"/><circle cx="102.8" cy="124.1" r="32.8" style="fill:#edfafe;stroke:#b5e4f4;stroke-width:2;stroke-miterlimit:10"/><path class="st5" d="M189.6 196.4h172v79h-172z"/><text transform="translate(205.816 209.14)" style="font-size:18px;font-family:'MuseoSansRounded-700';fill:#333">Accept Bookings</text><path class="st5" d="M68.6 114.9h68.5v33.8H68.6z"/><text transform="translate(95.872 132.097)" class="st0" style="font-size:24px;font-family:'MuseoSansRounded-900'">2</text><g><path d="M122.4 254.9h-16.7c-1.3 0-1.9-.6-1.9-2V244c0-.9-.3-1.7-1.1-2.3-3.8-3.1-7.3-6.1-11.6-9.7-2.6-2.2-3.5-5.3-2.2-8.1 1.2-2.6 3.9-4.4 6.9-4.4.3 0 .6 0 .9.1 1.8.2 3.3.9 4.8 2.2l2.1 1.9v-20.2H88c-9.7 0-17.5-6.8-18.8-16.4 0-.2-.1-.4-.2-.6V183c.1-.1.1-.3.2-.5.6-4.6 2.8-8.8 6.2-11.7 3.3-3 7.7-4.6 12.3-4.6 9 0 18.5-.1 28.2-.1 9.2 0 19.1 0 29.5.1 8.5 0 15.7 5.6 18 13.9.2.7.3 1.4.4 2.1v.2c0 .2.1.5.1.7v3.5c-.1.3-.1.5-.2.8v.1c-.1.7-.3 1.4-.4 2.1-2.2 8.3-9.5 13.9-18.2 14H118.3v8.5l5.3.7c1.2.1 2.4.3 3.5.4 2.6.3 5.3.6 7.9 1 3.5.6 6 3.5 6 7.2v31.5c0 1.4-.6 2-1.9 2h-16.7zm-15.4-3.3h31v-8.1h-31v8.1zm-11-28.9c-1.4 0-2.8.7-3.6 1.7-1.4 1.8-1 3.7 1.2 5.5l2.2 1.9c3 2.5 6.1 5.1 9.2 7.6.6.5 1.6.9 2.4.9h30.4l.1-1.1V221.4c0-2.3-1.5-3.9-3.8-4.2-5.5-.7-11.2-1.4-17.1-2.1-1.6-.2-2-.7-2-2.3v-22c0-2.4-1.8-4.3-4.1-4.3-.3 0-.7 0-1 .1-1.9.4-3.2 2.1-3.2 4.3v35.9c0 .8-.3 1.3-.9 1.6-.2.1-.5.2-.7.2-.4 0-.8-.2-1.2-.5l-1-.9c-1.4-1.2-2.9-2.4-4.4-3.6-.5-.6-1.5-.9-2.5-.9zm12.1-53.4h-20c-8.7 0-15.6 6.7-15.7 15.3 0 4.2 1.5 8.2 4.5 11.1 2.9 3 6.9 4.6 11.1 4.6H102.6l1.2-.1V190.3c.1-3.8 3.4-6.9 7.2-6.9.5 0 1.1.1 1.6.2 3.4.8 5.7 3.6 5.7 7v9.7l1.2.1h26.1c.9 0 1.8-.1 2.8-.3 7.8-1.7 13.2-8.8 12.4-16.6-.9-8.2-7.4-14.1-15.7-14.2h-37z" style="fill:#077997"/><path d="M133.7 192c-.4 0-.9-.2-1.3-.7l-5.2-5.2c-.5-.5-.7-1-.7-1.5 0-.4.2-.7.5-1 .3-.3.6-.4 1-.4.5 0 1 .3 1.5.7l2.3 2.3 2 2 3-3 1.8-1.8 1-1 4.3-4.3c.4-.4.9-.7 1.4-.7.4 0 .7.2 1 .4.3.3.5.7.5 1 0 .5-.2.9-.7 1.4l-11 11c-.5.6-1 .8-1.4.8z" style="fill:#85d3e0"/></g></svg>