<svg version="1.1" id="illustration" xmlns="http://www.w3.org/2000/svg" x="0" y="0" viewBox="0 0 424.6 313.9" style="enable-background:new 0 0 424.6 313.9" xml:space="preserve"><style>.st0{fill:#1e8aa7}.st2{fill:#fff}.st4{fill:#077997}.st7{fill:none}.st8{enable-background:new}.st9{fill:#333}</style><path class="st0" d="M380.3 281.3H48.7c-8 0-14.5-6.5-14.5-14.5V149.5c0-8 6.5-14.5 14.5-14.5h331.6c8 0 14.5 6.5 14.5 14.5v117.3c0 8-6.5 14.5-14.5 14.5z"/><path d="M380.3 272.3H48.7c-8 0-14.5-6.5-14.5-14.5V140.5c0-8 6.5-14.5 14.5-14.5h331.6c8 0 14.5 6.5 14.5 14.5v117.3c0 8-6.5 14.5-14.5 14.5z" style="fill:#fff;stroke:#1e8aa7;stroke-width:3;stroke-miterlimit:10"/><circle class="st2" cx="334.4" cy="126" r="7.8"/><circle class="st2" cx="218.5" cy="126" r="7.8"/><ellipse cx="297.9" cy="78" rx="15.6" ry="23.3" style="fill:#95e8f7"/><path class="st0" d="M208.6 127.7c.6 2.9 2.9 5.1 5.8 5.8 1.3 1 2.9 1.5 4.5 1.5 1.5 0 3-.4 4.2-1.3.3-.2.6-.5.9-.7.9-.3 1.8-.8 2.5-1.5 1.1-1 1.9-2.3 2.3-3.8h95.4c.5 2.2 1.9 4 3.8 5.1.6.3 1.3.6 2 .7 1.3 1 2.9 1.5 4.5 1.5 1.9 0 3.7-.7 5.1-2 2.4-.8 4.2-2.8 4.9-5.3l.2-2.9c0-.3-.1-.6-.2-.9 0-.1-.1-.3-.1-.4v-.1c-.2-.6-.5-1.2-.8-1.8 0-.1-.1-.1-.1-.2-.1-.1-.1-.2-.2-.3l-.1-.1c-.1-.1-.1-.2-.2-.3-.1-.1-.2-.3-.4-.4-2-2-4.9-3.2-8.1-3.2-4.2 0-7.8 2-9.4 5-1.1-2.9-2.5-5.8-4.1-8.5 4.8-9.3 7.4-20 7.4-31 0-15.3-5-29.4-13.2-40.1.1-.5.1-1 .1-1.6 0-5.5-3.8-18-8.4-18-2.2 0-4.3 2.9-5.8 6.5-7.5-4.8-16.2-7.5-25.4-7.5s-17.9 2.7-25.4 7.5c-1.5-3.6-3.5-6.5-5.8-6.5-4.7 0-8.4 12.5-8.4 18 0 .5 0 1.1.1 1.6-8.3 10.6-13.2 24.7-13.2 40 0 11 2.6 21.7 7.4 31-1.3 2.2-2.4 4.5-3.4 6.8l-.1-.1c-2-2-4.9-3.2-8.1-3.2-5.3 0-9.7 3.2-10.2 7.4 0 .1 0 .2-.1.3m17.2-1.1c-.1.4-.3.8-.4 1.1-.3 1-.6 1.9-.9 2.9-.2.7-.4 1.4-.5 2.1-.3.2-.7.4-1.1.5l-.4.1-.3.3c-.9.9-2.1 1.4-3.3 1.4-1.1 0-2.1-.4-2.9-1.1l-.3-.3-.4-.1c-1.7-.3-3-1.4-3.6-3-.2-.5-.3-1.1-.3-1.7 0-.3 0-.7.1-1v-.2c.4-2.7 3.6-4.8 7.3-4.8 2.4 0 4.6.9 6 2.3.1.1.2.2.2.3 0 .1.1.1.1.2v.1c0 .1.1.1.1.2l.1.1c.3.2.4.4.5.6zm3.4 1.1c0-.3-.1-.6-.2-.9 0-.1 0-.2-.1-.2 1.2-3.2 2.7-6.4 4.5-9.3 0-.1.1-.2.1-.2v-.9l-.2-.3v-.1c-4.9-9.1-7.4-19.5-7.4-30.3 0-13.9 4.2-26.6 11.3-36.6 3.9-5.5 8.7-10.2 14.1-13.7 7.2-4.7 15.5-7.4 24.4-7.4 8.8 0 17.2 2.7 24.4 7.4 5.4 3.5 10.1 8.2 14.1 13.7 7.1 10 11.3 22.7 11.3 36.6 0 10.8-2.6 21.2-7.4 30.3v.2c0 .1 0 .2-.1.3v.6c0 .1.1.2.1.2 2 3.3 3.6 6.8 4.9 10.4l-93.8.2zm112.3 3c-.6 1.2-1.6 2.2-2.9 2.6l-.4.1-.3.3c-.9.9-2 1.4-3.3 1.4-1.1 0-2.1-.4-2.9-1.1l-.3-.3-.4-.1c-1.7-.3-3-1.4-3.6-3-.2-.5-.3-1.1-.3-1.7 0-.3 0-.7.1-1v-.2c.4-2.7 3.6-4.8 7.3-4.8 2.4 0 4.6.9 6 2.3.1.1.2.2.2.3 0 .1.1.1.1.2v.1c0 .1.1.1.1.2l.1.1c.2.3.4.7.5 1.1v.1c0 .1 0 .2.1.3v.2c.1.3.1.6.1.9.2.7.1 1.4-.2 2z"/><path class="st0" d="M296.5 77.6c-1.6 0-2.9 3.1-2.9 6.8 0 3.8 1.3 6.8 2.9 6.8s2.9-3.1 2.9-6.8c.1-3.7-1.3-6.8-2.9-6.8zM254.8 77.6c-1.6 0-2.9 3.1-2.9 6.8 0 3.8 1.3 6.8 2.9 6.8s2.9-3.1 2.9-6.8-1.3-6.8-2.9-6.8zM282.7 101.7c-.8 0-1.5.7-1.5 1.5 0 1.3-1 2.3-2.3 2.3s-2.3-1.1-2.3-2.3V90.7h.6c.8 0 1.5-.7 1.5-1.5s-.7-1.5-1.5-1.5H273c-.8 0-1.5.7-1.5 1.5s.7 1.5 1.5 1.5h.6v12.4c0 1.3-1 2.3-2.3 2.3s-2.3-1.1-2.3-2.3c0-.8-.7-1.5-1.5-1.5s-1.5.7-1.5 1.5c0 2.9 2.4 5.3 5.3 5.3 1.5 0 2.8-.6 3.8-1.6 1 1 2.3 1.6 3.8 1.6 2.9 0 5.3-2.4 5.3-5.3 0-.8-.7-1.4-1.5-1.4z"/><path class="st4" d="M150.7 188.2V173c-.1-2.1-1.4-4-3.4-4.7-.2-.1-.4-.1-.6-.2l-.3-.1H91.8c-3.1.8-4.6 2.9-4.5 6.4.1 2.9.1 5.8 0 8.6V186.9c0 .3 0 .6.1.8.3.5.8 1 1.3 1.1s1.1-.4 1.5-.8c.3-.3.3-.7.3-1V184.1h57v58.7c0 1.3-.2 2.2-1.4 2.8-.4.2-.6.5-.7.8-.1.4-.1.8.1 1.3.3.6.8.9 1.3.9.2 0 .4 0 .6-.1.5-.2 1-.5 1.4-.8 1.3-1.1 1.9-2.6 1.9-4.5v-55zm-9-17.1h3.4c1.7 0 2.4.7 2.4 2.5V180.7h-57V173.6c0-1.6.8-2.4 2.4-2.4h47.2l1.6-.1z"/><path d="m143.1 246.6-.5-1 .6-.3c.7-.4 1.3-.8 1.9-1.1 1.1-.6 1.7-1.5 1.6-2.4 0-.9-.6-1.8-1.6-2.4-3.7-2.1-7.8-4.5-12.4-7.2-1-.6-2.1-.7-2.8-.2-.8.5-1.2 1.4-1.2 2.6V249c0 1.2.4 2.1 1.2 2.6s1.8.4 2.8-.2c.6-.4 1.3-.7 1.9-1.1l.6-.3c.2.3.3.5.5.8.5.8.9 1.7 1.4 2.4.3.5.8.9 1.2 1.4.2.2.4.4.5.6l.1.1h1.5c.3-.2.7-.4 1-.5.7-.4 1.5-.8 2.2-1.2 1.6-1 2-2.3 1-4-.5-1.2-1-2.1-1.5-3zm-2.2-3.7c-1.9 1.1-2.2 2.4-1.1 4.3l.9 1.6c.4.6.7 1.2 1.1 1.8l-1.8 1-.5-.9c-.5-.9-1-1.8-1.6-2.7-.6-1.1-1.4-1.6-2.4-1.6-.5 0-1.1.2-1.7.5-.5.3-1 .6-1.6.9l-.3.2v-12.6l10.9 6.3-1.9 1.2z" style="fill:#85d3e0"/><path class="st4" d="M125.3 245.6c-.3-.1-.6-.1-.9-.1h-32c-1.1-.1-1.7-.8-1.8-1.9v-50.7c0-.3 0-.6-.1-.9-.2-.9-.9-1.3-1.7-1.3-.8.1-1.3.6-1.4 1.5v50.9c0 .6 0 1.1.1 1.7.6 2.6 2.6 4.1 5.6 4.1H125.3c.8-.1 1.3-.7 1.3-1.5 0-1.1-.5-1.7-1.3-1.8z"/><path class="st4" d="M136.1 222.9c1.3 0 2.2-.4 2.8-1.3.9-1.2.9-5.8 0-7-.8-1.2-2.1-1.3-3-1.3h-34.3c-1.8.1-3 1.3-3.1 3.1v2.7c0 2.6 1.1 3.7 3.7 3.7H123.4c4.2 0 8.4 0 12.7.1-.1 0-.1 0 0 0zm-34.4-5.8v-.6H136.3v2.7c0 .3 0 .4-.1.4 0 0-.2.1-.5.1h-33.4c-.4 0-.5-.1-.5-.1s-.1-.2-.1-.5c.1-.7.1-1.4 0-2zM103.7 198.9h-1.9c-2 0-3.2 1.3-3.3 3.3V204.8c0 2.6 1.1 3.7 3.7 3.7h33.6c.8 0 1.9-.1 2.8-1.1 1-1.3 1-6 0-7.3-.8-1-2-1.2-3-1.2h-31.9zm-2 3.7c0-.3 0-.4.1-.5 0 0 .1-.1.2-.1h34.3c.1.1.1.5.1.8v2.2h-33.9c-.3 0-.5 0-.6-.1s-.1-.3-.1-.6c0-.2 0-.9-.1-1.7zM122.2 228.5h-6.4c-2.5.1-4.5 2.2-4.4 4.8 0 2.6 2 4.6 4.5 4.7h6.2c2.5 0 4.5-2.1 4.5-4.7s-1.9-4.7-4.4-4.8zm-2.4 6.3h-3.6c-1.1 0-1.7-.6-1.7-1.6s.6-1.5 1.6-1.5h5.6c1 0 1.6.6 1.6 1.5s-.6 1.5-1.6 1.5c-.5.1-1.2.1-1.9.1zM107.4 191.4h23.4c.2 0 .4 0 .5-.1.8-.2 1.3-.8 1.2-1.6 0-.8-.5-1.4-1.4-1.5H106.9c-.9.1-1.4.6-1.5 1.5-.1.8.5 1.6 1.4 1.7h.6zM96.9 171.8c-1.1 0-2.2.4-3 1.2s-1.2 1.9-1.2 3 .5 2.2 1.3 3 1.8 1.2 2.9 1.2c1.1 0 2.2-.5 3-1.3s1.2-1.9 1.2-3c0-2.3-1.9-4.2-4.2-4.1zm-1 4.1c0-.5.4-.9 1-.9.3 0 .5.1.7.3s.3.4.3.7-.1.5-.3.7c-.2.2-.5.3-.7.3-.3 0-.5-.1-.7-.3-.2-.3-.3-.5-.3-.8zM107 171.8c-1.2 0-2.2.5-3 1.2-.8.8-1.2 1.9-1.2 3s.5 2.2 1.3 3 1.8 1.2 2.9 1.2c1.1 0 2.2-.5 3-1.3s1.2-1.9 1.2-3c0-2.3-1.9-4.1-4.2-4.1zm-1 4.2c0-.3.1-.5.3-.7.2-.2.4-.3.7-.3.3 0 .5.1.7.3s.3.4.3.7-.1.5-.3.7c-.2.2-.5.3-.7.3-.5-.1-1-.5-1-1zM117.2 171.8c-1.1 0-2.2.4-3 1.2s-1.2 1.8-1.2 3c0 2.3 1.9 4.2 4.2 4.2 2.3 0 4.2-1.9 4.2-4.2 0-1.1-.4-2.2-1.2-3s-1.9-1.2-3-1.2zm.9 4.1c0 .3-.1.5-.3.7-.2.2-.5.3-.7.3-.3 0-.5-.1-.7-.3s-.3-.4-.3-.7c0-.5.4-.9 1-.9.3 0 .5.1.7.3.2.1.3.4.3.6z"/><circle cx="102.8" cy="124.1" r="32.8" style="fill:#edfafe;stroke:#b5e4f4;stroke-width:2;stroke-miterlimit:10"/><path class="st7" d="M185 183.4h172v79H185z"/><g class="st8"><path class="st9" d="m222 194 .4-.6c.3-.4.6-.4 1-.2.4.3 1.3.9 2.6.9 1.2 0 1.9-.6 1.9-1.5 0-2.4-6-1.9-6-5.9 0-2.2 1.9-3.7 4.3-3.7 1.5 0 2.8.6 3.3 1 .4.3.5.6.2 1l-.3.6c-.3.5-.6.5-1 .3-.5-.3-1.2-.7-2.2-.7-1.2 0-1.9.6-1.9 1.4 0 2.4 6 1.8 6 5.9 0 2.1-1.5 3.8-4.2 3.8-1.8 0-3.3-.8-3.9-1.3-.4-.2-.5-.5-.2-1zM232 184.7v-.5c0-.5.3-.8.7-.8h.8c.5 0 .8.3.8.8v.5c0 .5-.3.7-.8.7h-.8c-.4 0-.7-.3-.7-.7zm0 3c0-.5.3-.8.7-.8h.8c.5 0 .7.3.7.8v7.7c0 .5-.3.8-.7.8h-.8c-.5 0-.7-.3-.7-.8v-7.7zM238.3 197.6c.4.2 1 .3 1.9.3 1.4 0 2.6-.6 2.6-2.2v-1.2c-.5.9-1.3 1.4-2.5 1.4-2.7 0-4.2-2.1-4.2-4.7 0-2.5 1.4-4.6 4.1-4.6 2.1 0 2.7 1.4 2.7 1.4v-.5c0-.3.3-.6.7-.6h.6c.5 0 .7.3.7.8v7.9c0 3.2-2.5 4.3-4.8 4.3-1 0-2.1-.2-2.7-.5-.5-.2-.6-.5-.4-1l.1-.4c.4-.4.7-.5 1.2-.4zm4.5-6.2c0-2.1-1-2.7-2.2-2.7-1.4 0-2.2 1-2.2 2.5 0 1.7.8 2.8 2.3 2.8 1.1 0 2.1-.6 2.1-2.6zM247.3 187.7c0-.5.3-.8.7-.8h.7c.5 0 .7.3.7.8v1c.4-.8 1.4-1.9 3.3-1.9 2 0 3.2 1.1 3.2 3.5v5.2c0 .5-.3.8-.8.8h-.8c-.5 0-.8-.3-.8-.8v-4.7c0-1.1-.3-1.9-1.4-1.9-1.6 0-2.6 1.4-2.6 3v3.5c0 .5-.3.8-.7.8h-.8c-.5 0-.7-.3-.7-.8v-7.7zM262.8 184.1c0-.5.3-.8.7-.8h.8c.5 0 .8.3.8.8v7.4c0 1.7 1.1 2.7 2.8 2.7s2.8-1 2.8-2.7v-7.4c0-.5.3-.8.7-.8h.8c.5 0 .7.3.7.8v7.4c0 2.9-2.1 4.8-5.1 4.8-3.1 0-5.2-1.9-5.2-4.8v-7.4zM275.3 187.7c0-.5.3-.8.8-.8h.6c.5 0 .7.3.7.6v.8s.8-1.6 3-1.6c2.5 0 4.1 2 4.1 4.8 0 2.9-1.8 4.8-4.2 4.8-1.9 0-2.6-1.4-2.6-1.4s.1.3.1.8v3.2c0 .5-.3.8-.8.8h-.8c-.5 0-.8-.3-.8-.8v-11.2zm4.5 6.7c1.3 0 2.3-1 2.3-2.8 0-1.7-.9-2.9-2.3-2.9-1.2 0-2.3.9-2.3 2.9.1 1.4.8 2.8 2.3 2.8zM295.4 190.5h.4v-.2c0-1.2-.8-1.6-1.7-1.6-.8 0-1.5.3-1.9.5-.4.2-.8.1-1-.3l-.2-.3c-.2-.4-.1-.8.3-1 .6-.3 1.6-.8 3-.8 2.4 0 3.8 1.3 3.8 3.7v5c0 .5-.3.8-.8.8h-.6c-.5 0-.7-.3-.7-.8v-.9s-.9 1.7-2.9 1.7c-1.7 0-3-1.1-3-2.8-.1-2.6 3.2-3 5.3-3zm-1.8 4.1c1.3 0 2.1-1.3 2.1-2.4v-.3h-.4c-1.2 0-3.1.2-3.1 1.5.1.6.5 1.2 1.4 1.2zM300.1 187.7c0-.5.3-.8.7-.8h.7c.5 0 .7.3.7.8v1c.4-.8 1.4-1.9 3.3-1.9 2 0 3.2 1.1 3.2 3.5v5.2c0 .5-.3.8-.8.8h-.8c-.5 0-.8-.3-.8-.8v-4.7c0-1.1-.3-1.9-1.4-1.9-1.6 0-2.6 1.4-2.6 3v3.5c0 .5-.3.8-.7.8h-.8c-.5 0-.7-.3-.7-.8v-7.7zM314.5 186.7c2 0 2.7 1.3 2.7 1.3v-3.9c0-.5.3-.8.7-.8h.8c.5 0 .7.3.7.8v11.3c0 .5-.3.8-.7.8h-.7c-.5 0-.7-.2-.7-.7v-.7s-.8 1.6-2.9 1.6c-2.5 0-4.1-2-4.1-4.8.1-3 1.8-4.9 4.2-4.9zm.5 7.7c1.2 0 2.3-.9 2.3-2.9 0-1.4-.7-2.8-2.3-2.8-1.2 0-2.3 1-2.3 2.8 0 1.8.9 2.9 2.3 2.9z"/></g><g class="st8"><path class="st9" d="M213.9 205.7c0-.5.3-.8.7-.8h.8c.5 0 .7.3.7.8V217c0 .5-.3.8-.7.8h-.8c-.5 0-.7-.3-.7-.8v-11.3zM218.7 209.3c0-.5.3-.8.7-.8h.7c.5 0 .7.3.7.8v1c.4-.8 1.4-1.9 3.3-1.9 2 0 3.2 1.1 3.2 3.5v5.2c0 .5-.3.8-.8.8h-.8c-.5 0-.8-.3-.8-.8v-4.7c0-1.1-.3-1.9-1.4-1.9-1.6 0-2.6 1.4-2.6 3v3.5c0 .5-.3.8-.7.8h-.8c-.5 0-.7-.3-.7-.8v-7.7zM229.5 209.3c0-.5.3-.8.8-.8h.6c.5 0 .7.3.7.6v.8s.8-1.6 3-1.6c2.5 0 4.1 2 4.1 4.8 0 2.9-1.8 4.8-4.2 4.8-1.9 0-2.6-1.4-2.6-1.4s.1.3.1.8v3.2c0 .5-.3.8-.8.8h-.8c-.5 0-.8-.3-.8-.8v-11.2zm4.5 6.7c1.3 0 2.3-1 2.3-2.8 0-1.7-.9-2.9-2.3-2.9-1.2 0-2.3.9-2.3 2.9 0 1.4.8 2.8 2.3 2.8zM240.2 209.3c0-.5.3-.8.8-.8h.8c.5 0 .8.3.8.8v4.7c0 1.1.3 1.9 1.4 1.9 1.7 0 2.6-1.5 2.6-3.1v-3.5c0-.5.3-.8.8-.8h.8c.5 0 .8.3.8.8v7.7c0 .5-.3.8-.8.8h-.7c-.5 0-.7-.3-.7-.8v-.9c-.4.9-1.6 1.9-3.2 1.9-2 0-3.2-1-3.2-3.5v-5.2zM251.5 210.5h-.5c-.5 0-.7-.3-.7-.8v-.3c0-.5.3-.8.8-.8h.5v-1.9c0-.5.3-.8.8-.8h.7c.5 0 .8.3.8.8v1.9h1.3c.5 0 .8.3.8.8v.3c0 .5-.3.8-.7.8H254v3.6c0 1.4.8 1.6 1.5 1.7.6.1.8.2.8.7v.6c0 .5-.3.8-.9.8-1.6 0-3.6-.9-3.6-3.4v-4zM266.7 212.1h.4v-.2c0-1.2-.8-1.6-1.7-1.6-.8 0-1.5.3-1.9.5-.5.2-.8.1-1-.3l-.2-.3c-.2-.4-.1-.8.3-1 .6-.3 1.6-.8 3-.8 2.4 0 3.8 1.3 3.8 3.7v5c0 .5-.3.8-.8.8h-.6c-.5 0-.7-.3-.7-.8v-.8s-.9 1.7-2.9 1.7c-1.7 0-3-1.1-3-2.8-.1-2.7 3.3-3.1 5.3-3.1zm-1.7 4.1c1.3 0 2.1-1.3 2.1-2.4v-.3h-.4c-1.2 0-3.1.2-3.1 1.5 0 .6.5 1.2 1.4 1.2zM276.3 205.7c0-.5.3-.8.7-.8h.8c.5 0 .7.3.7.8v10h4.8c.5 0 .8.3.8.7v.5c0 .5-.3.8-.8.8H277c-.5 0-.7-.3-.7-.8v-11.2zM285.4 206.3v-.5c0-.5.3-.8.7-.8h.8c.5 0 .8.3.8.8v.5c0 .5-.3.7-.8.7h-.8c-.5 0-.7-.3-.7-.7zm0 3c0-.5.3-.8.7-.8h.8c.5 0 .7.3.7.8v7.7c0 .5-.3.8-.7.8h-.8c-.5 0-.7-.3-.7-.8v-7.7zM289.5 216l.2-.3c.3-.4.6-.4 1-.2s1.1.6 2.1.6c.8 0 1.3-.4 1.3-.9 0-1.5-4.6-.9-4.6-4.1 0-1.8 1.6-2.8 3.5-2.8 1.2 0 2.1.4 2.6.7.4.2.5.6.3 1l-.2.3c-.2.4-.6.5-1 .3s-1-.5-1.7-.5c-.8 0-1.2.3-1.2.9 0 1.5 4.6.9 4.6 4.1 0 1.6-1.4 2.8-3.5 2.8-1.5 0-2.5-.6-3.1-.9-.5-.2-.6-.6-.3-1zM298.5 210.5h-.5c-.5 0-.7-.3-.7-.8v-.3c0-.5.3-.8.8-.8h.5v-1.9c0-.5.3-.8.8-.8h.7c.5 0 .8.3.8.8v1.9h1.3c.5 0 .8.3.8.8v.3c0 .5-.3.8-.7.8h-1.4v3.6c0 1.4.8 1.6 1.5 1.7.6.1.8.2.8.7v.6c0 .5-.3.8-.9.8-1.6 0-3.6-.9-3.6-3.4v-4zM304.5 206.3v-.5c0-.5.3-.8.7-.8h.8c.5 0 .8.3.8.8v.5c0 .5-.3.7-.8.7h-.8c-.4 0-.7-.3-.7-.7zm0 3c0-.5.3-.8.7-.8h.8c.5 0 .7.3.7.8v7.7c0 .5-.3.8-.7.8h-.8c-.5 0-.7-.3-.7-.8v-7.7zM309 209.3c0-.5.3-.8.7-.8h.7c.5 0 .7.3.7.8v1c.4-.8 1.4-1.9 3.3-1.9 2 0 3.2 1.1 3.2 3.5v5.2c0 .5-.3.8-.8.8h-.8c-.5 0-.8-.3-.8-.8v-4.7c0-1.1-.3-1.9-1.4-1.9-1.6 0-2.6 1.4-2.6 3v3.5c0 .5-.3.8-.7.8h-.8c-.5 0-.7-.3-.7-.8v-7.7zM321.5 219.2c.4.2 1 .3 1.9.3 1.4 0 2.6-.6 2.6-2.2v-1.2c-.5.9-1.3 1.4-2.5 1.4-2.7 0-4.2-2.1-4.2-4.7 0-2.5 1.4-4.6 4.1-4.6 2.1 0 2.7 1.4 2.7 1.4v-.5c0-.3.3-.6.7-.6h.6c.5 0 .7.3.7.8v7.9c0 3.2-2.5 4.3-4.8 4.3-1 0-2.1-.2-2.7-.5-.5-.2-.6-.5-.4-1l.1-.4c.5-.4.8-.5 1.2-.4zm4.5-6.2c0-2.1-1-2.7-2.2-2.7-1.4 0-2.2 1-2.2 2.5 0 1.7.8 2.8 2.3 2.8 1.1 0 2.1-.6 2.1-2.6z"/></g><path class="st7" d="M68.6 114.9h68.5v33.8H68.6z"/><g class="st8"><path class="st0" d="M97.5 129.8c0-.9.5-1.3 1.3-1.3h2.3V120s-.2.5-.5.8l-.2.2c-.6.6-1.3.6-1.8-.1l-.6-.7c-.6-.6-.6-1.3 0-1.9l3-2.8c.5-.5 1-.6 1.6-.6h1.4c.9 0 1.3.5 1.3 1.3v12.2h2.4c.9 0 1.3.5 1.3 1.3v1c0 .9-.5 1.3-1.3 1.3h-8.8c-.9 0-1.3-.5-1.3-1.3v-.9z"/></g></svg>