<svg version="1.1" id="illustration" xmlns="http://www.w3.org/2000/svg" x="0" y="0" viewBox="0 0 424.6 313.9" style="enable-background:new 0 0 424.6 313.9" xml:space="preserve"><style>.st0{fill:#1e8aa7}.st2{fill:#fff}.st3{fill:#95e8f7}.st5{fill:none}.st6{enable-background:new}.st7{fill:#333}.st8{fill:#077997}.st9{fill:#85d3e0}</style><path class="st0" d="M380.3 281.3H48.7c-8 0-14.5-6.5-14.5-14.5V149.5c0-8 6.5-14.5 14.5-14.5h331.6c8 0 14.5 6.5 14.5 14.5v117.3c0 8-6.5 14.5-14.5 14.5z"/><path d="M380.3 272.3H48.7c-8 0-14.5-6.5-14.5-14.5V140.5c0-8 6.5-14.5 14.5-14.5h331.6c8 0 14.5 6.5 14.5 14.5v117.3c0 8-6.5 14.5-14.5 14.5z" style="fill:#fff;stroke:#1e8aa7;stroke-width:3;stroke-miterlimit:10"/><circle class="st2" cx="231.4" cy="125.5" r="8.2"/><circle class="st2" cx="325.7" cy="125.5" r="8.2"/><ellipse transform="rotate(-74.478 243.999 79.455)" class="st3" cx="244" cy="79.5" rx="14" ry="12.1"/><circle class="st2" cx="229.5" cy="125.8" r="8.1"/><circle class="st2" cx="327.5" cy="125.8" r="8"/><circle transform="rotate(-58.34 278.808 54.596)" class="st3" cx="278.8" cy="54.6" r="11.2"/><path class="st0" d="M337.5 124.1v-.2c0-.1-.1-.3-.1-.4v-.1c-.2-.6-.5-1.2-.9-1.8 0-.1-.1-.1-.1-.2-.1-.1-.1-.2-.2-.3l-.1-.1c-.1-.1-.1-.2-.2-.3-.1-.2-.2-.3-.4-.4-1.8-1.8-4.2-3-7-3.2 1.3-10 2.5-24.1 2-38-.1-2.9-.3-5.9-.6-8.8-1.4-13.7-4.9-26.2-12.5-33-.8-.7-1.6-1.3-2.4-1.9-.8-.5-1.5-1-2.4-1.4-28.3-13.9-50.9-2.6-59.3 2.9-5.4 3.5-11.2 6.7-18.2 7-1 0-2.1 0-3.2-.1s-2.3-.3-3.4-.5c-3.6-.8-7.3 1-10.3 5.2-1.8 2.5-3.3 5.7-4.3 9.3-.3 1-.5 2-.7 3.1-1.6 8.3-.5 18.2 4.4 26.5 2 3.4 4 6.5 5.7 9.2 5.2 8.1 8.9 13.9 9.2 20.7-.9-.2-1.9-.3-3-.3-5.2 0-9.6 3.1-10.5 7.2l-.1 3c.4 3.3 2.8 6 6.1 6.7 1.3 1 3 1.5 4.6 1.5 2 0 3.8-.7 5.3-2.1 2.7-.9 4.7-3.3 5.2-6.2h76.4c.4 3.3 2.8 6 6.1 6.7 1.3 1 3 1.5 4.6 1.5 2 0 3.8-.7 5.3-2.1 2.7-.9 4.7-3.3 5.2-6.2m-100.7.1c-.4 1.6-1.7 2.9-3.3 3.4l-.4.1-.3.3c-.3.3-.7.6-1.1.9-.7.4-1.5.6-2.3.6-.3 0-.5 0-.8-.1-.8-.1-1.6-.5-2.2-1l-.3-.3-.4-.1c-2-.3-3.5-1.9-3.9-3.8-.1-.3-.1-.7-.1-1s0-.7.1-1v-.1c0-.3.1-.6.2-.9.9-2.4 3.9-4.2 7.3-4.2 1 0 2 .2 2.9.4 1.1.3 2.1.8 2.8 1.5.2.2.3.3.5.4l.1.1c.1.1.2.2.2.3 0 .1.1.1.1.2v.1c.1.1.1.1.1.2l.1.1c.2.3.4.6.5.9 0 .1.1.1.1.2v.1c0 .1.1.2.1.3.1.4.1.8.1 1.2.1.3 0 .8-.1 1.2zm79.6-3H240v-.2c0-.1-.1-.3-.1-.4v-.1c-.2-.6-.5-1.2-.9-1.8 0-.1-.1-.1-.1-.2-.1-.1-.1-.2-.2-.3l-.1-.1c-.1-.1-.1-.2-.2-.3-.1-.2-.2-.3-.4-.4-.7-.7-1.5-1.3-2.4-1.8.1-8.2-4.1-14.9-9.7-23.5-1.8-2.8-3.7-5.8-5.7-9.2-4.4-7.5-5.4-16.3-4.1-23.8 1.4.4 2.9.7 4.4.7 8.4 0 15.2-6.7 15.2-15v-.8c7.6-.4 14-3.8 19.4-7.4 8-5.2 29.4-15.9 56.3-2.7.7.3 1.4.7 2 1.2-9 13.3-24.7 40.3-15.5 54.8 3.9 6.2 8.2 7.9 11.8 7.9.9 0 1.8-.1 2.6-.3 5.7-1.3 11.2-6.8 15.2-14.5 0 11.6-1.1 23-2.2 31.3-4.4.4-7.9 3.2-8.7 6.9zm17.9 3c-.4 1.6-1.7 2.9-3.3 3.4l-.4.1-.3.3c-.9.9-2.1 1.4-3.4 1.4-.7 0-1.4-.1-2-.4-.4-.2-.7-.4-1-.6l-.3-.3-.4-.1c-2-.3-3.5-1.9-3.9-3.8-.1-.3-.1-.7-.1-1s0-.7.1-1v-.1c0-.3.1-.6.2-.9.7-1.9 2.7-3.4 5.1-3.9.7-.2 1.4-.2 2.2-.2.3 0 .6 0 1 .1 2.1.2 4 1 5.2 2.3v.1c.1.1.2.2.2.3 0 .1.1.1.1.2v.1c0 .1.1.1.1.2l.1.1c.2.3.4.6.5.9 0 .1 0 .1.1.2v.1c0 .1 0 .2.1.3.1.4.1.8.1 1.2.2.1.1.6 0 1z"/><circle class="st0" cx="276.5" cy="52.1" r="2.4"/><circle class="st0" cx="261.7" cy="47.7" r="2.4"/><path class="st0" d="M294.5 25.5c2.3.7 4.4.6 4.7-.3.3-.9-1.4-2.1-3.8-2.8-2.3-.7-4.4-.6-4.7.3-.2.8 1.5 2.1 3.8 2.8zM275.5 23.9c2.3-.7 4-1.9 3.8-2.8s-2.4-1-4.7-.4c-2.3.7-4 1.9-3.8 2.8.3.9 2.4 1 4.7.4zM260.3 71c-.8-.3-1.7 0-2 .7-2.5 5.5-8.1 8.2-13.8 6.7-.8-.2-1.6.3-1.8 1.1-.2.8.3 1.6 1.1 1.8 1.3.3 2.6.5 3.8.5 5.7 0 10.9-3.3 13.5-8.9.3-.7-.1-1.6-.8-1.9z"/><circle cx="102.8" cy="124.1" r="32.8" style="fill:#edfafe;stroke:#b5e4f4;stroke-width:2;stroke-miterlimit:10"/><path class="st5" d="M147.2 183.4h247.5v79H147.2z"/><g class="st6"><path class="st7" d="M180.7 183.1c2.1 0 3.6.8 4.2 1.2.4.3.4.6.2 1l-.3.5c-.3.4-.6.5-1 .2-.6-.3-1.5-.8-2.8-.8-2.8 0-4.3 2-4.3 4.4 0 2.7 1.9 4.5 4.3 4.5 2.1 0 3.2-1.4 3.2-1.4v-1.4H183c-.5 0-.8-.3-.8-.8v-.5c0-.5.3-.8.8-.8h2.6c.5 0 .7.3.7.8v5.2c0 .5-.3.8-.7.8h-.5c-.5 0-.7-.3-.7-.6v-.6s-1.3 1.4-3.7 1.4c-3.4 0-6.3-2.6-6.3-6.6-.3-3.6 2.4-6.5 6.3-6.5zM188 187.7c0-.5.3-.8.7-.8h.7c.5 0 .8.3.8.8v.9c0 .3-.1.6-.1.6.4-1.1 1.4-2.3 2.7-2.3.5 0 .7.3.7.8v.7c0 .5-.3.8-.8.8-1.7 0-2.5 1.7-2.5 3.3v3c0 .5-.3.8-.7.8h-.8c-.5 0-.7-.3-.7-.8v-7.8zM198.9 186.7c2.8 0 5.1 2 5.1 4.8s-2.3 4.8-5.1 4.8-5-2-5-4.8 2.2-4.8 5-4.8zm0 7.7c1.5 0 2.7-1.2 2.7-2.9s-1.2-2.9-2.7-2.9-2.7 1.2-2.7 2.9c0 1.8 1.2 2.9 2.7 2.9zM204.8 187.8c-.1-.5.1-.8.6-.8h.9c.5 0 .7.2.8.7l1.5 5.4.2 1 .2-1 1.5-5.4c.1-.4.4-.6.8-.6h.7c.5 0 .7.2.8.6l1.5 5.4.2 1 .2-1 1.5-5.4c.1-.5.4-.7.8-.7h.8c.5 0 .8.3.6.8l-2.4 7.7c-.1.4-.4.6-.8.6H214c-.5 0-.7-.2-.8-.6l-1.4-4.6-.2-1-.2 1-1.4 4.6c-.1.4-.4.6-.8.6H208c-.4 0-.7-.2-.8-.6l-2.4-7.7zM229.3 190.5h.4v-.2c0-1.2-.8-1.6-1.7-1.6-.8 0-1.5.3-1.9.5-.5.2-.8.1-1-.3l-.2-.3c-.2-.4-.1-.8.3-1 .6-.3 1.6-.8 3-.8 2.4 0 3.8 1.3 3.8 3.7v5c0 .5-.3.8-.8.8h-.6c-.5 0-.7-.3-.7-.8v-.9s-.9 1.7-2.9 1.7c-1.7 0-3-1.1-3-2.8 0-2.6 3.3-3 5.3-3zm-1.7 4.1c1.3 0 2.1-1.3 2.1-2.4v-.3h-.4c-1.2 0-3.1.2-3.1 1.5 0 .6.5 1.2 1.4 1.2zM234.1 187.7c0-.5.3-.8.7-.8h.7c.5 0 .7.3.7.8v1c.4-.8 1.4-1.9 3.3-1.9 2 0 3.2 1.1 3.2 3.5v5.2c0 .5-.3.8-.8.8h-.8c-.5 0-.8-.3-.8-.8v-4.7c0-1.1-.3-1.9-1.4-1.9-1.6 0-2.6 1.4-2.6 3v3.5c0 .5-.3.8-.7.8h-.8c-.5 0-.7-.3-.7-.8v-7.7zM248.5 186.7c2 0 2.7 1.3 2.7 1.3v-3.9c0-.5.3-.8.7-.8h.8c.5 0 .7.3.7.8v11.3c0 .5-.3.8-.7.8h-.7c-.5 0-.7-.2-.7-.7v-.7s-.8 1.6-2.9 1.6c-2.5 0-4.1-2-4.1-4.8.1-3 1.8-4.9 4.2-4.9zm.5 7.7c1.2 0 2.3-.9 2.3-2.9 0-1.4-.7-2.8-2.3-2.8-1.2 0-2.3 1-2.3 2.8 0 1.8.9 2.9 2.3 2.9zM261.1 184.1c.1-.5.3-.7.8-.7h1.1c.4 0 .7.2.8.6l2.3 5.7c.3.8.6 1.9.6 1.9s.3-1.1.6-1.9l2.3-5.7c.1-.4.4-.6.9-.6h1.1c.5 0 .7.3.8.7l.9 11.3c0 .5-.2.8-.7.8h-.8c-.5 0-.7-.3-.8-.7l-.5-6.4c-.1-.8 0-2 0-2s-.4 1.2-.7 2l-1.9 4.4c-.1.4-.4.6-.8.6h-.8c-.5 0-.7-.2-.9-.6l-1.8-4.4c-.3-.7-.7-2-.7-2v2l-.5 6.4c0 .5-.3.7-.8.7h-.8c-.5 0-.8-.3-.7-.8l1-11.3zM280.3 190.5h.4v-.2c0-1.2-.8-1.6-1.7-1.6-.8 0-1.5.3-1.9.5-.5.2-.8.1-1-.3l-.2-.3c-.2-.4-.1-.8.3-1 .6-.3 1.6-.8 3-.8 2.4 0 3.8 1.3 3.8 3.7v5c0 .5-.3.8-.8.8h-.6c-.5 0-.7-.3-.7-.8v-.9s-.9 1.7-2.9 1.7c-1.7 0-3-1.1-3-2.8-.1-2.6 3.2-3 5.3-3zm-1.7 4.1c1.3 0 2.1-1.3 2.1-2.4v-.3h-.4c-1.2 0-3.1.2-3.1 1.5 0 .6.4 1.2 1.4 1.2zM285.1 187.7c0-.5.3-.8.7-.8h.7c.5 0 .7.3.7.8v1c.4-.8 1.4-1.9 3.3-1.9 2 0 3.2 1.1 3.2 3.5v5.2c0 .5-.3.8-.8.8h-.8c-.5 0-.8-.3-.8-.8v-4.7c0-1.1-.3-1.9-1.4-1.9-1.6 0-2.6 1.4-2.6 3v3.5c0 .5-.3.8-.7.8h-.8c-.5 0-.7-.3-.7-.8v-7.7zM300.5 190.5h.4v-.2c0-1.2-.8-1.6-1.7-1.6-.8 0-1.5.3-1.9.5-.5.2-.8.1-1-.3l-.2-.3c-.2-.4-.1-.8.3-1 .6-.3 1.6-.8 3-.8 2.4 0 3.8 1.3 3.8 3.7v5c0 .5-.3.8-.8.8h-.6c-.5 0-.7-.3-.7-.8v-.9s-.9 1.7-2.9 1.7c-1.7 0-3-1.1-3-2.8-.1-2.6 3.3-3 5.3-3zm-1.7 4.1c1.3 0 2.1-1.3 2.1-2.4v-.3h-.4c-1.2 0-3.1.2-3.1 1.5 0 .6.5 1.2 1.4 1.2zM307 197.6c.4.2 1 .3 1.9.3 1.4 0 2.6-.6 2.6-2.2v-1.2c-.5.9-1.3 1.4-2.5 1.4-2.7 0-4.2-2.1-4.2-4.7 0-2.5 1.4-4.6 4.1-4.6 2.1 0 2.7 1.4 2.7 1.4v-.5c0-.3.3-.6.7-.6h.6c.5 0 .7.3.7.8v7.9c0 3.2-2.5 4.3-4.8 4.3-1 0-2.1-.2-2.7-.5-.5-.2-.6-.5-.4-1l.1-.4c.4-.4.7-.5 1.2-.4zm4.5-6.2c0-2.1-1-2.7-2.2-2.7-1.4 0-2.2 1-2.2 2.5 0 1.7.8 2.8 2.3 2.8 1.1 0 2.1-.6 2.1-2.6zM320.1 186.7c2.6 0 4.1 1.9 4.1 4.4 0 .4-.3.8-.8.8h-5.6c.1 1.7 1.4 2.5 2.8 2.5.8 0 1.5-.3 2-.6.5-.2.8-.2 1 .3l.2.4c.2.4.1.8-.3 1-.6.4-1.7.9-3.1.9-3 0-4.9-2.2-4.9-4.8-.1-2.9 1.8-4.9 4.6-4.9zm1.8 3.8c0-1.3-.8-2-1.9-2-1.2 0-2 .8-2.2 2h4.1zM333.3 190.8l-3.7-6.5c-.3-.5-.1-.9.5-.9h1c.4 0 .7.2.9.6l1.7 3.2c.4.8.8 1.7.8 1.7s.4-.9.8-1.7l1.7-3.2c.2-.4.5-.6.9-.6h1c.6 0 .8.4.5.9l-3.8 6.5v4.6c0 .5-.3.8-.7.8h-.9c-.5 0-.8-.3-.8-.8v-4.6zM344.3 186.7c2.8 0 5.1 2 5.1 4.8s-2.3 4.8-5.1 4.8-5-2-5-4.8c-.1-2.8 2.2-4.8 5-4.8zm0 7.7c1.5 0 2.7-1.2 2.7-2.9s-1.2-2.9-2.7-2.9c-1.5 0-2.7 1.2-2.7 2.9-.1 1.8 1.2 2.9 2.7 2.9zM350.9 187.7c0-.5.3-.8.8-.8h.8c.5 0 .8.3.8.8v4.7c0 1.1.3 1.9 1.4 1.9 1.7 0 2.6-1.5 2.6-3.1v-3.5c0-.5.3-.8.8-.8h.8c.5 0 .8.3.8.8v7.7c0 .5-.3.8-.8.8h-.9c-.5 0-.7-.3-.7-.8v-.9c-.4.9-1.6 1.9-3.2 1.9-2 0-3.2-1-3.2-3.5v-5.2zM361.7 187.7c0-.5.3-.8.7-.8h.7c.5 0 .8.3.8.8v.9c0 .3-.1.6-.1.6.4-1.1 1.4-2.3 2.7-2.3.5 0 .7.3.7.8v.7c0 .5-.3.8-.8.8-1.7 0-2.5 1.7-2.5 3.3v3c0 .5-.3.8-.7.8h-.8c-.5 0-.7-.3-.7-.8v-7.8z"/></g><g class="st6"><path class="st7" d="M177.5 205.7c0-.5.3-.8.7-.8h3.8c2.3 0 4 1.2 4 3.3 0 1.2-.6 2.2-1.5 2.7 1.4.4 2.1 1.7 2.1 3 0 2.6-2 3.7-4.4 3.7h-3.9c-.5 0-.7-.3-.7-.8v-11.1zm4.6 4.5c1 0 1.6-.7 1.6-1.6 0-.9-.5-1.6-1.6-1.6h-2.2v3.2h2.2zm.2 5.5c1.2 0 1.9-.8 1.9-1.9 0-1.1-.7-1.8-1.9-1.8h-2.5v3.7h2.5zM188.3 209.3c0-.5.3-.8.8-.8h.8c.5 0 .8.3.8.8v4.7c0 1.1.3 1.9 1.4 1.9 1.7 0 2.6-1.5 2.6-3.1v-3.5c0-.5.3-.8.8-.8h.8c.5 0 .8.3.8.8v7.7c0 .5-.3.8-.8.8h-.7c-.5 0-.7-.3-.7-.8v-.9c-.4.9-1.6 1.9-3.2 1.9-2 0-3.2-1-3.2-3.5v-5.2zM198.7 216l.2-.3c.3-.4.6-.4 1-.2s1.1.6 2.1.6c.8 0 1.3-.4 1.3-.9 0-1.5-4.6-.9-4.6-4.1 0-1.8 1.6-2.8 3.5-2.8 1.2 0 2.1.4 2.6.7.4.2.5.6.3 1l-.2.3c-.2.4-.6.5-1 .3s-1-.5-1.7-.5c-.8 0-1.2.3-1.2.9 0 1.5 4.6.9 4.6 4.1 0 1.6-1.4 2.8-3.5 2.8-1.5 0-2.5-.6-3.1-.9-.5-.2-.6-.6-.3-1zM207.1 206.3v-.5c0-.5.3-.8.7-.8h.8c.5 0 .8.3.8.8v.5c0 .5-.3.7-.8.7h-.8c-.4 0-.7-.3-.7-.7zm0 3c0-.5.3-.8.7-.8h.8c.5 0 .7.3.7.8v7.7c0 .5-.3.8-.7.8h-.8c-.5 0-.7-.3-.7-.8v-7.7zM211.7 209.3c0-.5.3-.8.7-.8h.7c.5 0 .7.3.7.8v1c.4-.8 1.4-1.9 3.3-1.9 2 0 3.2 1.1 3.2 3.5v5.2c0 .5-.3.8-.8.8h-.8c-.5 0-.8-.3-.8-.8v-4.7c0-1.1-.3-1.9-1.4-1.9-1.6 0-2.6 1.4-2.6 3v3.5c0 .5-.3.8-.7.8h-.8c-.5 0-.7-.3-.7-.8v-7.7zM226.6 208.3c2.6 0 4.1 1.9 4.1 4.4 0 .4-.3.8-.8.8h-5.6c.1 1.7 1.4 2.5 2.8 2.5.8 0 1.5-.3 2-.6.5-.2.8-.2 1 .3l.2.4c.2.4.1.8-.3 1-.6.4-1.7.9-3.1.9-3 0-4.9-2.2-4.9-4.8-.1-2.9 1.8-4.9 4.6-4.9zm1.8 3.8c0-1.3-.8-2-1.9-2-1.2 0-2 .8-2.2 2h4.1zM231.9 216l.2-.3c.3-.4.6-.4 1-.2s1.1.6 2.1.6c.8 0 1.3-.4 1.3-.9 0-1.5-4.6-.9-4.6-4.1 0-1.8 1.6-2.8 3.5-2.8 1.2 0 2.1.4 2.6.7.4.2.5.6.3 1l-.2.3c-.2.4-.6.5-1 .3s-1-.5-1.7-.5c-.8 0-1.2.3-1.2.9 0 1.5 4.6.9 4.6 4.1 0 1.6-1.4 2.8-3.5 2.8-1.5 0-2.5-.6-3.1-.9-.5-.2-.6-.6-.3-1zM239.9 216l.2-.3c.3-.4.6-.4 1-.2s1.1.6 2.1.6c.8 0 1.3-.4 1.3-.9 0-1.5-4.6-.9-4.6-4.1 0-1.8 1.6-2.8 3.5-2.8 1.2 0 2.1.4 2.6.7.4.2.5.6.3 1l-.2.3c-.2.4-.6.5-1 .3s-1-.5-1.7-.5c-.8 0-1.2.3-1.2.9 0 1.5 4.6.9 4.6 4.1 0 1.6-1.4 2.8-3.5 2.8-1.5 0-2.5-.6-3.1-.9-.5-.2-.5-.6-.3-1zM256 207h-3.4c-.5 0-.8-.3-.8-.7v-.5c0-.5.3-.8.8-.8h9.2c.5 0 .7.3.7.8v.5c0 .5-.3.7-.7.7h-3.4v10c0 .5-.3.8-.8.8h-.8c-.5 0-.7-.3-.7-.8v-10zM263.7 205.7c0-.5.3-.8.8-.8h.8c.5 0 .8.3.8.8v3.7c0 .5-.1.8-.1.8.5-.9 1.6-1.9 3.2-1.9 2 0 3.2 1.1 3.2 3.5v5.2c0 .5-.3.8-.8.8h-.8c-.5 0-.8-.3-.8-.8v-4.7c0-1.1-.3-1.9-1.4-1.9-1.6 0-2.6 1.3-2.6 3v3.5c0 .5-.3.8-.8.8h-.8c-.5 0-.8-.3-.8-.8v-11.2zM278.6 208.3c2.6 0 4.1 1.9 4.1 4.4 0 .4-.3.8-.8.8h-5.6c.1 1.7 1.4 2.5 2.8 2.5.8 0 1.5-.3 2-.6.5-.2.8-.2 1 .3l.2.4c.2.4.1.8-.3 1-.6.4-1.7.9-3.1.9-3 0-4.9-2.2-4.9-4.8-.1-2.9 1.8-4.9 4.6-4.9zm1.8 3.8c0-1.3-.8-2-1.9-2-1.2 0-2 .8-2.2 2h4.1zM289.1 205.7c0-.5.3-.8.7-.8h1c.4 0 .7.1.9.5l4.5 6.9c.5.8 1.1 2 1.1 2s-.1-1.2-.1-2v-6.6c0-.5.3-.8.8-.8h.8c.5 0 .8.3.8.8V217c0 .5-.3.8-.8.8h-1c-.4 0-.7-.1-.9-.5l-4.6-6.9c-.5-.8-1.1-2-1.1-2s.1 1.2.1 2v6.6c0 .5-.3.8-.7.8h-.8c-.5 0-.7-.3-.7-.8v-11.3zM306.1 208.3c2.6 0 4.1 1.9 4.1 4.4 0 .4-.3.8-.8.8h-5.6c.1 1.7 1.4 2.5 2.8 2.5.8 0 1.5-.3 2-.6.5-.2.8-.2 1 .3l.2.4c.2.4.1.8-.3 1-.6.4-1.7.9-3.1.9-3 0-4.9-2.2-4.9-4.8-.1-2.9 1.8-4.9 4.6-4.9zm1.8 3.8c0-1.3-.8-2-1.9-2-1.2 0-2 .8-2.2 2h4.1zM311.1 209.4c-.1-.5.1-.8.6-.8h.9c.5 0 .7.2.8.7l1.5 5.4.2 1 .2-1 1.5-5.4c.1-.4.4-.6.8-.6h.7c.5 0 .7.2.8.6l1.5 5.4.2 1 .2-1 1.5-5.4c.1-.5.4-.7.8-.7h.8c.5 0 .8.3.6.8l-2.4 7.7c-.1.4-.4.6-.8.6h-1.2c-.5 0-.7-.2-.8-.6l-1.4-4.6-.2-1-.2 1-1.4 4.6c-.1.4-.4.6-.8.6h-1.2c-.4 0-.7-.2-.8-.6l-2.4-7.7zM330.4 205.8c-.1-.5.1-.8.6-.8h.9c.4 0 .7.2.8.7l1.9 8.2c.2.7.2 1.4.2 1.4s.1-.6.3-1.4l2.1-8.2c.1-.4.4-.6.8-.6h.6c.5 0 .7.2.8.6l2.1 8.2c.2.7.3 1.4.3 1.4s.1-.6.2-1.4l2-8.2c.1-.5.4-.7.8-.7h.8c.5 0 .8.3.7.8l-2.9 11.3c-.1.4-.4.6-.8.6h-1.3c-.5 0-.7-.2-.8-.6l-1.8-6.9c-.2-.8-.3-1.7-.3-1.7h-.1s-.1.8-.3 1.7l-1.8 6.9c-.1.4-.4.6-.8.6h-1.3c-.5 0-.7-.2-.8-.6l-2.9-11.3zM352.3 212.1h.4v-.2c0-1.2-.8-1.6-1.7-1.6-.8 0-1.5.3-1.9.5-.5.2-.8.1-1-.3l-.2-.3c-.2-.4-.1-.8.3-1 .6-.3 1.6-.8 3-.8 2.4 0 3.8 1.3 3.8 3.7v5c0 .5-.3.8-.8.8h-.6c-.5 0-.7-.3-.7-.8v-.8s-.9 1.7-2.9 1.7c-1.7 0-3-1.1-3-2.8-.1-2.7 3.2-3.1 5.3-3.1zm-1.7 4.1c1.3 0 2.1-1.3 2.1-2.4v-.3h-.4c-1.2 0-3.1.2-3.1 1.5 0 .6.5 1.2 1.4 1.2zM357.1 219.5c.2.1.4.2.6.2.7 0 1.2-.6 1.5-1.2l.3-.8-3.5-8.2c-.2-.5 0-.9.6-.9h1c.5 0 .7.2.8.6l1.7 4.7c.2.5.3 1.2.3 1.2s.2-.7.3-1.2l1.6-4.7c.1-.4.4-.6.8-.6h.9c.6 0 .8.3.6.9l-3.8 9.7c-.6 1.7-2 2.4-3.3 2.4-.5 0-1-.1-1.3-.3-.4-.2-.5-.6-.3-1l.2-.4c.4-.4.7-.5 1-.4z"/></g><path class="st5" d="M68.6 114.9h68.5v33.8H68.6z"/><g class="st6"><path class="st0" d="m97 129.1.6-1.1c.5-.7 1.1-.8 1.8-.3.6.4 1.5.7 2.4.7 1.6 0 2.4-.8 2.4-1.7 0-1.3-1.3-1.9-3.2-1.9h-.1c-.8 0-1.2-.2-1.5-.9l-.1-.2c-.3-.6-.2-1.2.3-1.7l1.6-1.9c.8-1 1.5-1.6 1.5-1.6s-.6.1-1.6.1h-2.8c-.9 0-1.3-.5-1.3-1.3v-1c0-.9.5-1.3 1.3-1.3h8.2c.9 0 1.3.5 1.3 1.3v.4c0 .7-.2 1.1-.6 1.6l-2.9 3.3c2.5.6 4.2 2.6 4.2 5 0 2.9-2.1 5.9-6.4 5.9-2.3 0-4-.8-4.9-1.5-.5-.6-.6-1.2-.2-1.9z"/></g><path class="st8" d="M140.9 234h-36c-1.4 0-2.3-.7-2.3-1.9 0-.6.2-1.1.5-1.5.4-.4.9-.6 1.5-.6h11.8v-33c0-.4 0-.8.1-1.1.1-1 .9-1.7 2-1.7 1 0 1.8.7 1.9 1.7v34h14.7V186c0-.4 0-.8.1-1.1.2-.9 1-1.4 1.9-1.4h.3c.9.1 1.7.9 1.7 1.9V230l.7-.1c.3 0 .7-.1 1.1-.1 1.5 0 2.2.4 2.7 1.5v1c-.5 1.2-1.3 1.7-2.7 1.7z"/><path class="st9" d="M83.8 233.9c-11.7-.1-21.2-9.7-21.2-21.4.1-11.7 9.6-21.1 21.2-21.1h.1c11.7.1 21.2 9.6 21.2 21.3-.1 11.7-9.6 21.2-21.2 21.2h-.1zm.1-38.5c-9.5 0-17.2 7.7-17.2 17.2s7.7 17.3 17.2 17.3h.1c9.5 0 17.2-7.7 17.2-17.2 0-4.6-1.8-8.9-5-12.2s-7.7-5.1-12.3-5.1z"/><path class="st8" d="M100.9 193.9c-.9 0-1.7-.6-1.9-1.6-.2-.7 0-1.3.5-1.8 4.2-4.3 7.8-7.8 11.4-11.4.4-.4.9-.6 1.4-.6s1 .2 1.5.7c1 .9 1.9 1.9 2.8 2.8l1.2 1.2.5.5L132 170l-1.7-.1h-.8c-1-.1-1.8-.8-1.9-1.8-.1-1.1.5-2 1.6-2.2.2 0 .4-.1.6-.1h7c1.7 0 2.4.7 2.4 2.4v7c0 1.3-.8 2.3-2 2.3s-2-1-2-2.3v-2.4l-1.1 1-.3.3c-.2.2-.3.3-.5.4l-13.1 13.1c-.7.7-1.2 1-1.8 1-.5 0-1.1-.3-1.8-1L114 185l-1.7-1.7-.5.4-.2.2c-.2.1-.3.3-.4.4l-2.7 2.7-6 6c-.5.7-1 .9-1.6.9z"/><path class="st9" d="M83.8 226.3c-.6 0-1.6-.2-2-1.9-.1-.6-.7-.9-.9-1-2.4-1.3-3.6-3.2-3.7-5.7 0-1.2.7-2.1 1.9-2.1h.1c1.1 0 1.9.8 2 2 .1 1.5 1.2 2.5 2.6 2.5.2 0 .5 0 .7-.1 1.1-.2 1.8-1.1 1.9-2.2.1-1.1-.5-2.1-1.5-2.5s-2-.7-3-1.1c-2.9-1-4.4-2.9-4.6-5.7-.2-3 1-5.2 3.8-6.5.4-.2.7-.6.8-1.1.2-1.1.9-1.7 1.9-1.8h.1c1 0 1.7.6 1.9 1.6.2.8.6 1.1 1.1 1.4 2.3 1.2 3.5 3 3.6 5.6 0 1.3-.8 2.2-1.9 2.2h-.1c-1.1 0-1.9-.7-2-1.9-.2-1.7-1.2-2.6-2.6-2.6h-.5c-1.1.2-2 1-2.1 2.1-.2 1.2.4 2.2 1.5 2.6.7.3 1.4.5 2 .7.4.1.8.3 1.2.4 2.8 1 4.4 3.2 4.5 6s-1.2 4.8-3.8 6.1c-.4.2-.8.6-.9 1.1-.2 1.3-.9 1.9-2 1.9z"/></svg>