<svg xmlns="http://www.w3.org/2000/svg" width="25" height="20">
    <path fill-rule="evenodd" fill="#FFF" d="M21.167 15.812c.423.562-.392 1.397-.787 2.128-1.161.811-1.83 1.247-3.771 1.345-.296.33-.713.547-1.189.547a1.62 1.62 0 0 1-1.615-1.623c0-.896.723-1.622 1.615-1.622.532 0 .983.277 1.277.678.848-.083 1.488-.35 1.918-.776a2.029 2.029 0 0 0 .592-1.29c-.001-.062.023.631.033.041-.009-.269-.031-.316-.031-.372v-5.6c0-3.509-2.841-6.363-6.332-6.363-3.492 0-6.331 2.854-6.331 6.363v5.6c0 .563.384 1.018-1.013 1.018-.03 0-.055-.014-.084-.017-.029.003-.054.017-.084.017-2.467 0-4.476-1.903-4.476-4.241 0-2.13 1.67-3.882 3.83-4.182C5.544 3.697 8.886.869 12.877.869c3.991 0 7.334 2.828 8.483 6.594 1.835.3 3.504 2.052 3.504 4.182 0 2.086-1.601 3.816-3.697 4.167zM4.52 9.581c-.934.311-1.605 1.115-1.605 2.064 0 .947.671 1.75 1.605 2.061V9.581zm16.715 0v4.125c.932-.311 1.603-1.114 1.603-2.061 0-.949-.671-1.752-1.603-2.064z"/>
</svg>
