<svg xmlns="http://www.w3.org/2000/svg" width="29" height="29">
    <path fill-rule="evenodd" fill="#FFF" d="M9.813 14.222c0-2.579 2.047-4.67 4.573-4.67 2.526 0 4.574 2.091 4.574 4.67 0 2.578-2.048 4.668-4.574 4.668s-4.573-2.09-4.573-4.668m-2.473 0c0 3.971 3.155 7.191 7.046 7.191 3.891 0 7.046-3.22 7.046-7.191 0-3.973-3.155-6.922-7.046-6.922-3.891 0-7.046 2.949-7.046 6.922m13.3-7.478c0 .928.161 1.682 1.07 1.682s1.647-.754 1.647-1.682c0-.928-.736-1.104-1.647-1.104-.909 0-1.07.176-1.07 1.104M8.842 25.622c-1.338-.062-2.064-.29-2.548-.482-.544-.485-2.133-1.417-2.604-2.657-.816-2.136-.545-12.281-.473-13.922.072-1.608.39-3.077 1.499-4.212 2.164-1.4 3.145-2.086 15.215-1.529 1.575.073 3.014.397 4.639 1.529.859 1.401 1.539 3.229.985 15.533-.061 1.365-.285 2.107.275 2.601-1.989 3.256-4.845 3.709-16.988 3.139M8.729.3C6.485.404 4.538.965 2.968 2.566 1.392 4.175.85 6.175.748 8.447c-.064 1.42-.433 12.138.637 14.949.722 1.897 2.144 3.354 4.013 4.096.874.346 1.87 1.248 3.331.65 12.218.567 16.747.258 18.657-4.746.339-.891.572-1.909.844-3.4.351-12.536-.298-15.253-2.427-17.43C24.114.842 22.128.33 8.729.3"/>
</svg>
