<svg xmlns="http://www.w3.org/2000/svg" width="29" height="29">
    <path fill-rule="evenodd" fill="#FFF" d="M26.25.406H3.356a2.509 2.509 0 0 0-2.509 2.51v22.668c0 1.386 1.123 3.356 2.509 3.356H26.25c1.162 0 2.285-1.97 2.285-3.356V2.916c0-1.387-1.123-2.51-2.285-2.51zM10.1 5.784c1.11 0 1.692.721 1.692 1.667 0 .945-.582 1.666-1.692 1.666-.92 0-1.691-.721-1.691-1.666 0-.946.771-1.667 1.691-1.667zm11.316 15.944c-2.212 0-2.932-1.228-1.886-3.008l.344-3.584c.385-1.253-.041-2.412-1.368-2.412-1.169 0-1.941.642-2.338 2.259l-1.592 6.189H11.79l.5-1.81c-.819 1.345-1.956 2.276-3.359 2.276-2.159 0-1.941-1.514-2.338-3.438l1.268-5.334H5.897l.596-1.896h4.727l-1.866 6.808c-.22.835-.402 1.856.423 2.042.222.05 1.989.053 2.951-2.086l1.226-4.868h-1.99l.597-1.896h4.253l-.546 1.908c.872-1.393 2.238-2.577 3.706-2.577 2.39 0 3.391 2.458 2.587 5.175l-.797 2.877c-.491 1.975.94 2.238 1.841.587l1.094-.422c-.169 2.264-1.815 3.21-3.283 3.21z"/>
</svg>
