<svg xmlns="http://www.w3.org/2000/svg" width="142" height="63">
    <path fill-rule="evenodd" fill="#FFF" d="M139.616 30.84c1.23.303 1.948 1.708 2.153 3.461 0 .111-.355.565-1.065 1.363-.709.797-1.104 1.539-2.804 2.225-1.159.688-2.488 1.031-3.987 1.031s-2.722-.402-3.668-1.208c-.947-.806-1.42-2.179-1.42-4.122 0-1.17.063-3.616.315-6.206 0-2.59.126-4.675.253-6.254-.41-.458-.915-.688-1.515-.688-.552.71-1.364 2.127-2.437 4.254-1.073 2.127-1.83 3.718-2.271 4.774a4.447 4.447 0 0 0-.048.638c0 .79.119 1.852.355 3.186.237 1.335 1.023 2.579.875 3.966.338.303-.867.87-1.75 1.115-.884.363-1.973.545-3.266.545-1.168 0-2.103-.094-2.804-.283-.702-.19-1.195-.392-1.012-.327-.751-.491-.893-.621-.893-.669-.016-.142-.056-.517-.119-1.125s-.126-.966-.189-2.559a66.27 66.27 0 0 1-.094-3.755l-.024-6.722c0-7.76.141-12.798.426-15.545l-2.675-.474c-.378-.661-.567-3.017-.567-4.691.236-.301 1.245.21 1.325-1.114.647-.442 1.4-.828 2.26-1.16.86-.332 1.716-.396 2.567-.396 1.941 0 3.385.396 4.331 1.39.946.996 1.42 2.61 1.42 5.14 0 .334-.079 1.782.222 3.78-.617 1.998-.845 4.137-1.145 6.419.285 2.283-.647 4.316-1.041 6.101 0 .31.055.181.166.26a.594.594 0 0 0 .354.119c.142 0 .966-.055.284-.165.631-2.513 1.262-4.612 2.092-6.303.432-1.689 1.387-3.189 2.665-4.5 1.277-1.051 2.934-1.967 4.969-1.967 2.524 0 4.339.77 5.443 2.31 1.104 1.539 1.656 3.479 1.656 5.816 0 2.084-.245 4.094-.733 6.029a74.75 74.75 0 0 1-1.822 6.053c.031-.079-.079.229.262.924l-.547.047 3.503-.713zm-30.906-9.356c-.347 1.28-.39 2.101-.993 2.465-.521.268-1.365.402-2.532.402-.568 0-.345-.043-1.597-.13.312-.087-.873-.021-1.124-.345l-.498-4.38c-.236-.269-.777.404-1.621-.653-.844-.165-1.62-.248-2.195-.248a4.47 4.47 0 0 0-.751.046c-.039.744-.639 1.692-.828 2.843a22.277 22.277 0 0 0-.284 3.666c0 1.602.284 3.074.852 4.283.568 1.208 1.727 1.812 3.478 1.812.868 0 1.724-.143 2.568-.427 1.105-.284 2.785-.718 3.206-1.302.537-.253.939.294 1.207-.545.631.631 1.128 1.295 2.292 1.99-.438.695-.202 1.587-.091 2.677-1.01 1.184-2.425 2.361-4.247 3.53-1.823 1.168-3.949 1.752-6.378 1.752-2.588 0-4.8-.628-6.638-1.55-1.838-1.589-3.226-2.62-4.165-5.45-.938-2.156-1.408-4.569-1.408-7.237 0-2.733.458-5.173 1.373-7.32.915-2.148 2.331-3.85 4.247-5.105 1.917-1.058 4.311-1.884 7.183-1.884.977 0 2.102.059 3.372.177 1.269.119 2.488.297 3.656 1.299l.473-.433c.71.49 1.234.88 1.573 1.172.34.293.699.698 1.077 1.22 0 .854-.115 2.026-.343 3.518-.229 1.492.006 2.879-.864 4.157zM78.196 37.6c-1.917.701-4.263 1.32-7.04 1.32-4.291 0-7.399-1.322-9.324-3.967-1.924-2.646-2.887-6.148-2.887-10.507 0-2.858.457-5.338 1.372-6.746.916-2.792 2.32-4.424 4.213-5.584 1.893-1.161 4.267-1.742 7.123-1.742 3.155 0 5.632.589 8.177 1.765 1.051 1.177 2.31 2.808 3.028 5.181.717 1.795 1.076 4.347 1.076 7.363 0 2.732-.477 5.169-1.431 7.308-.955 2.14-2.39 3.831-4.307 5.609zm-3.727-15.702c-.158-1.08.431-1.93-.663-2.545-.174-.205-.52-.359-1.041-.462a9.83 9.83 0 0 0-1.155-.154c-1.353 0-1.906.087-2.205.26-.79 1.359-1.184 3.245-1.184 5.662 0 1.137.087 2.298.261 3.482.173 1.185.394 2.259.662 3.222.19.206.576.359 1.16.462.583.103 1.191.154 1.822.154.805 0 1.294-.063 1.467-.189.363-.632.639-1.524.829-2.678.189-1.152.283-2.4.283-3.742 0-1.231-.078-2.389-.236-3.472zM50.36 37.6c-2.241.701-4.588 1.32-7.364 1.32-4.292 0-7.399-1.322-9.324-3.967-1.925-2.646-2.887-6.148-2.887-10.507 0-2.858.457-5.338 1.372-6.746 1.563-2.792 2.32-4.424 4.213-5.584 1.893-1.161 4.267-1.742 7.123-1.742 3.155 0 5.632.589 7.43 1.765 1.799 1.177 3.057 2.808 3.775 5.181.717 1.795 1.076 4.347 1.076 7.363 0 2.732-.477 5.169-1.431 7.308-.955 2.14-2.39 3.831-3.983 5.609zm-4.051-15.702c-.158-1.08-.379-1.93-.663-2.545-.174-.205-.52-.359-1.041-.462.235-.103-1.089-.154-1.704-.154.069 0-1.357.087-1.656.26-.789 1.359-.635 3.245-.635 5.662 0 1.137-.462 2.298-.289 3.482.174 1.185.395 2.259.663 3.222.19.206.576.359 1.16.462.583.103 1.191.154 1.822.154.805 0 1.293-.063 1.467-.189.363-.632 1.287-1.524.829-2.678.189-1.152.283-2.4.283-3.742a24.23 24.23 0 0 0-.236-3.472zM25.958 32.103c-.616 2.099-1.638 3.759-3.065 5.747-1.428.459-3.207 1.07-5.336 1.07-.773 0-1.676-.123-2.71-.367-1.033-.244-2.339-.667-3.916-1.267l-.947 4.377H14.551c.3 1.097 1.199.912.675 1.501.15.588.28 1.263.39 2.026l.071.459c0 .063-.347 1.051-1.041.888-.694 1.113-1.356 1.018-2.768 1.963-1.152-.045-2.477.18-3.976.18-3.392 0-5.088-1.808-5.088-5.424v-1.635c0-4.817.036-9.109.107-12.875.07-3.767.224-7.168.461-10.199l-2.579-.426c-.331-.171-.549-1.943-.651-2.748C.49 14.567.1 13.525.1 12.245c.15-.005.561-.477 1.129-.769.567-.293 1.246-.549 2.035-.77 1.256-.221 1.601-.332 2.437-.332 1.909 0 3.262.412 4.058 1.233.797.82 1.196 2.052 1.196 3.694 0 .917-.135 2.156-.403 3.909-.441 2.323-.662 3.641-.662 3.767 0 .593.055.154.66.225-.385.071-.266.107-.14.107.142 0 .237-.055.284-.165l.237-.948.52-2.014c.773-2.922 1.925-5.287 3.455-6.312 1.531-2.591 3.455-3.496 5.774-3.496 1.736 0 3.151.375 4.248 1.125 1.322.749 1.889 1.736 2.378 2.958.489 1.224 1.094 2.803 1.094 4.035 0 1.99-.549 4.218-.928 6.688.468 2.47-.884 4.777-1.514 6.923zm-7.763-10.975c-.362-.457-.883-.686-1.561-.686-.221.19-.978 1.438-2.272 3.742-.682 2.304-2.247 4.075-2.863 5.31v1.119c.867.592 1.869 1.077 3.005 2.097 1.136-.257 2.004-.068 2.603-.068.142 0 .261-.016.355-.047.838-2.127.852-5.351.852-9.671 0-.74-.039-1.338-.119-1.796zM90.94 45.819h6.867c.847 0 1.294.446 1.294 1.294v1.427c0 .362-.447.809-1.294.809h-4.891v3.532h3.834c.845 0 1.67.446 1.67 1.294v.941c0 .849-.825 1.296-1.67 1.296h-3.834v4.943c0 .848-.447 1.295-1.293 1.295h-.683c-1.693 0-2.139-.447-2.139-1.295V47.113c0-.848.446-1.294 2.139-1.294zm15.379 4.425c3.833 0 6.89 2.565 6.89 6.38 0 3.79-3.057 6.309-6.866 6.309-3.81 0-6.867-2.519-6.867-6.309 0-3.815 3.057-6.38 6.843-6.38zm.024 9.299c1.481 0 3.597-1.106 3.597-2.919 0-1.836-2.116-2.99-3.597-2.99-1.482 0-2.752 1.154-2.752 2.99 0 1.813 1.27 2.919 2.752 2.919zm9.828-13.724h1.482c.846 0 1.293.446 1.293 1.294v10.876c0 .917.306 1.154.682 1.201.565.071.94.399.94 1.106v1.154c0 .8-.375 1.319-1.316 1.319-2.093 0-4.374-.519-4.374-4.591V47.113c0-.848.447-1.294 1.293-1.294zm8.701 3.177h-1.389c-.846 0-1.292-.447-1.292-1.295v-.588c0-.848.446-1.294 1.292-1.294h1.389c.846 0 1.293.446 1.293 1.294v.588c0 .848-.447 1.295-1.293 1.295zm-1.435 1.531h1.481c.847 0 1.294.447 1.294 1.293v9.535c0 .848-.447 1.295-1.294 1.295h-1.481c-.847 0-1.294-.447-1.294-1.295V51.82c0-.846.447-1.293 1.294-1.293zm11.334-.283c3.833 0 6.89 2.565 6.89 6.38 0 3.79-3.057 6.309-6.867 6.309-3.809 0-6.867-2.519-6.867-6.309 0-3.815 3.058-6.38 6.844-6.38zm.023 9.299c1.481 0 2.752-1.106 2.752-2.919 0-1.836-1.271-2.99-2.752-2.99-1.481 0-2.364 1.154-2.364 2.99 0 1.813.883 2.919 2.364 2.919z"/>
</svg>
