<?xml version="1.0" encoding="utf-8"?>
<!-- Generator: Adobe Illustrator 26.2.1, SVG Export Plug-In . SVG Version: 6.00 Build 0)  -->
<svg version="1.1" id="Layer_1" xmlns="http://www.w3.org/2000/svg" xmlns:xlink="http://www.w3.org/1999/xlink" x="0px" y="0px"
	 viewBox="0 0 1440 100" style="enable-background:new 0 0 1440 100;" xml:space="preserve">
<style type="text/css">
	.st0{fill:#0A7997;}
	.st1{fill:none;stroke:#3093AD;stroke-miterlimit:10;}
</style>
<path class="st0" d="M29.6,75h1380.9c14.9,0,27.2,10.8,29.5,25h0V0H0v100h0.2C2.5,85.8,14.7,75,29.6,75z"/>
<path class="st1" d="M394.8,1.1c-6.4,8.1-12.3,16.9-19.3,24.5c-28.9,31.6-80,40-117.5,19.4c-17.9-9.8-31.9-25.9-40.4-44.4"/>
<path class="st1" d="M569.8,73.8c0.5-14,5.4-28,14.7-38.6c18-20.7,50.6-26.8,74.9-14.2c14.3,7.4,25.7,20.4,41.3,24.4
	c12.3,3.2,25.2,0.3,37.8-1.1c12.6-1.4,26.7-0.8,36.1,7.8c6.4,5.8,9.2,14,10.1,22.8"/>
<path class="st1" d="M1010.6,74.1c4.9-1.9,10-3.3,15.2-4.1c12.9-2,26.7-0.9,38.1-7.1c13-7.1,19.6-21.7,29.4-32.9
	c20.3-23.2,56.9-30.2,84.3-16c22,11.4,36.3,35.5,37.3,60.1"/>
</svg>
