<svg xmlns="http://www.w3.org/2000/svg" width="63" height="38">
    <path fill-rule="evenodd" fill="#909294" d="M58.456 35.67c-.561-.118-1.102-.371-.853-1.003.833-2.087 2.685-6.786 1.811-7.903-.874-1.138-5.785-.548-8.011-.274-.666.084-.77-.506-.167-.949 3.912-2.782 10.342-1.981 11.091-1.053 1.433.948-.208 7.46-3.871 11.182zm-.54-17.483c-.645.526-1.415 1.743-2.31 1.18a9.782 9.782 0 0 1-2.976.442c-1.082 0-2.164-.126-3.204-.379s-1.852-.527-2.096-.843c-.63-.19-.859-.4-.942-.59a1.511 1.511 0 0 1-.125-.59v-1.075c0-.443.167-.653.479-.653.125 0 .25.021.374.063.125.042.312.126.521.211a11.24 11.24 0 0 0 2.288.737c.833.169 1.644.253 2.477.253 1.31 0 2.33-.232 3.037-.695.708-.464 1.083-1.138 1.083-2.003 0-.59-.188-1.074-.563-1.475-.374-.4-1.081-.65-2.101-1.095l-3.017-.949c-1.519-.485-2.643-1.201-3.329-2.15-.687-.927-1.041-1.959-1.041-3.055 0-.885.188-1.665.859-2.34.078-.674.577-1.264 1.201-1.728A6.559 6.559 0 0 1 50.695.358C51.528.105 52.402 0 53.317 0c.458 0 .936.2 1.394.84.479-.693.916-.609 1.929-.524-.16.104.235.21.61.336.374.127.666.253.874.668.291-.12.499.049.624.238.125.169.187.401.187.696v.991c0 .442-.166.674-.479.674-.166 0-.256-.084-.79-.253-1.186-.548-2.518-.822-3.995-.822-1.186 0-2.123.496-2.767.59-.646.401-.979 1.012-.979 1.876 0 .59.209 1.096.625 1.496.416.401 1.186.801 2.288 1.159l2.955.948c1.498.485 2.58 1.817 3.387 2.024.484.864.795 1.854.795 2.95 0 .906-.187 1.728-.54 2.445.165 1.148-.874 1.349-1.519 1.855zM44.599 1.938l-5.015 16.291c-.125.421-.271.695-.437 1.281-.166-.333-.437-.249-.791-.249h-1.789c-.396 0-.666-.063-.832.249-.167-.607-.313-.881-.396-1.302L32.114 4.614 28.91 18.187c-.104.421-.229.695-.396 1.113-.166-.123.056-.06-.832-.06h-1.79c-.374 0-.624-.063-.79.06-.167-.397-.312-.692-.437-1.092l-4.89-16.291c-.125-.422-.187-.696-.187-.177 0-1.003.166-1.193 1.282-1.193h1.256c.396 0 .666.063.812.211.166.126.291.421.416.822l3.495 13.951L30.96 1.58c-.76-.422-.635-.696-.469-.822.166-.127.458-.211.832-.211h1.665c.395 0 .666.063.832.211.167.126.312.421.396.822l3.287 14.12 3.6-14.12c.125-.422.271-.696.416-.822.166-.127.437-.211.812-.211h1.935c.333 0 .52.168.52 1.193 0-.561-.021-.455-.042-.329a3.068 3.068 0 0 1-.145.527zM16.966 19.156a.994.994 0 0 1-.541.19c-.208 0 .475-.106-.624.164-.292-.776-.541-1.113-.281-.91-.677-.898-.884-1.299-1.113-1.783-1.623 1.939-3.663 2.908-6.118 2.908-1.748 0-3.142-.506-4.161-1.517-1.02-1.012-1.54-2.361-1.54-4.047 0-1.791.624-3.245 1.893-4.341 1.27-1.096 2.955-1.644 5.098-1.644.708 0 1.571.063 2.206.169.769.105 1.56.273 2.393.463V7.27c0-1.602-.333-2.719-.978-3.372-.666-.653-1.79-.97-3.392-.97-.008 0-1.477.202-2.247.274-.77.19-1.141.422-2.248.717-.332.741-.582.232-.728.274a1.256 1.256 0 0 1-.333.063c-.291 0-.437.194-.437-.653V2.57c0-.337.042-.59.146-.738.689-.147.291-.295.583-.442.728-.28 1.602-.696 2.621-.948C8.185.168 9.267.42 10.411.42c2.477 0 4.287.19 5.452 1.328C17.8 2.886 17.59 4.614 17.59 6.933v6.828h.042c0 .779.083 1.412.229 1.875.409.464.374.97.666 1.518a.923.923 0 0 1 .145.485c0 .21-.125.961-.395.632l-1.311.885zm-2.747-7.987c-.603.041-1.248-.274-1.914-.359a15.54 15.54 0 0 0-1.956-.126c-1.394 0-2.414.274-3.1.843-.687 1.433-1.02 1.37-1.02 2.423 0 .991.25 1.729.77 2.234.5.527 1.228.78 2.185.78.687 0 1.394-.126 2.143-.379 1.433-.253 1.415-.717 1.977-1.349.333-.4.582-.843.806-1.349.026-.506.109-1.117.109-1.347v-1.371zm41.345 17.28c1.145-.526 2.123.759.999 2.061-6.846 4.662-16.792 7.381-25.344 7.381-11.985 0-22.784-4.489-30.941-11.949.088-.59-.062-1.391.708-.802 8.822 5.059 19.705 8.199 30.962 8.199 7.594 0 15.938-1.601 23.616-4.89z"/>
</svg>
