<svg xmlns="http://www.w3.org/2000/svg" width="116" height="33">
    <path fill-rule="evenodd" fill="#909294" d="m109.981 23.371-.001-1.151h5.561v1.151h-5.56zm-2.587-.522v.522h-5.56V22.22h3.406c-1.109-1.62.316-5.364-1.024-5.364-1.88 0-5.483 3.905-7.571 5.364h2.6v1.151h-5.56V22.22h.961c-.095-.02-.149-.452-.149-.758 0-.847 1.806-2.895 2.903-3.8l-.405.001c-.035-.305-3.101 1.82-3.101 1.221 0-2.43 3.714-4.33 4.405-4.33.922.088 1.667.79 1.807 1.703.754.461-.16.908-.405 1.299.691-.403 3.714-3.099 5.817-3.099 2.262 0 1.807 1.404 1.807 2.901 0 1.497-1.106 3.8 0 3.8 1.313 0 4.384-3.701 4.621-3.701.405 0 .721.522.721.827 0 1.53-3.54 4.026-5.273 4.565zm-14.459 1.042c0 .71-1.462.04-2.36-.058-2.057 4.626-7.475 9.162-9.105 9.162-1.109 0-1.71-1.102-1.71-2.204 0-2.132 3.68-6.112 5.78-7.919v-.652h1.052c.37.15.701-.287.969-.287.577-.004 1.152.267 1.709.217 1.093-1.454 1.836-3.03 2.172-4.922-.988.719-6.19 4.922-7.9 4.922-.8 0-1.402-.68-1.304-1.801-.498.626-2.123 1.335-2.924 1.871h3.637v1.151h-5.56v-.111c-.947-.332-1.583-1.476-1.583-2.331 0-.589.889-2.579.791-4.99-.664.662-5.287 3.692-10.21 6.281h.259v1.151H64.11c-3.258 1.577-6.404 2.774-8.378 2.774-.801 0-1.511.097-1.511-.905 0-.34 1.549-.996 3.58-1.869H52.94V22.22h5.56v1.48c3.902-2.317 9.062-4.711 9.062-7.257 0-3.073-12.444-2.706-12.444-6.507 0-2.596 8.76-9.3 16.156-9.3 2.865 0 6.42.847 6.42 4.922l.006.063c.065.895.2 1.672-1.507 1.737-.602 0-.323-.098-.323-.698 0-.07.88-.8.88-1.398 0-1.595-5.286-1.901-5.987-1.901-5.007 0-13.549 4.173-13.549 6.594 0 2.717 13.657.867 13.657 5.669a6.018 6.018 0 0 1-.908 2.696c2.697-.863 6.815-4.801 8.847-4.801-.056 0 .782.965.782 1.9 0 1.407-2.618 5-.908 5 1.501 0 8.622-7.5 13.036-7.5 1.91 0 2.588.718 2.588 2.681-.738 2.023-1.787 4.544-3.124 6.914.767.197 1.751.667 1.751 1.377zm-8.937-3.364c.603.602 6.626-3.098 7.328-5.205-1.838.418-7.929 4.606-7.328 5.205zm-2.044 10.076c.989-.001 5.581-4.777 6.667-7.195-1.866 0-7.239 4.092-7.239 6.21 0 .826.217.984.572.985zM81.47 9.216c-.692 0-1.254-.56-1.254-1.249 0-.691.562-1.25 1.254-1.25s1.254.56 1.254 1.25c0 .689-.562 1.249-1.254 1.249zM48.626 21.661a3.677 3.677 0 0 1-3.318 1.821c-3.566 0-3.398-2.333-3.398-5.364v-6.201h2.696v5.58c0 1.249-.008 2.953 1.818 2.953 1.825 0 2.103-1.13 2.103-2.894v-5.639h3.903v11.279h-3.804v-1.535zM36.44 20.333c.275-.019.902-.336 1.312-.865l2.878 2.418c-1.663 1.017-3.118 1.561-4.48 1.515-3.642 0-6.446-1.721-6.446-5.905 0-3.572 2.795-5.905 6.446-5.905 1.347-.045 2.785 1.219 4.13 2.179l-2.528 1.692c-.403-.539-1.035-.859-1.312-.866-.522-.008-.648-.006-.773.004-1.463.122-2.55 1.6-2.427 2.859a2.5 2.5 0 0 0-.006.387c.086 1.46 1.344 2.574 3.206 2.487zm4.19-7.226c-.11.853-.24.773-.35.663l.35-.37v-.293zM22.387 23.43c-3.507 0-5.627-2.283-5.627-5.905 0-3.572 2.111-5.905 5.627-5.905 3.516 0 6.32 2.333 6.32 5.905 0 4.445-2.814 5.905-6.32 5.905zm2.808-6.28a2.654 2.654 0 0 0-2.808-2.489h-.277c.79.001.59.001.29.001-1.858.124-2.943 2.008-2.819 2.863h.001a2.654 2.654 0 0 0 2.805 2.874 2.662 2.662 0 0 0 2.804-2.874c.01-.125.012-.25.004-.375zM5.924 23.194H0V6.689h5.431c5.343 0 9.806 2.263 9.806 8.297 0 5.334-4.374 8.208-9.313 8.208zM5.806 10.44H3.644v9.406h1.925c3.378 0 5.926-1.289 5.926-5.039 0-3.248-2.607-4.367-5.689-4.367zm69 12.931h-5.56V22.22h5.56v1.151z"/>
</svg>
