<svg xmlns="http://www.w3.org/2000/svg" width="39" height="39">
    <path fill-rule="evenodd" fill="#475993" d="M38.986 4.971V34.51c-.03-.35-.075-.244-.087-.134-.248 2.173-1.659 3.978-4.017 4.451-.281.062-.563.115-.512.173h-8.936l.018-13.662c0-.071.024-.143.04-.227.131-.006.243.849.356.849 1.408-.01 2.816.01 4.872-.02-.01-.01.39-1.084 1.24-1.721-.676-1.417-.5-2.837-.347-4.258.079-.733-.316-1.134-1.076-1.137a412.392 412.392 0 0 0-4.719.003c-.294.002-.403-.085-.398-.388.019-1.268.004-2.537.032-3.805.031-1.376.684-2.126 2.057-2.263.943-.093 1.899-.054 2.85-.072 1.291-.014 1.083-.343 1.094-1.031.018-.378.018-2.359-.001-3.539-.011.261-.344-1.009-.956-1.005-1.697.013-2.616-.05-5.088.144-3.679.425-5.834 3.104-6.074 6.64-.11 1.617-.069 3.245-.073 4.868-.001.339-.082.462-.441.454-.963-.024-1.928-.01-2.892-.007-.456.002-.408.113-1.051.587-.081.217-.081.473-.081.712.004 1.319.018 2.638.03 4.668.006-.024.337 1.13 1.036 1.15.939.03 1.878-.04 2.816.03.593-.869.602-1.007.601-.289-.008 3.552-.017 7.104-.022 10.655-.002.888.006 1.776.01 2.664H4.954c-.221-.044-.443-.086-.663-.133-2.559-.54-3.931-2.61-3.951-5.243C.27 24.21.3 14.796.36 5.383c0-.213.37-.738-.211-1.095C.689 1.74 2.749.69 5.365.51 6.799.41 8.232.49 9.666.49c7.956 0 15.911-.02 23.867.01 2.696.01 4.772 1.217 5.32 3.807.047.221.088.443.133.664z"/>
</svg>
