<svg xmlns="http://www.w3.org/2000/svg" width="25" height="20">
    <path fill-rule="evenodd" fill="#077997" d="M21.167 15.813c.423.562-.391 1.397-.787 2.128-1.161.811-1.83 1.247-3.771 1.345-.296.33-.713.547-1.189.547a1.618 1.618 0 0 1-1.614-1.623c0-.896.722-1.623 1.614-1.623.533 0 .983.278 1.277.678.848-.082 1.488-.349 1.918-.775.576-.57.592-1.283.592-1.29-.001-.062.023.64.033.05-.008-.278-.031-.325-.031-.381v-5.6c0-3.509-2.841-6.363-6.331-6.363-3.493 0-6.332 2.854-6.332 6.363v5.6c0 .563.384 1.018-1.013 1.018-.03 0-.055-.014-.084-.017-.029.003-.054.017-.084.017-2.467 0-4.475-1.903-4.475-4.242 0-2.129 1.669-3.881 3.829-4.181C5.544 3.698 8.886.87 12.878.87c3.991 0 7.333 2.828 8.482 6.594 1.835.3 3.504 2.052 3.504 4.181 0 2.087-1.601 3.817-3.697 4.168zM4.52 9.582c-.934.311-1.605 1.115-1.605 2.063 0 .948.671 1.751 1.605 2.062V9.582zm16.715 0v4.125c.933-.311 1.603-1.114 1.603-2.062 0-.948-.67-1.751-1.603-2.063z"/>
</svg>
