<svg xmlns="http://www.w3.org/2000/svg" width="20" height="25">
    <path fill-rule="evenodd" fill="#666" d="M18.534 24.95H1.631c.019 0-1.025-.443-1.025-.991V2.911c0-.547 1.044-.99 1.025-.99h3.155a2.187 2.187 0 0 1 1.839-.99h6.915c.776 0 1.453.397 1.839.99h3.155c.566 0 1.024.443 1.024.99v21.048c0 .548-.458.991-1.024.991zM17.509 3.902h-1.991A2.18 2.18 0 0 1 13.54 5.14H6.625a2.18 2.18 0 0 1-1.978-1.238H2.655v19.066h14.854V3.902zM5.415 8.505h1.182c.262 0 1.093.203 1.093.457v1.143c0 .253-.831.457-1.093.457H5.415a.465.465 0 0 1-.474-.457V8.962c0-.254.212-.457.474-.457zm0 3.396h1.182c.262 0 1.093.206 1.093.458v1.144c0 .251-.831.458-1.093.458H5.415a.467.467 0 0 1-.474-.458v-1.144c0-.252.212-.458.474-.458zm0 3.398h1.182c.262 0 1.093.204 1.093.458V16.9c0 .253-.831.459-1.093.459H5.415a.467.467 0 0 1-.474-.459v-1.143c0-.254.212-.458.474-.458zm3.23-5.919h6.579c.284 0 .512-.121.512.153s-.228.757-.512.757H8.645c-.281 0-.511-.483-.511-.757s.23-.153.511-.153zm0 3.056h6.579c.284 0 .512.221.512.496a.503.503 0 0 1-.512.495H8.645a.504.504 0 0 1-.511-.495c0-.275.23-.496.511-.496zm0 3.398h6.579c.284 0 .512.716.512.495a.503.503 0 0 1-.512.496H8.645a.504.504 0 0 1-.511-.496c0 .221.23-.495.511-.495z"/>
</svg>
