<svg xmlns="http://www.w3.org/2000/svg" width="89" height="27">
    <path fill-rule="evenodd" fill="#909294" d="M59.647 25.824h-2.338c-.476 0-.84-.255-.876.126l-.037-1.77c-1.681 1.354-3.69 2.083-5.809 2.083-4.091 0-5.771-2.592-5.771-6.539V8.918c0-.621.365-.148.948-.148h2.558c.585 0 .914-.511.914.148v10.038c0 2.01.512 3.397 2.704 3.397 1.386 0 3.87-.766 4.237-1.752V8.918c0-.621.33-.148 1.713-.148h1.793c.585 0 .915-.511.915.148v15.884c-.001.767-.222 1.022-.951 1.022zM.196 8.806c0-.437.22-.036.658-.036h3.09c.438 0 .694-.438.694.036v16.105c0 .658-.294.913-.913.913H1.146c-.655 0-.95-.255-.95-.913V8.806zm64.972 0c0-.437.221-.036.658-.036h3.09c.439 0 .695-.438.695.036v16.105c0 .658-.293.913-.915.913h-2.578c-.656 0-.95-.255-.95-.913V8.806zM24.22 25.824h-2.63c-.657 0-.876-.328-.876-.95v-9.937c0-2.008-.547-3.434-2.777-3.434-1.425 0-3.178.769-4.31 1.754v11.654c0 .623-.256.913-.876.913H10.83c-1.295 0-1.624-.29-1.624-.877V8.994c0-.585.257-.184.914-.184h2.373c.907 0 .842-.584.878-.036l.036.975c2.483-1.35 3.8-2.117 5.919-2.117 4.092 0 6.654 2.557 6.654 6.539v10.703c0 .622-1.101.95-1.76.95zM37.239 3.92c0-2.308-.839-3.508-2.678-3.508-.751 0-2.68 1.2-2.68 3.508 0 .652 1.929 1.85 2.68 1.85 1.839 0 2.678-1.198 2.678-1.85zm4.281 4.85c-.03 0 .226-.548.226-.073v2.573c0 .438-.292.694-.596.694h-4.369v12.947c0 .657-.292.913-.95.913h-2.542c-.657 0-.949-.256-.949-.913V11.964h-4.235c-.438 0-.73-.256-.73-.694V8.697c0-.475.255.073 1.315.073h12.83zm41.052-4.85c0-2.308-1.2-3.508-2.679-3.508-1.48 0-2.679 1.2-2.679 3.508 0 .652 1.199 1.85 2.679 1.85 1.479 0 2.679-1.198 2.679-1.85zm3.813 4.85c.437 0 1.395-.548 1.395-.073v2.573c0 .438-.994.694-1.433.694h-4.234v12.947c0 .657-.291.913-.949.913h-2.543c-.658 0-.949-.256-.949-.913l-.001-12.947h-4.233c-.439 0-.731-.256-.731-.694V8.697c0-.475.256.073.693.073h12.985zm1.157 14.802c.646 0 1.186 1.238 1.186 1.177 0 .679-.54 1.19-1.186 1.19a1.184 1.184 0 0 1-1.192-1.19c0 .061.544-1.177 1.192-1.177zm0 2.193c1.358 0 .972-.436.972-1.016 0-.566.386-1.003-.972-1.003-.553 0-.978.437-.978 1.003 0 .58.425 1.016.978 1.016zm.258-1.145h-.185c.329 0 1.375-.428 1.375-.161 0 .248-1.048.354-1.255.376l.396.61H87.9l-.376-.595h-.229v.595h.505v-.825zm-.505.056h.225c.19 0 .364-.009.364-.227 0-.184-.157-.212-.303-.212h-.285v.439h-.001z"/>
</svg>
