<svg xmlns="http://www.w3.org/2000/svg" width="120" height="54">
    <path fill-rule="evenodd" fill="#FFF" d="M118.143 25.459c1.041.895 1.648 2.084 1.822 3.811 0-.15-.301.235-.335.909-1.167.675-1.958 1.303-2.939 2.451-.982.015-2.106.305-3.375.305-.836 0-2.176-.34-3.103-1.022-.801-.682-1.103-1.223-1.103-3.488 0-1.31.54-3.06.062-5.252.106-2.191.213-3.956.32-5.292a1.655 1.655 0 0 0-1.282-.581c-.467.6-.66 2.69-2.062 3.599-.908 1.8-1.549 3.561-1.922 4.039a3.786 3.786 0 0 0-.041.541c0 .668.101 1.981.301 2.696.2 1.129.447 2.182.741 3.157-.241.455-.735.835-1.482 1.142-.748.307-.985.461-2.763.461-.988 0-1.78-.08-2.373-.24-.459-.161-1.012-.331-1.252-.511-.24.116-.36-.291-.36-.331a50.135 50.135 0 0 1-.261-3.117 56.355 56.355 0 0 1-.08-3.177l-.02-6.055c0-6.2.12-10.104.361-12.789l-2.263-.401c-.32-.464-.48-2.552-.48-3.969.2.565.573-.568 1.121-.942.547-.113 1.184-.702 1.912-.982C98.15.14 98.739 0 99.46 0c1.642 0 2.863.421 3.664 1.263.801.842 1.202 2.131 1.202 3.868 0 .763-.067 1.988-.201 3.679a105.897 105.897 0 0 1-.58 5.432 61.225 61.225 0 0 1-.881 5.162c0 .08.046.154.14.221.093.067.193.1.3.1.12 0 .201-.047.241-.14.533-2.125 1.067-3.902 1.602-5.333a10.813 10.813 0 0 1 2.423-3.808c1.081-1.109 2.482-1.664 4.204-1.664 2.136 0 3.672.651 4.606 1.954.934 1.636 1.402 2.944 1.402 4.922 0 1.764-.207 3.465-.621 5.102-.414 1.637-.631 3.344-1.542 5.122.027-.067-.067.85-.28.781l.04.04 2.964-1.242zM91.99 18.181c-.293 1.083-.574 1.778-.84 2.085-.441.228-1.155.341-1.45.341-1.174 0-.94-.037-2.044-.11-.422-.074-.738-.171-.952-.291l-.42-3.708c.546-.227-.658.362-1.372-.552a10.31 10.31 0 0 0-1.972-.21c-.187 0-.361.013-.521.04-.307.628-.541 1.43-.701 2.405-.16.976-.24 1.972-.24 2.987 0 1.47.24 2.717.721 3.739.48 1.022 1.461 1.534 2.943 1.534.734 0 1.459-.121 2.173.359.975-.961 1.618-1.328 2.965-1.823.202-.213.542-.367 1.21-.461.093.994.91 1.096.821 1.684.307.588.507 1.343.601 2.266-.342 1.002-2.053 1.998-3.594 2.986-1.543.989-3.341 1.483-5.397 1.483-2.19 0-4.062-.531-5.617-1.593-1.555-1.063-2.73-2.506-3.524-4.222-.795-1.933-1.192-3.974-1.192-6.232 0-2.312.388-4.377 1.162-6.194.774-1.818 1.972-3.258 3.594-4.32 1.622-1.063 3.647-1.594 6.077-1.594.828 0 1.779.05 2.854.15 1.074.38 2.106.251 3.094.451l.4.281c.601 1.098 1.044.745 1.331.992.288.248.591.591 1.02 1.033 0 .722-.206 1.713-.399 2.976-.193 1.264-.437 3.327-.731 3.518zM66.169 31.362c-1.622 1.049-3.607 1.573-5.957 1.573-3.631 0-6.261-1.119-7.89-3.357-1.628-2.239-2.443-5.202-2.443-8.891 0-2.418.387-4.517 1.531-6.294.405-1.777 1.89-3.158 3.195-4.14 1.602-.982 3.611-1.473 6.028-1.473 2.669 0 4.765.498 6.287 1.493 1.522.996 2.587 2.376 3.194 4.14.607 1.764 1.136 3.922 1.136 6.475 0 2.312-.629 4.373-1.436 6.832-.214 1.163-2.023 2.593-3.645 3.642zm-3.009-12.83c-.278-.915-.465-1.634-.705-2.155-.147-.173-.315.363-.881-.391a7.462 7.462 0 0 0-1.442-.13c-.681 0-1.148.074-1.402.914-.11.456-1.001 2.053-1.001 4.097 0 .963.073 1.945.22 2.948 1.011 1.002.334 1.911.561 2.726.16.174.487.304.981.391.494.258 1.008.688 1.839.688.384 0 .797.28.945-.718.307-.535.54-1.29.7-2.266.161-.975.241-2.031.241-3.167 0-1.042-.067-2.021-.056-2.937zm-20.819 12.83c-1.623 1.049-3.608 1.573-5.958 1.573-3.631 0-6.261-1.119-7.89-3.357-1.628-2.239-1.993-5.202-1.993-8.891 0-2.418-.063-4.517.712-6.294.774-1.777 1.962-3.158 3.564-4.14 1.602-.982 3.611-1.473 6.028-1.473 2.669 0 4.765.498 7.106 1.493.703.996 1.768 2.376 2.375 4.14.607 1.764.911 3.922.911 6.475 0 2.312-.404 4.373-1.211 6.832-.808 1.163-2.023 2.593-3.644 3.642zm-3.154-12.83c.343-.915-.321-1.634-.561-2.155-.147-.173-.441.363-.881-.391a7.462 7.462 0 0 0-1.442-.13c-.681 0-1.148.074-1.401.914-.668.456-1.002 2.053-1.002 4.097 0 .963.073 1.945.22 2.948.147 1.002.334 1.911.561 2.726.16.174.487.304.981.391.494.258 1.008.688 1.542.688.681 0 1.095.28 1.242-.718.307-.535.54-1.29.701-2.266.16-.975.24-2.031.24-3.167 0-1.042-.067-2.021-.2-2.937zm-17.222 8.635c-.52 1.776-1.385 3.181-2.593 4.216-1.208 1.035-2.713 1.552-4.515 1.552-.654 0-1.419-.103-2.293-.31-.874-.207-1.979-.025-3.314-1.073l-.801 3.705h3.865c.253.349.443 1.033.57 1.269.226.714.237 1.069.331 1.715l.06.388c0 .053-.294.304-.881.751-.588.448-1.144.862-1.884 1.243-.75.777-2.555.571-3.823.571-2.871 0-4.306-1.53-4.306-4.59V35.22c0-4.075.031-7.707.091-10.894.06-3.188.19-6.065.39-8.63L.68 15.335C.399 14.466.216 13.691.129 13.9.42 12.328 0 11.446 0 10.363c.212-.187.559-.403 1.4-.651.12-.247 1.54-.464 1.362-.112.667-.727 1.355-.82 2.062-.82 1.616 0 2.76.348 3.435 1.043.674.694 1.011 1.737 1.011 3.126 0 .776-.113 1.825-.34 4.021-.374 1.252-.561 2.368-.561 2.474 0 .067.046.131.14.191.093.06.193.09.3.09.121 0 .291-.047.691-.14l-.25-.802.44-.993c.654-3.183 1.629-5.185 2.924-6.04 1.295-2.205 2.924-2.97 4.886-2.97 1.468 0 2.666 1.19 4.44.952.28.634.753 1.468 1.167 2.503.414 1.035.621 2.173.621 3.415 0 1.682-.16 3.569-.481 5.659a44.84 44.84 0 0 1-1.282 5.858zm-6.568-9.287c.503-.387-.747-.58-.637-.58-.871.16-1.512 1.216-2.606 3.166-.564 1.95-1.903 3.448-2.423 4.493v.947c.734.5 1.582.912 2.543 1.234.961.322 1.695.483 2.202.483a.954.954 0 0 0 .301-.04c.48-1.8.721-4.033.721-8.183 0-.626-.034-1.133-.101-1.52zm60.84 20.892h6.527c.717 0 1.095.379 1.095 1.096v.796c0 .718-.378 1.096-1.095 1.096h-4.139v2.988h3.244c.716 0 1.094.379 1.094 1.096v.797c0 .717-.378 1.096-1.094 1.096h-3.244v4.183c0 .717-.378 1.24-1.094 1.24h-1.294c-.716 0-1.094-.523-1.094-1.24V39.868c0-.717.378-1.096 1.094-1.096zm13.729 3.745c3.244 0 5.831 2.172 5.831 5.399 0 3.207-2.587 5.339-5.81 5.339-3.224 0-5.811-2.132-5.811-5.339 0-3.227 2.587-5.399 5.79-5.399zm.021 7.869c1.253 0 2.328-.936 2.328-2.47 0-1.554-1.075-2.53-2.328-2.53-1.254 0-2.328.976-2.328 2.53 0 1.534 1.074 2.47 2.328 2.47zm8.317-11.614h1.254c.715 0 1.094.379 1.094 1.096v9.842c0 .138.259.76.577 1.16.477-.723 1.021-.444 1.021.37V52c0 .677-.544 1.115-1.339 1.115-1.771 0-3.702-.438-3.702-3.884v-9.363c0-.717.379-1.096 1.095-1.096zm7.362 2.69h-1.175c-.716 0-1.094.368-1.094-1.096v-.498c0-.717.378-1.096 1.094-1.096h1.175c.716 0 1.094.379 1.094 1.096v.498c0 1.464-.378 1.096-1.094 1.096zm-1.214 1.294h1.254c.716 0 1.094.379 1.094 1.096v8.068c0 .717-.378 1.24-1.094 1.24h-1.254c-.716 0-1.094-.523-1.094-1.24v-8.068c0-.717.378-1.096 1.094-1.096zm9.978-.239c2.856 0 5.443 2.172 5.443 5.399a5.277 5.277 0 0 1-5.243 5.339c-3.791 0-6.378-2.132-6.378-5.339 0-3.227 2.587-5.399 6.178-5.399zm.2 7.869c.686 0 1.761-.936 1.761-2.47 0-1.554-1.075-2.53-1.761-2.53-1.821 0-2.896.976-2.896 2.53 0 1.534 1.075 2.47 2.896 2.47z"/>
</svg>
