<svg xmlns="http://www.w3.org/2000/svg" width="83" height="58">
    <path fill-rule="evenodd" fill="#909294" d="M65.28 43.819c-.43 0-2.361-.12-3.49-.347-2.218 3.955-6.447 6.628-11.302 6.628-2.031 0-3.952-.468-5.664-1.303-2.249 6.053-7.491 8.997-13.598 8.997-6.362 0-11.783-4.023-13.864-9.665-.91.192-1.853.293-2.818.293C6.97 48.422.83 42.223.83 34.575c0-5.127 2.757-9.602 6.857-11.997a15.843 15.843 0 0 1-1.313-6.334C6.374 7.448 13.519.317 22.332.317c5.174 0 9.773 2.458 12.878 6.268 2.46-2.759 6.149-4.47 10.23-4.47 5.424 0 10.155 3.022 12.675 7.509a17.545 17.545 0 0 1 7.165-1.522c10.34 0 17.713 8.878 17.713 17.858 0 9.864-7.373 17.859-17.713 17.859zM18.424 28.8c0-1.334-1.182-1.819-2.29-2.169l-.144-.046c-.836-.271-1.557.215-1.557-1.056v-.028c0-.191.421-.817 1.075-.817.725 0 2.432.242 2.14.548 0 0 .165.105.224-.053.033.751.313-.84.343-.922.031-.088-.024-.154-.082.423-.634-.997-1.51-1.261-2.415-1.261l-.168.002c-.85 0-2.62.931-2.62 2.266v.028c0 1.406 1.188 1.863 2.301 2.181l.179.056c.811.248 1.51.463 1.51 1.033v.145c0 .405-.455.794-1.187.794a3.982 3.982 0 0 1-2.171-.624c-.118-.071-.186-.12-.278-.175-.048.815-.168.305.336.076l-.89.921c-.052.136.018.164.035.187.155.112.995.192.469.283 1.486.768 1.63.573 2.457.573 1.686 0 2.733-.895 2.733-2.338V28.8zm7.006-2.606c0-.955-.255-1.663-.756-1.274-.5-1.265-1.236-1.485-2.188-1.485-.358 0-.931.048-1.277.116 0 0-1.039.202-1.466 1.329 0 0-.095-.734-.044-.602l.661.905c.42.117-.167.078-.167.078s.036-.015.078-.041c.916-.497 2.075-.482 2.075-.482.515 0 .91.105 1.177.722.26-.214.392.085.392.72v.202c-.409-.06-.785-.093-.785-.093a10.028 10.028 0 0 0-.743-.022c-.408 0-.803.05-1.174.151a3.07 3.07 0 0 0-.993.46c-.29.972-.522.471-.691.785a2.291 2.291 0 0 0-.255 1.096c0 .423.072.788.219 1.087.144.301.353.552.62.745.265.193.592.334 1.717.519-.373.86.051.03.515.03.489 0 .974.85 1.446.06.468-.26 1.04-.376 1.199-.413.159-.037.334-.085.334-.085.118-.03.108-.156.108-.156l-.002-4.352zm3.091-5.513c0-.08-.057-.143-.137-.143h-1.263c.299 0-.136.063-.136.143v10.158c0 .08.435.145.136.145h1.263c.08 0 .137-.065.137-.145V20.681zm7.744 4.84c-.12.179-.416-.906-.609-1.113-.307.362-.156-.562-.904-.689a3.468 3.468 0 0 0-1.364-.277c-.595 0-1.135.1-1.573.306-.438.205-.015.486-1.097.836-.288.349-.506.764.022 1.236-.806.468-.875.979-.875 1.518 0 .549.072 1.061.945 1.519-.584.465-.352.872-.04 1.823 1.07-.272.716-.006 1.198.181.48.589 1.332.281 1.729.279 2.033-.004 2.1-.31 3.253-.476-.801-.03-.752-.08-.814-.228l-.312-.872c-.047-.128-.179-.081-.179-.081-.342.126-.824.353-1.955.351-.738-.001-1.286-.219-1.08-.56-.9-.348-1.074-.859-1.103-1.582l4.761.003s.126-.001.139-.124c.005-.051.163-.978-.142-2.05zM43.97 28.8c0-1.334-2.055-1.819-3.162-2.169l-.145-.046c-.836-.271-1.557.215-1.557-1.056v-.028c0-.191.422-.817 1.075-.817a4.86 4.86 0 0 1 2.141.548s.164.105.223-.053c.033.751.313-.84.343-.922.031-.088-.024-.154-.082.423-.634-.997-1.508-1.261-2.415-1.261l-.168.002c-1.543 0-2.62.931-2.62 2.266v.028c0 1.406 1.189 1.863 2.301 2.181l.926.056c.064.248.765.463.765 1.033v.145c0 .405-.455.794-1.188.794a3.982 3.982 0 0 1-2.171-.624c-.119-.071.234-.117-.278-.175-.03-.02-.173.375-.221.076l-.334.921c-.052.136.019.164.036.187.154.112.31.192.468.283.838.768 1.63.573 2.457.573 2.136 0 3.606-.895 3.606-2.338V28.8zm5.826-8.254a3.632 3.632 0 0 0-1.118-.162c-.861 0-1.54.244-2.017.724-.473.477-.795 1.203-.957 2.158l-.058.322h-1.081s-.132-.004-.159.139l-.178.99c-.013.094.028.153.155.153h1.053l-1.069 5.957c-.083.479-.179.874.453 1.173-.842.296-.944.517-1.07.677a4.258 4.258 0 0 1-.436.463c-.164.54-.354.8-.56.8-.115 0-.268-.2-.382-.43-.113-.21-.172-.11-.257-.541 0 0-.123-.047-.172.481-.039-.304-.319.468-.353.68-.034-.023.013.051.073.073.14.049.244.082 1.317.127-.616.062-.393.066-.184.066.438 0 .838-.062 1.169-.181.333.725.623-.331.88-.613.277-.307.452-.628.619-1.066a9.1 9.1 0 0 0 .418-1.599l1.073-6.067h1.568s.133.005.16-.139l.177-.989c.013-.095-.027-.154-.154-.154h-1.523c.007-.034.076-.398.251-1.073.075-.216.215-.388.335.185.116-.81.431-.893.398-.941a1.66 1.66 0 0 1 .511-.073c.144 0 .284.017 1.012.039-.473.031-.415.048-.377.059.155.048.175.003.207-.072l.363-1c.038-.107-.053-.153-.087-.166zm5.858 5.24c-.137-.467-.354-.878-.514-1.221-.412-.344-.776-.621-1.207-.821-.429-.2-.937-.303-1.507-.303-.571 0-1.079.103-1.509.303-.43.2-.793.477-1.08.822a3.38 3.38 0 0 0-.64 1.22c.403.465-.207.973-.207 1.511 0 .538.61 1.048.207 1.511.138.466.353.877.64 1.492.287.073.651.349 1.081.544.43.556.937.295 1.508.295.57 0 1.076.261 1.507-.295.43-.195.794-.471 1.207-.544.16-.613.377-1.025.514-1.492.138-.464.208-.973.208-1.511 0-.538-.07-1.046-.208-1.511zm5.815-2.122a4.5 4.5 0 0 0-.798-.136c.049-.036-.931.065-1.228.198-.296.133-.623 1.024-.805.594l-.001-.58c0-.08-.057-.144-.136-.144H57.28c-.08 0-.136.064-.136.144v7.099c0 .08.064.144.145.144h1.25c.08 0 .144-.064.144-.144v-3.546c0-.477.053-.952.158-.863.103-.682.999-.918.417-1.087.174-.169.372.217.589-.353.833-.068.466-.091.638-.091.25 0 1.315.065 1.315.065-.699.01-.648-.046-.617-.129.081-.217.314-.87.357-.999a.13.13 0 0 0-.071-.172zm2.46 1.776c.342-.454.865-.687 1.561-.687 1.21 0 1.023.067 1.486.213 0 0 .894.164.163-.097.125-.343.215-.586.347-.961.037-.107-.054-.152-.088-.165a5.4 5.4 0 0 0-.939-.238 7.14 7.14 0 0 0-1.055-.07c-.59 0-1.117.101-1.567.302-.451.199-.237.475-1.134.819-.302.344-.532.756-.513 1.221-.324.465-.4.974-.4 1.515 0 1.166.314 2.108.936 3.608.623-.116 1.557.235 2.777.235.721 0 1.46-.146 1.992-.355 0 0 .102-.05.057-.168l-.345-.953c-.046-.137.063-.084.063-.084-.447.078-.664.149-.898.185a4.835 4.835 0 0 1-.77.056c-.68 0-1.222-.203-1.61-.602-.387-.401-.606-1.048-.604-1.923.003-.795.195-1.394.541-1.851zm10.475.081c-.119.179-.415-.906-.608-1.113-.307.362-.608-.562-.905-.689-.387-.167-.511-.277-1.364-.277-.594 0-1.134.1-1.572.306a3.121 3.121 0 0 0-1.097.836 3.462 3.462 0 0 0-.645 1.236c.537.468.187.979.187 1.518 0 .549.37 1.061-.18 1.519.146.465.377.872.69 1.823.314-.272.716-.006 1.198.181.479.589 1.061.281 1.729.279 1.376-.004 2.1-.31 2.399-.476.052-.03.102-.08.041-.228l-.313-.872c-.047-.128-.179-.081-.179-.081-.342.126-.825.353-1.955.351.08-.001-1.286-.219-1.629-.56-.352-.348-.525-.859-.554-1.582l4.761.003s.126-.001.139-.124c.005-.051.163-.978-.143-2.05zm-3.864-.127c-.195-.446.249-.692.874-.692.986 0 1.038.246 1.335.692.197.294.571 1.396.901 1.124l-3.982-.002c.068.114.192-.829.872-1.122zm-18.114 4.484c-.625 0-1.071-.22-.796-.669-.863-.454-1.013-1.097-1.013-1.912 0-.813.15-1.455 1.003-1.904-.265-.445.181-.66.806-.66 1.084 0 1.072.215 1.37.66 1.154.449.451 1.091.451 1.904 0 .815.703 1.458-.451 1.912-.298.449-.286.669-1.37.669zm-20.513-4.484c.293-.446.736-.692 1.362-.692.625 0 1.038.246 1.335.692.196.294.281 1.396.315 1.124l-3.396-.002c.067.114.192-.829.384-1.122zm-10.678 4.239c.245-.149-.005-.186-.274-.282-.096-.147-.144-.354-.144-.62 0-.417.139-.611.425-.92-.002 0 .411-.358 1.382-.345.682.009 1.293.11 1.293.11v2.164s-.605.13-1.286.17c-.969.06-1.399-.278-1.396-.277z"/>
</svg>
