<svg xmlns="http://www.w3.org/2000/svg" width="26" height="16">
    <path fill-rule="evenodd" fill="#077997" d="m22.628 12.191-.483.064-.345-.345-.658-.748-1.315 1.502-1.314-1.501-.906 1.033-.483.043h-2.29c-1.337 2.274-3.554 3.712-6.456 3.712-4.131 0-7.492-3.369-7.492-7.509 0-4.141 3.361-7.51 7.492-7.51 2.902 0 5.119 1.439 6.456 3.713h7.291a3.795 3.795 0 0 1 3.785 3.797 3.796 3.796 0 0 1-3.282 3.749zm-.503-5.565h-8.506l-.269.004c-.914-2.481-2.865-3.717-4.972-3.717-3.042 0-5.516 2.48-5.516 5.529s2.474 5.529 5.516 5.529a5.544 5.544 0 0 0 4.972-3.151l.269-.562h3.057l1.837-2.096 1.314 1.5 1.314-1.5 1.696 2.818c.65-1.161 1.097-1.807 1.097-2.538a1.815 1.815 0 0 0-1.809-1.816zM6.524 9.844a1.4 1.4 0 0 1-1.399-1.402c0-.775.625-1.052 1.399-1.052.773 0 1.399.277 1.399 1.052a1.4 1.4 0 0 1-1.399 1.402z"/>
</svg>
