<svg xmlns="http://www.w3.org/2000/svg" width="84" height="35">
    <path fill-rule="evenodd" fill="#909294" d="M5.894 13.635c0-.905.745-1.254 1.98-1.254 1.771 0 4.008.534 5.779 1.487V8.409C11.719 7.642 9.808 7.34 7.874 7.34 3.145 7.34 0 9.803 0 13.914c0 6.412 8.853 5.39 8.853 8.766 0 .457-.932.805-2.237.805-1.934 0-4.403-.79-6.36-1.858v5.529c2.166 1.694 4.357 1.324 6.36 1.324 4.846 0 8.178-1.61 8.178-6.551-.023-6.329-8.9-5.692-8.9-8.294zm15.75-10.941-5.685 1.208-.023 18.608c0 3.438 2.586 5.97 6.034 5.97a12.99 12.99 0 0 0 4.5-.767v-4.715c-1.168.302-4.849 1.37-4.849-2.068v-8.247h4.849V7.735h-4.849l.023-5.041zm11.649 6.76-.373-1.719h-5.032V28.62h5.825V14.286c2.157-1.789 3.704-1.463 4.426-.506V7.735c-.745-.279-3.471-.79-4.846 1.719zm6.268-1.719h5.848V28.62h-5.848V7.735zm0-1.765 5.848-1.255V0l-5.848 1.23v4.74zm18.01 1.37c-2.284 0-3.752 1.069-4.171 1.812l-.699-1.44h-5.125v27.087l5.824-1.232.024-6.574c.838.604 2.073 1.464 4.123 1.464 4.171 0 7.969-3.345 7.969-10.71-.024-6.637-3.868-10.407-7.945-10.407zm-1.398 16.006c-1.375 0-2.19-.488-2.749-1.092l-.024-8.619c1.2-.673 1.445-1.138 2.773-1.138 2.12 0 3.588 2.37 3.588 5.413 0 3.32-1.445 5.436-3.588 5.436zm27.702-5.366c0-5.65-2.889-10.64-8.411-10.64-5.545 0-8.9 4.99-8.9 10.593 0 6.993 3.961 10.524 9.646 10.524 2.772 0 5.58-.628 6.454-1.51V22.3c-.874 1.61-3.402 1.278-5.709 1.278-2.26 0-4.263-.789-4.52-3.108h11.394c0-.725.046-1.933.046-2.49zm-11.51-2.207c0-2.625 1.608-3.213 3.076-3.213 1.421 0 2.935.588 2.935 3.213h-6.011z"/>
</svg>
