<svg xmlns="http://www.w3.org/2000/svg" width="106" height="32">
    <path fill-rule="evenodd" fill="#909294" d="M97.151 26.1c-4.686 0-8.027-3.513-8.027-7.538v-.046c0-4.024 3.341-7.296 8.074-7.296 4.732 0 8.073 3.225 8.027 7.25v.046c0 4.025-3.341 7.584-8.074 7.584zm2.367-7.584c0-.696-1.067-2.544-2.367-2.544-1.345 0-2.319 1.156-2.319 2.498v.046c0 1.434 1.067 3.084 2.366 3.084 1.345 0 2.32-1.696 2.32-3.038v-.046zm-11.136-8.141h-5.614c-.149-.011-.268-.129-.279.595V6.859a.3.3 0 0 1 .279-.277h5.614c.186 0 .278.092.278.277v4.111c-.011-.724-.129-.606-.278-.595zM81.19 25.779h-5.382a.302.302 0 0 1-.278-.278V6.859a.3.3 0 0 1 .278-.277h5.382c.139 0 .279.092.279.277v18.642a.303.303 0 0 1-.279.278zm-7.006-15.404H68.57c-.149-.011-.267-.129-.279.595V6.859a.301.301 0 0 1 .279-.277h5.614c.185 0 .278.092.278.277v4.111c-.011-.724-.129-.606-.278-.595zm.232 1.295v13.831a.302.302 0 0 1-.278.278h-5.383a.303.303 0 0 1-.278-.278V12.225L64.44 25.501c-.046.139-.232.278.25.278h-5.029c-.139 0-.325-.139-.371-.278l-1.856-5.829-1.902 5.875c-.047.139-.232.278-.372.278h-4.407a.403.403 0 0 1-.371-.278l-3.991-13.229v3.376a.3.3 0 0 1-.278.278H43.97v3.608c0 1.11-.363 2.02.565 2.02.925 0 .975-.632 2.125-.864-.501-.046-.315 0-.315.232v4.163c-.928.509-2.367.832-3.805.832-3.4 0-5.429-1.618-5.429-5.088v-4.903H35.72a.302.302 0 0 1-.279-.278V11.67a.302.302 0 0 1 .279-.278h1.391V8.524c0-.139.14-.231.279-.277l5.336-1.619c.185-.093 1.244.092 1.244.231v4.533h7.525c.186 0 .325.139.371.278l1.299 5.181.093.277.093-.277 1.578-5.274c.046-.139.231-.277.371-.277h4.176c.185 0 .324.138.371.277l1.624 5.644.092-.278 1.392-5.273c.245-.139.233-.278.372-.278H74.91c-.679 0-.541.093-.494.278zM15.814 31.931C7.91 31.931.6 24.853.6 16.157.6 7.46 7.91.383 15.814.383c8.77 0 15.869 7.031 15.869 15.774 0 8.743-7.099 15.82-15.869 15.774zm0-27.385c-6.403 0-11.646 5.227-11.646 11.611 0 6.43 5.243 11.657 11.646 11.657 6.45 0 11.693-5.227 11.693-11.657 0-6.384-5.243-11.611-11.693-11.611zm.65 16.344c0-2.615 1.475-4.085 3.294-4.085 1.82 0 3.772 1.47 3.772 4.085 0 1.012-1.952 2.483-3.772 2.483-1.819 0-3.294-1.471-3.294-2.483zm3.294-5.381c-1.819 0-3.294-1.119-3.294-3.284a3.289 3.289 0 0 1 3.294-3.284c1.82 0 3.772 1.47 3.772 3.284 0 2.165-1.952 3.284-3.772 3.284zm-7.887 7.864c-1.361 0-3.295-1.471-3.295-2.483 0-2.615 1.934-4.085 3.295-4.085 1.819 0 3.294 1.47 3.294 4.085 0 1.012-1.475 2.483-3.294 2.483zm0-7.864c-1.361 0-3.295-1.119-3.295-3.284 0-1.814 1.934-3.284 3.295-3.284a3.289 3.289 0 0 1 3.294 3.284c0 2.165-1.475 3.284-3.294 3.284zm71.036-4.117h5.382c.139 0 .279.093.279.278v13.831a.303.303 0 0 1-.279.278h-5.382a.302.302 0 0 1-.278-.278V11.67a.301.301 0 0 1 .278-.278z"/>
</svg>
