<svg xmlns="http://www.w3.org/2000/svg" width="31" height="31"><path fill-rule="evenodd" fill="#077997" d="M29.651 16.56c-.887-.031-1.776.005-2.663-.012-.764-.015-1.233-.601-1.074-1.303.686-.405.449-.766.862-.774a76.876 76.876 0 0 1 3.327.002c.48.011.717.386 1.097.783v.485c-.44.617-.898.842-1.549.819zm-5.399-8.342c-.395.378-1.01.331-1.398-.047-.402-.39-.463-1.013-.077-1.419.736-.775 1.497-1.527 2.693-2.266-.261-.153-.002-.205.114-.258.553.02.877.21 1.069.596.199.4.17.807-.133 1.125-.738.774-1.26 1.531-2.268 2.269zm-8.769 15.513c-4.53-.012-8.235-3.735-8.218-8.256.018-4.518 3.721-8.21 8.235-8.209 4.74 0 8.241 3.721 8.234 8.242-.007 4.822-3.234 8.236-8.251 8.223zm.022-14.348c-3.365-.003-6.12 2.746-6.123 6.11-.002 3.367 2.746 6.119 6.111 6.122 3.366.003 6.121-2.746 6.124-6.11.003-3.364-2.748-6.12-6.112-6.122zM15.272 5.9c-.421-.3-.791-1.248-.801-1.679a79.888 79.888 0 0 1-.003-3.295c.009-.495.38-.741.79-.926h.484c.613.245.84.699.816 1.351-.034.917.005 1.836-.02 2.753-.019.683-.603 1.118-1.266 1.796zM6.733 8.208a73.213 73.213 0 0 1-2.243-2.25c-.154-.162-.208-.419-.262-.534.016-.554.204-.878.589-1.073.399-.202.809-.177 1.127.125a62.513 62.513 0 0 1 2.288 2.289c.375.396.31 1.011-.077 1.396-.396.392-1.019.435-1.422.047zm-.853 7.516c-.28.421-1.231.793-1.659.802a74.982 74.982 0 0 1-3.325-.002c-.48-.011-.718-.384-.696-.783v-.485c.041-.615.498-.841 1.149-.819.886.031 1.775-.004 2.761.013.652.014 1.115.83 1.77 1.274zm.867 7.054c.405-.386 1.028-.33 1.42.07.381.39.432 1.002.055 1.397-.738.945-1.498 1.527-2.271 2.266-.161.154-.42.205-.536.258-.554-.019-.878-.211-1.069-.596-.198-.399-.172-.808.133-.703.739-1.196 1.494-1.954 2.268-2.692zm7.698 4.392c.013-.926.745-1.402 1.276-1.263.435.086.8.451.808.897.02 1.088.021 2.177 0 3.886-.01-.127-.38.12-.787.308h-.484c-.615-.243-.847-.697-.824-1.349.03-.876-.003-1.755.011-2.479zm9.805-4.394c.99.737 1.527 1.498 2.265 2.694.154-.262.205-.003.258.112-.02.555-.215.877-.6 1.069-.399.198-.807.168-.693-.136-1.205-.738-1.963-1.305-2.701-2.267-.378-.396-.329-1.008.052-1.398.392-.401 1.013-.46 1.419-.074z"/></svg>