<svg xmlns="http://www.w3.org/2000/svg" width="27" height="33"><path fill-rule="evenodd" fill="#9697A3" d="M22.515 23.266c-3.029 2.958-6.094 5.879-9.143 9.554-.03-.71-.063-.683-.108-.643-.055-.044-.115.763.726.283-3.84-2.61-7.073-6.322-10.136-9.304C1.724 21.82.498 18.54.115 15.596c.675-.278.265-.186-.115-.832v-1.566c.18-.08.48.192.53-.24C.147 11.586.477 10.27 1.6 9.4 2.822 4.659 6.31 1.973 10.65.979c.506-.109 1.024-.165 1.536-.245h2.073c.503.076 1.012.129 1.509.234 4.656.984 7.898 3.68 9.699 8.362 2.043 5.37.904 10.172-2.952 13.936zm1.721-11.415C23.729 9.59 22.328 6.75 20.53 5.2c-2.977-2.081-5.814-2.771-8.923-2.342-2.159.298-4.081 1.262-5.694 2.609-2.503 3.123-4.147 5.841-3.777 9.692.227 2.366 1.15 4.469 2.805 6.175 1.847 1.905 3.795 4.126 5.702 5.559.856.829 1.717 1.651 2.603 2.503.101-.09.179-.157.253-.228 2.461-2.371 4.925-4.741 7.383-6.638 2.912-3.29 4.078-6.699 3.354-10.679zm-3.991 3.29c.04.581.103 1.12.109 1.66.027 2.672-1.389 4.528-3.973 5.459a26.424 26.424 0 0 1-4.454.107c-.998-.059-1.975-.218-2.697-.595-2.301-.85-3.358-2.431-3.438-4.662-.022-.621.056-1.245.089-1.893-.127-.031-.277-.063-.426-.103-1.603-.437-2.185-1.991-1.849-3.614.575-1.612 1.59-2.937 2.976-3.941.963-.698 2.029-.914 3.159-.34.069.036.2.003.459-.04a17 17 0 0 1 6.48-.038c-.534.041-.404.075-.339.039.99-.547 1.989-.464 2.89.119 1.737 1.125 2.946 2.686 3.437 4.831.326 1.229-.67 2.62-2.091 3.57-.111.25-.222-.582-.332-.559zm-7.041 1.778c.255-.181.483-.415.673-.665.223.546.007-.318-.195-.352-.185-.032-.374-.039-.471-.048.569 0 .129-.009-.216.001-.251.064-.671.075-.717.795-.116-.242.214-.011.476.173.121.084.364.158.45.096zM8.723 8.222c-.261.038-.526.061-.783.12a1.267 1.267 0 0 0-.423.197c-1.266.89-2.19 2.055-2.675 4.071-.296.347.518 1.063 1.122 1.254.253.052.354-.018.451-.264.707-1.793 1.112-3.72 2.346-5.282l-.038-.096zm7.08.409c-1.158-1.023-2.557-1.096-3.993-.77-1.273.289-2.114 1.259-2.62 2.288-.574 1.292-1.034 2.635-1.541 3.957a8.24 8.24 0 0 0-.526 2.434c-.126 1.945.722 3.346 2.474 4.024.262.101.533.194.809.241 1.164.113 1.308.295 1.995.295 0-.946-.007-1.801.006-2.656.003-.209-.072-.314-.248-.124-.517-.577-.902-.999-.909-1.544-.612-.907.42-1.865.747-2.128a3.914 3.914 0 0 1 2.17.004c.816.235 1.248 1.02 1.042 1.841.101.712-.649 1.197-1.256 2.167-.079-.545-.194-.46-.195-.39-.013.916-.008 1.832-.008 3.22.99-.22 1.909-.589 2.788-.92 1.298.25 2.151-1.375 2.406-2.767.976-.812.916-1.633-.076-2.423-.498-1.808-1.108-3.585-1.933-5.272-.268-.548-.673-.748-1.132-1.477zm5.466 3.275c-.49-1.379-1.366-2.495-2.544-3.365-.395-.292-.853-.432-1.343-.342.35.629.751 1.218 1.022 2.411.483.6.893 1.78 1.318 2.953.08.222.179.287.409.241.991-.199 1.476-.946 1.138-1.898zm-6.415 1.416c-.345-.001-.637.188-.659-.623-.011-.187-.002-.375-.002-.562 0-.177-.009-.355.002-.531a.649.649 0 0 1 .662-.615c.357 0 .643.257.657.618.014.364.015.729 0 1.093-.015.858-.312.62-.66.62zm-3.572 0c-.358.004-.651.148-.668-.645-.008-.177-.002-.354-.001-.531 0-.177-.008-.355.002-.531a.644.644 0 0 1 .652-.624c.356-.003.65.252.666.609.016.364.015.729.001 1.093-.013.787-.305.624-.652.629z"/></svg>