<svg>
    <path fill-rule="evenodd" fill="#9D9EAA" d="M24.513 24.658c-.327.252-.706.582-1.097.457h-.486c-.351-.15-.738-.248-1.047-.459-.651-.445-.89-1.123-.891-1.894v-6.46h-4.353V14.84h4.335v-1.472h-4.342v-1.456h4.342v-1.466h-4.333V8.985h4.332v-1.47h-4.34V6.56h4.347V4.596h-4.345V3.139h4.342V1.625h-4.359V.159h6.798c.391.091.77.205 1.097.457.388.301.622.703.796 1.149v21.744c-.174.447-.408.848-.796 1.149zm-.606-22.332c-.02-.386-.286-.674-.672-.701-.248-.017-.499-.003-.785-.003v.246c0 6.971 0 13.942.002 20.913 0 .12.012.469.045.359a.73.73 0 0 0 .691.514c.319-.001.626-.228.697-.539.031-.132.024-.274.024-.411l.001-20.135c0-.081.001-.162-.003-.243zM13.471 17.592c.073.103.22.19.345.213 1.47.895 2.695 1.45 2.944 2.866.64 1.593-.376 3.081-1.39 3.861-1.517.684-2.737.717-3.933.062-1.255-.686-1.873-1.798-1.891-3.22-.005-.388.115-.78.204-1.164.034.42.035-.249-.056-.376-.34-.472-.414-.954-1.02-1.466-.17.243-.324.465-.479 1.182-.069-.395.475-.286-.21-.198-.393.418-.457.851-.311 1.433 1.016 1.58-.524 3.334-2.018 3.978-.374.16-.783.237-1.176.352H3.8c-.326.205-.663-.135-.975-.255A3.605 3.605 0 0 1 .48 21.419c.017-1.532.965-2.871 2.413-3.219.627-.238.324-.309.488-.313.272-.008.411-.157.551-.361.637-.937 1.282-1.868 1.935-2.794.11-.156.118-.258.004-.42-.72-1.027-1.446-2.05-2.133-3.098C2.707 9.64 2.161 7.901 2.41 6.19c-.445-1.356-.26-2.51-.045-3.665.043-.23.086.125.141-.755l6.166 8.901 6.125-8.84c.092.49.176.927.733 1.365-.308.926-.216 2.334-.264 2.801-.096 1.901-.646 3.657-1.681 5.248-.68 1.044-1.405 2.058-2.117 3.08-.097.14-.113.231-.008.379.675.96 1.334 1.93 2.011 2.888zm-.287 5.995a2.164 2.164 0 0 0 2.179-2.144c.022-1.224-.922-2.2-2.168-2.226-.295-.025-2.198.952-2.196 2.178.101 1.167.869 2.177 2.185 2.192zm-11.242-2.14c.005 1.22.986 2.227 2.174 2.202 1.251-.026 2.175-.949 2.188-2.166.013-1.305-1.022-2.214-2.188-2.209a2.177 2.177 0 0 0-2.174 2.173zm3.445-3.465 1.245.765c1.168-.543.765-1.104 1.153-.907-.298-1.185-.582-1.596-.889-2.038l-1.509 2.18zm6.108-6.251c.722-1.025 1.435-2.054 1.832-3.263.273-.833.458-1.68.432-2.573-.091.375-.184.263-.275.395a4084.82 4084.82 0 0 0-3.783 5.465c-.05.073-.123.202-.095.345.264.312.548.71.843 1.136.365-.525.702-1.017 1.046-1.505zM3.506 5.776c0 .135-.002.19 0 .444.003-.093.002.013.013.118a9.452 9.452 0 0 0 1.662 4.423c1.793 2.586 3.583 5.175 5.376 7.763.044.064.096.122.125.159l1.238-.76L3.506 5.776z"/>
</svg>
