<svg xmlns="http://www.w3.org/2000/svg" width="32" height="26"><path fill-rule="evenodd" fill="#9697A3" d="M20.951.193h1.432l.717.1c0 .289.64.578.006.86.046.395.694.6-.464.789-2.059 1.458-3.098 3.187-2.711 5.454.559 3.272 4.186 5.151 7.201 3.732 1.142-.538 2.768-1.395 2.514-2.516.048-.098.138-.242.215-.246.441-.023.885-.011 1.314-.011.036.267.066.49.096 1.325v.877c-.038.234-.078.683-.114.7-.361 2.313-1.428 4.241-3.174 6.283-.761.192-1.62.72-2.57 1.138l.213.231c2.097 2.286 1.08 5.904-1.897 6.744-.208.059-.42.102.261.153H5.321c-.044-.018-.087-.046-.133-.053-1.348-.293-3.761-1.763-4.297-3.82-.061-.236-.109-.476-.163-.714v-1.072c.018.763.043.213.052-.168.325-1.985 1.43-3.357 3.92-4.103-.311-.127-.159-.263-.08-.609.63-2.761 3.091-4.915 5.905-4.487.975-.46.964-.49 1.418-.08.267-1.369.447-2.058.243-2.719C13.54 4.92 15.436 1.604 19.26.5c.548-.158 1.127-.207 1.691-.307zM6.17 17.257c-.262.035-.467.067-.673.089-1.988.208-3.37 2.18-2.879 4.11.532 1.724 1.707 2.724 3.369 2.734 3.846.02 7.693.01 11.54.01 1.72 0 3.44.17 5.159-.09.905-.112 1.598-.554 2.008-1.365 1.296-.799.676-1.595-.164-2.337-.27-.735-1.235-1.036-2.105-.999.415.014-.467-.101-.538-.439-.527-2.503-2.107-3.756-4.357-3.414-.719.041-.962.067-1.2.099-.907-2.949-3.592-4.16-5.848-3.781-1.056.646-1.974.642-2.743 1.391-1.118 1.089-1.561 2.451-1.569 3.992zM19.359 2.314c-.212.075-.426.142-.635.225-3.139 1.261-5.09 4.322-4.936 7.722.009.204.111.265.732.332.933.612 2.02 1.577 2.778 2.903.099.173.206.221.397.225 2.022.042 3.666.848 4.877 2.476.292.392 1.288 1.133.771 1.26 3.1-.627 5.288-3.26 5.775-5.207-1.44 1.2-3.011 1.261-4.75 1.108-1.744-.152-3.211-.883-4.425-2.135-1.982-2.043-2.765-5.745-.584-8.909z"/></svg>