<svg xmlns="http://www.w3.org/2000/svg" width="23" height="23" viewBox="0 0 23 23">
  <path id="_-e-Shape_17" data-name="-e-Shape 17" d="M4089,1669.5a11.5,11.5,0,1,1,11.5,11.5A11.513,11.513,0,0,1,4089,1669.5Zm10.5,9.448v-2.8h2v2.8a9.517,9.517,0,0,0,8.447-8.448h-2.8v-2h2.8a9.516,9.516,0,0,0-8.447-8.447v2.8h-2v-2.8a9.516,9.516,0,0,0-8.448,8.447h2.8v2h-2.8A9.517,9.517,0,0,0,4099.5,1678.947Zm-.126-9.448a1.125,1.125,0,1,1,1.125,1.125A1.126,1.126,0,0,1,4099.373,1669.5Z" transform="translate(-4088.999 -1657.999)" fill="#077997"/>
</svg>
